<svg width="118" height="193" viewBox="0 0 118 193" fill="none" xmlns="http://www.w3.org/2000/svg">
<g clip-path="url(#clip0_0_15)">
<path d="M-190.771 -198.757L-192.244 -191.694L-194.468 -181.018C-196.741 -182.678 -199.167 -184.094 -201.721 -185.233L-204.365 -206.38L-208.5 -187.456C-209.487 -187.668 -210.492 -187.838 -211.515 -187.96C-212.51 -188.081 -213.509 -188.143 -214.502 -188.166L-218.831 -214.025L-221.702 -187.497C-222.822 -187.26 -223.93 -186.963 -225.021 -186.602L-235.651 -202.346L-230.925 -183.941C-232.367 -183.096 -233.739 -182.132 -235.028 -181.058L-247.139 -189.989L-239.193 -176.787C-240.18 -175.543 -241.072 -174.213 -241.856 -172.792L-252.689 -175.243L-243.888 -168.099C-244.473 -166.276 -244.869 -164.392 -245.043 -162.489L-253.763 -160.634L-245.062 -157.896C-244.949 -156.513 -244.708 -155.143 -244.364 -153.797L-250.423 -149.62L-243.024 -149.95C-242.663 -149.143 -242.26 -148.35 -241.803 -147.581C-239.425 -143.571 -235.85 -140.805 -231.92 -138.412C-227.518 -135.729 -221.929 -133.334 -219.812 -128.307C-219.761 -128.072 -219.632 -127.852 -219.446 -127.671C-219.264 -127.475 -219.04 -127.347 -218.8 -127.284C-218.79 -127.278 -218.783 -127.275 -218.776 -127.274C-218.735 -127.267 -218.699 -127.258 -218.657 -127.251C-218.44 -127.206 -218.206 -127.207 -217.974 -127.274C-217.686 -127.351 -217.43 -127.513 -217.263 -127.734C-212.221 -132.173 -218.941 -138.858 -221.466 -142.634C-225.54 -148.728 -228.479 -157.35 -222.132 -163.089C-216.419 -168.247 -207.046 -165.964 -204.268 -158.796C-203.003 -155.54 -203.16 -151.236 -205.685 -148.586C-206.805 -147.413 -208.194 -146.889 -209.581 -146.897C-203.879 -149.125 -203.984 -157.593 -209.393 -160.513C-216.162 -164.173 -223.287 -157.331 -222.154 -150.371C-221.507 -146.421 -218.789 -143.676 -215.53 -141.607C-211.815 -139.243 -208.248 -137.206 -205.081 -134.083C-198.906 -127.991 -193.898 -120.186 -191.529 -111.811C-191.349 -111.171 -190.791 -110.851 -190.235 -110.853C-189.68 -110.858 -189.125 -111.185 -188.954 -111.826C-186.686 -120.23 -181.774 -128.095 -175.673 -134.262C-172.545 -137.423 -169.003 -139.503 -165.317 -141.912C-162.083 -144.021 -159.399 -146.799 -158.8 -150.757C-157.752 -157.729 -164.96 -164.484 -171.683 -160.742C-177.057 -157.757 -177.058 -149.289 -171.33 -147.13C-172.716 -147.105 -174.112 -147.611 -175.246 -148.771C-177.803 -151.391 -178.012 -155.692 -176.787 -158.963C-174.096 -166.164 -164.752 -168.561 -158.977 -163.473C-152.561 -157.812 -155.395 -149.155 -159.394 -143.011C-161.873 -139.205 -168.511 -132.438 -163.415 -128.062C-163.246 -127.843 -162.987 -127.683 -162.698 -127.611C-162.466 -127.546 -162.232 -127.548 -162.015 -127.595C-161.974 -127.603 -161.938 -127.613 -161.897 -127.62C-161.89 -127.622 -161.882 -127.624 -161.873 -127.63C-161.633 -127.696 -161.411 -127.827 -161.232 -128.025C-161.047 -128.208 -160.921 -128.43 -160.873 -128.666C-158.818 -133.718 -153.258 -136.18 -148.889 -138.917C-144.989 -141.357 -141.448 -144.167 -139.118 -148.206C-138.671 -148.98 -138.277 -149.779 -137.926 -150.589L-130.524 -150.349L-136.634 -154.452C-136.306 -155.802 -136.081 -157.175 -135.985 -158.56L-127.318 -161.403L-136.06 -163.152C-136.258 -165.052 -136.676 -166.932 -137.283 -168.747L-128.569 -175.998L-139.372 -173.415C-140.173 -174.827 -141.082 -176.146 -142.083 -177.377L-134.299 -190.675L-146.301 -181.597C-147.603 -182.657 -148.987 -183.604 -150.439 -184.43L-145.937 -202.891L-156.375 -187.019C-157.469 -187.367 -158.581 -187.651 -159.704 -187.874L-162.897 -214.365L-166.911 -188.455C-167.904 -188.421 -168.903 -188.346 -169.896 -188.214C-170.916 -188.078 -171.92 -187.896 -172.905 -187.673L-177.269 -206.545L-179.655 -185.367C-182.195 -184.198 -184.604 -182.752 -186.857 -181.064L-189.21 -191.712L-190.771 -198.757ZM-479.787 93.7958L-472.723 95.2696L-462.047 97.4928C-463.708 99.7662 -465.124 102.193 -466.262 104.746L-487.409 107.39L-468.485 111.524C-468.697 112.511 -468.866 113.517 -468.99 114.539C-469.11 115.535 -469.172 116.534 -469.195 117.528L-495.054 121.857L-468.526 124.727C-468.289 125.847 -467.992 126.955 -467.632 128.046L-483.375 138.676L-464.97 133.95C-464.126 135.392 -463.162 136.764 -462.087 138.053L-471.018 150.164L-457.816 142.219C-456.572 143.205 -455.242 144.098 -453.821 144.881L-456.272 155.715L-449.128 146.914C-447.305 147.499 -445.421 147.895 -443.518 148.069L-441.663 156.789L-438.925 148.087C-437.542 147.975 -436.172 147.734 -434.826 147.389L-430.649 153.448L-430.979 146.05C-430.173 145.689 -429.379 145.285 -428.61 144.829C-424.6 142.451 -421.834 138.876 -419.441 134.946C-416.758 130.544 -414.362 124.955 -409.336 122.838C-409.1 122.787 -408.88 122.657 -408.699 122.472C-408.504 122.29 -408.375 122.066 -408.313 121.826C-408.306 121.816 -408.304 121.809 -408.303 121.802C-408.296 121.761 -408.286 121.724 -408.28 121.683C-408.234 121.466 -408.235 121.232 -408.303 121C-408.379 120.711 -408.542 120.455 -408.763 120.289C-413.201 115.246 -419.886 121.967 -423.662 124.492C-429.757 128.566 -438.379 131.504 -444.117 125.157C-449.275 119.445 -446.992 110.072 -439.824 107.294C-436.568 106.029 -432.265 106.186 -429.615 108.711C-428.441 109.83 -427.918 111.22 -427.926 112.606C-430.154 106.905 -438.622 107.009 -441.542 112.419C-445.202 119.187 -438.359 126.313 -431.4 125.18C-427.45 124.532 -424.705 121.815 -422.636 118.556C-420.272 114.841 -418.234 111.274 -415.111 108.107C-409.02 101.932 -401.215 96.9241 -392.839 94.5553C-392.2 94.3753 -391.88 93.8175 -391.881 93.2617C-391.886 92.7059 -392.213 92.1515 -392.855 91.9799C-401.259 89.7126 -409.124 84.8007 -415.29 78.6998C-418.451 75.5715 -420.532 72.0294 -422.941 68.3434C-425.05 65.1093 -427.828 62.4259 -431.785 61.8266C-438.758 60.7785 -445.513 67.9869 -441.771 74.7102C-438.786 80.084 -430.317 80.0854 -428.159 74.3574C-428.133 75.7438 -428.64 77.1394 -429.8 78.2733C-432.419 80.8301 -436.721 81.0394 -439.992 79.8142C-447.193 77.1232 -449.589 67.7795 -444.502 62.0044C-438.84 55.588 -430.184 58.422 -424.04 62.4212C-420.234 64.9006 -413.467 71.5386 -409.09 66.4425C-408.872 66.2732 -408.712 66.0146 -408.639 65.7257C-408.574 65.493 -408.576 65.2597 -408.624 65.0423C-408.631 65.0013 -408.641 64.9652 -408.649 64.9242C-408.651 64.9172 -408.652 64.9096 -408.659 64.8999C-408.725 64.6605 -408.856 64.4387 -409.053 64.259C-409.237 64.0754 -409.459 63.9487 -409.694 63.9004C-414.746 61.845 -417.209 56.285 -419.946 51.9161C-422.386 48.0158 -425.196 44.4754 -429.234 42.1454C-430.009 41.6986 -430.808 41.3048 -431.618 40.9538L-431.379 33.5516L-435.481 39.6609C-436.832 39.3331 -438.204 39.1087 -439.589 39.0128L-442.432 30.3454L-444.181 39.0872C-446.082 39.2851 -447.961 39.7033 -449.776 40.3107L-457.027 31.5966L-454.444 42.3998C-455.856 43.2008 -457.175 44.1093 -458.407 45.1106L-471.704 37.3262L-462.626 49.3285C-463.685 50.6297 -464.633 52.0139 -465.459 53.4661L-483.92 48.9643L-468.049 59.402C-468.396 60.4963 -468.68 61.6086 -468.902 62.7308L-495.394 65.9238L-469.484 69.938C-469.449 70.9311 -469.375 71.9294 -469.242 72.923C-469.106 73.9431 -468.925 74.9472 -468.701 75.9317L-487.574 80.2959L-466.396 82.6821C-465.226 85.2218 -463.781 87.6308 -462.093 89.8838L-472.741 92.2367L-479.787 93.7958ZM-187.233 382.812L-185.76 375.748L-183.536 365.073C-181.263 366.733 -178.837 368.149 -176.283 369.287L-173.639 390.435L-169.505 371.511C-168.518 371.722 -167.512 371.892 -166.49 372.015C-165.494 372.136 -164.496 372.198 -163.502 372.221L-159.173 398.08L-156.303 371.551C-155.183 371.315 -154.074 371.018 -152.984 370.657L-142.354 386.401L-147.08 367.996C-145.638 367.151 -144.265 366.187 -142.977 365.112L-130.865 374.044L-138.811 360.842C-137.824 359.598 -136.932 358.268 -136.148 356.847L-125.315 359.298L-134.116 352.154C-133.531 350.331 -133.135 348.447 -132.961 346.544L-124.241 344.689L-132.942 341.951C-133.056 340.567 -133.296 339.197 -133.64 337.851L-127.581 333.675L-134.98 334.004C-135.341 333.198 -135.744 332.404 -136.201 331.636C-138.579 327.626 -142.154 324.859 -146.084 322.466C-150.486 319.783 -156.075 317.388 -158.192 312.361C-158.243 312.126 -158.372 311.906 -158.558 311.725C-158.74 311.53 -158.964 311.401 -159.204 311.338C-159.214 311.332 -159.221 311.33 -159.228 311.328C-159.269 311.322 -159.305 311.312 -159.347 311.305C-159.564 311.26 -159.798 311.261 -160.03 311.329C-160.318 311.405 -160.574 311.568 -160.741 311.789C-165.783 316.227 -159.063 322.912 -156.538 326.688C-152.464 332.783 -149.525 341.404 -155.873 347.143C-161.585 352.301 -170.958 350.018 -173.736 342.85C-175.001 339.594 -174.844 335.29 -172.319 332.641C-171.199 331.467 -169.81 330.943 -168.423 330.952C-174.125 333.18 -174.02 341.648 -168.611 344.567C-161.842 348.228 -154.717 341.385 -155.85 334.426C-156.497 330.476 -159.215 327.731 -162.474 325.661C-166.189 323.297 -169.756 321.26 -172.923 318.137C-179.098 312.046 -184.106 304.24 -186.475 295.865C-186.655 295.226 -187.213 294.905 -187.769 294.907C-188.324 294.912 -188.879 295.24 -189.05 295.881C-191.318 304.284 -196.23 312.15 -202.331 318.316C-205.459 321.477 -209.001 323.558 -212.687 325.967C-215.921 328.076 -218.605 330.853 -219.204 334.811C-220.252 341.783 -213.044 348.538 -206.321 344.797C-200.947 341.812 -200.946 333.343 -206.674 331.184C-205.288 331.159 -203.892 331.665 -202.758 332.826C-200.201 335.445 -199.992 339.747 -201.217 343.017C-203.908 350.218 -213.252 352.615 -219.027 347.527C-225.443 341.866 -222.609 333.21 -218.61 327.066C-216.131 323.259 -209.493 316.493 -214.589 312.116C-214.758 311.897 -215.017 311.738 -215.306 311.665C-215.538 311.6 -215.772 311.602 -215.989 311.65C-216.03 311.657 -216.066 311.667 -216.107 311.674C-216.114 311.676 -216.122 311.678 -216.131 311.685C-216.371 311.75 -216.593 311.881 -216.772 312.079C-216.956 312.262 -217.083 312.485 -217.131 312.72C-219.186 317.771 -224.746 320.234 -229.115 322.971C-233.016 325.412 -236.556 328.222 -238.886 332.26C-239.333 333.035 -239.726 333.833 -240.078 334.643L-247.48 334.404L-241.37 338.507C-241.698 339.857 -241.923 341.23 -242.019 342.614L-250.686 345.458L-241.944 347.207C-241.746 349.107 -241.328 350.987 -240.721 352.802L-249.435 360.053L-238.632 357.47C-237.831 358.881 -236.922 360.201 -235.921 361.432L-243.705 374.73L-231.703 365.652C-230.402 366.711 -229.018 367.658 -227.566 368.485L-232.068 386.946L-221.63 371.074C-220.536 371.421 -219.423 371.706 -218.301 371.929L-215.108 398.42L-211.093 372.51C-210.1 372.476 -209.102 372.401 -208.108 372.268C-207.088 372.133 -206.084 371.951 -205.1 371.727L-200.735 390.599L-198.349 369.421C-195.809 368.252 -193.4 366.807 -191.147 365.119L-188.794 375.767L-187.233 382.812ZM101.783 90.2586L94.7192 88.7848L84.0434 86.5616C85.7036 84.2883 87.1197 81.8619 88.2579 79.3081L109.405 76.6645L90.4816 72.5301C90.6927 71.5431 90.8627 70.5368 90.9856 69.5151C91.1059 68.5194 91.1685 67.5208 91.1911 66.5273L117.05 62.1984L90.5212 59.3278C90.2848 58.2078 89.9875 57.0996 89.6271 56.0096L105.371 45.3796L86.966 50.1056C86.1216 48.6637 85.1577 47.2911 84.0825 46.0028L93.0138 33.8905L79.812 41.8361C78.5685 40.8497 77.238 39.9574 75.817 39.1736L78.2682 28.3398L71.1241 37.1414C69.3013 36.5562 67.417 36.1603 65.514 35.9861L63.659 27.2662L60.9214 35.9676C59.5382 36.0808 58.1682 36.3214 56.8221 36.6656L52.6454 30.6066L52.9751 38.0053C52.1687 38.3662 51.3749 38.7697 50.6058 39.2259C46.5961 41.6043 43.8295 45.1792 41.4367 49.1089C38.7535 53.5107 36.3584 59.1003 31.3316 61.217C31.0964 61.2681 30.8762 61.3975 30.6953 61.5833C30.4998 61.7654 30.3715 61.9888 30.3087 62.229C30.3023 62.2388 30.3002 62.2463 30.2986 62.2534C30.2918 62.2944 30.2823 62.3307 30.2755 62.3718C30.2304 62.5898 30.2313 62.8231 30.2991 63.055C30.3754 63.3435 30.538 63.5996 30.7588 63.7662C35.1972 68.8087 41.8824 62.0884 45.6585 59.5634C51.7532 55.4897 60.3746 52.5506 66.1136 58.8977C71.2717 64.6104 68.9882 73.9832 61.8204 76.7611C58.5645 78.0259 54.2606 77.869 51.6109 75.3442C50.4373 74.2245 49.9135 72.8352 49.9219 71.4486C52.1501 77.1499 60.6181 77.0455 63.5378 71.6358C67.1978 64.8675 60.3554 57.7422 53.3959 58.8746C49.4458 59.5225 46.701 62.2395 44.6315 65.4984C42.2677 69.2135 40.2303 72.7807 37.1074 75.9472C31.0158 82.1226 23.2106 87.1299 14.8353 89.4992C14.1957 89.6786 13.8756 90.2369 13.8768 90.7927C13.8818 91.3485 14.2092 91.9029 14.8509 92.0746C23.2545 94.3418 31.12 99.2537 37.2863 105.355C40.4474 108.483 42.5281 112.025 44.9369 115.711C47.0459 118.945 49.8236 121.629 53.7812 122.228C60.754 123.276 67.5087 116.068 63.7671 109.345C60.7819 103.971 52.3132 103.97 50.1545 109.698C50.1293 108.311 50.6361 106.916 51.796 105.782C54.4154 103.225 58.717 103.016 61.9876 104.241C69.1886 106.932 71.5854 116.276 66.4977 122.051C60.8364 128.467 52.1793 125.633 46.036 121.634C42.2295 119.154 35.463 112.516 31.0863 117.612C30.8675 117.782 30.7081 118.04 30.6353 118.329C30.5703 118.562 30.5723 118.795 30.62 119.013C30.6273 119.054 30.6372 119.09 30.6445 119.131C30.6467 119.138 30.6484 119.145 30.6549 119.155C30.7207 119.394 30.8516 119.616 31.0494 119.796C31.2325 119.98 31.4542 120.106 31.69 120.155C36.7422 122.21 39.2046 127.77 41.9417 132.139C44.3821 136.039 47.192 139.58 51.2303 141.91C52.0049 142.356 52.8035 142.75 53.6143 143.101L53.3746 150.503L57.4773 144.394C58.8275 144.722 60.2004 144.946 61.5848 145.042L64.428 153.71L66.1768 144.968C68.0775 144.77 69.9569 144.352 71.7725 143.744L79.0231 152.458L76.4403 141.655C77.8517 140.854 79.1712 139.946 80.4026 138.944L93.7001 146.73L84.6221 134.728C85.6816 133.426 86.6287 132.042 87.4555 130.59L105.916 135.092L90.0446 124.654C90.3923 123.56 90.6761 122.447 90.8983 121.325L117.39 118.132L91.4805 114.118C91.4458 113.124 91.3712 112.126 91.2387 111.132C91.1029 110.112 90.9212 109.108 90.6981 108.123L109.57 103.759L88.3921 101.373C87.2229 98.8331 85.7774 96.4242 84.0897 94.1711L94.7376 91.8182L101.783 90.2586ZM-190.56 -164.104C-191.091 -164.748 -191.64 -165.382 -192.214 -165.994C-193.409 -167.286 -194.654 -168.538 -196.012 -169.678C-197.359 -170.82 -198.776 -171.902 -200.28 -172.86C-201.788 -173.814 -203.364 -174.674 -205.021 -175.375C-208.32 -176.786 -211.907 -177.634 -215.547 -177.68C-217.363 -177.696 -219.189 -177.527 -220.969 -177.133C-222.745 -176.733 -224.476 -176.097 -226.097 -175.264C-227.726 -174.434 -229.246 -173.384 -230.577 -172.13C-231.917 -170.889 -233.086 -169.452 -233.971 -167.855C-234.875 -166.271 -235.521 -164.542 -235.876 -162.768C-236.241 -161 -236.338 -159.185 -236.149 -157.409C-235.769 -153.863 -234.426 -150.536 -232.552 -147.662C-231.615 -146.219 -230.559 -144.869 -229.417 -143.614C-228.257 -142.369 -227.025 -141.203 -225.732 -140.122C-226.855 -141.376 -227.944 -142.657 -228.928 -144.011C-229.91 -145.361 -230.8 -146.776 -231.548 -148.244C-232.292 -149.714 -232.929 -151.234 -233.369 -152.796C-233.808 -154.358 -234.064 -155.953 -234.095 -157.545C-234.188 -160.716 -233.335 -163.861 -231.618 -166.427C-229.93 -169.012 -227.481 -171.064 -224.665 -172.323C-223.264 -172.952 -221.783 -173.425 -220.257 -173.683C-218.738 -173.955 -217.188 -174.067 -215.643 -173.997C-212.541 -173.871 -209.475 -173.058 -206.63 -171.738C-205.207 -171.079 -203.821 -170.311 -202.504 -169.442C-201.178 -168.578 -199.927 -167.59 -198.727 -166.541C-197.517 -165.498 -196.383 -164.36 -195.298 -163.171C-194.407 -162.218 -193.583 -161.189 -192.777 -160.151C-191.864 -146.951 -191.673 -133.711 -191.999 -120.489C-196.142 -129.177 -202.795 -137.128 -210.811 -141.908C-212.376 -142.842 -214.096 -143.747 -215.593 -144.861C-217.211 -146.066 -218.577 -147.524 -219.228 -149.542C-220.535 -153.575 -218.26 -158.465 -213.711 -158.816C-209.631 -159.127 -206.239 -154.723 -208.674 -151.077C-209.855 -149.313 -212.183 -148.369 -214.109 -149.647C-216.182 -151.017 -215.281 -154.609 -212.628 -153.733C-210.999 -153.194 -210.337 -155.771 -211.956 -156.303C-214.856 -157.263 -218.02 -154.893 -218.099 -151.837C-218.124 -150.879 -217.854 -150.019 -217.39 -149.267C-216.677 -147.902 -215.689 -146.773 -214.538 -145.935C-211.105 -143.431 -206.251 -143.504 -203.162 -147.465C-199.202 -152.553 -200.609 -160.295 -204.979 -164.643C-209.08 -168.718 -215.696 -169.759 -220.856 -167.164C-226.726 -164.214 -229.407 -157.711 -228.252 -151.399C-227.549 -147.555 -225.654 -144.065 -223.479 -140.867C-221.958 -138.637 -217.457 -134.204 -218.285 -131.037C-222.935 -138.589 -233.508 -140.237 -238.656 -147.596C-248.34 -161.44 -238.44 -180.304 -223.204 -184.531C-211.677 -187.734 -199.935 -183.15 -191.562 -175.108C-191.328 -174.887 -191.052 -174.783 -190.769 -174.764C-190.721 -174.756 -190.673 -174.753 -190.625 -174.753C-190.575 -174.753 -190.527 -174.757 -190.48 -174.766C-190.198 -174.789 -189.922 -174.896 -189.691 -175.119C-181.417 -183.264 -169.731 -187.99 -158.166 -184.928C-142.879 -180.886 -132.751 -162.143 -142.266 -148.184C-147.324 -140.763 -157.876 -138.986 -162.434 -131.378C-163.301 -134.535 -158.854 -139.022 -157.36 -141.27C-155.224 -144.494 -153.371 -148.008 -152.715 -151.86C-151.638 -158.185 -154.397 -164.655 -160.303 -167.533C-165.494 -170.065 -172.097 -168.944 -176.147 -164.819C-180.465 -160.418 -181.777 -152.66 -177.756 -147.621C-174.619 -143.698 -169.764 -143.683 -166.362 -146.229C-165.222 -147.081 -164.247 -148.222 -163.551 -149.596C-163.095 -150.353 -162.837 -151.216 -162.873 -152.174C-162.989 -155.229 -166.182 -157.56 -169.07 -156.565C-170.682 -156.013 -169.989 -153.444 -168.366 -154.003C-165.724 -154.911 -164.78 -151.331 -166.836 -149.935C-168.746 -148.634 -171.085 -149.55 -172.288 -151.299C-174.767 -154.915 -171.429 -159.36 -167.346 -159.099C-162.792 -158.803 -160.459 -153.941 -161.716 -149.893C-162.343 -147.867 -163.69 -146.393 -165.294 -145.168C-166.778 -144.035 -168.486 -143.109 -170.04 -142.157C-177.997 -137.28 -184.553 -129.248 -188.59 -120.511C-189.076 -133.728 -189.046 -146.969 -188.293 -160.179C-187.5 -161.228 -186.689 -162.266 -185.81 -163.229C-184.739 -164.432 -183.619 -165.583 -182.422 -166.641C-181.235 -167.704 -179.996 -168.708 -178.68 -169.588C-177.374 -170.473 -175.997 -171.257 -174.583 -171.934C-171.754 -173.288 -168.698 -174.139 -165.598 -174.303C-164.053 -174.391 -162.502 -174.298 -160.981 -174.045C-159.452 -173.805 -157.964 -173.351 -156.556 -172.739C-153.726 -171.513 -151.251 -169.492 -149.532 -166.928C-147.784 -164.383 -146.893 -161.248 -146.947 -158.076C-146.959 -156.485 -147.195 -154.886 -147.616 -153.318C-148.036 -151.751 -148.655 -150.224 -149.381 -148.744C-150.111 -147.268 -150.984 -145.842 -151.949 -144.48C-152.917 -143.114 -153.99 -141.821 -155.098 -140.553C-153.818 -141.649 -152.601 -142.83 -151.456 -144.089C-150.329 -145.358 -149.29 -146.72 -148.37 -148.175C-146.531 -151.072 -145.228 -154.415 -144.892 -157.965C-144.724 -159.743 -144.843 -161.557 -145.23 -163.32C-145.607 -165.09 -146.274 -166.811 -147.197 -168.384C-148.101 -169.97 -149.288 -171.393 -150.642 -172.617C-151.989 -173.855 -153.521 -174.886 -155.16 -175.697C-156.792 -176.51 -158.53 -177.125 -160.311 -177.503C-162.095 -177.875 -163.923 -178.021 -165.739 -177.984C-169.379 -177.894 -172.954 -177.002 -176.236 -175.551C-177.884 -174.83 -179.45 -173.951 -180.947 -172.979C-182.439 -172.003 -183.843 -170.903 -185.175 -169.745C-186.52 -168.588 -187.749 -167.322 -188.928 -166.015C-189.495 -165.395 -190.037 -164.754 -190.56 -164.104ZM-445.133 93.585C-445.777 94.1162 -446.411 94.6656 -447.023 95.2397C-448.315 96.4343 -449.567 97.6789 -450.708 99.0373C-451.849 100.384 -452.931 101.801 -453.889 103.305C-454.843 104.814 -455.703 106.39 -456.404 108.046C-457.815 111.345 -458.663 114.932 -458.708 118.572C-458.724 120.388 -458.556 122.214 -458.161 123.994C-457.762 125.771 -457.126 127.501 -456.293 129.123C-455.463 130.752 -454.413 132.271 -453.158 133.603C-451.917 134.942 -450.48 136.112 -448.884 136.996C-447.3 137.9 -445.571 138.546 -443.796 138.901C-442.028 139.266 -440.214 139.364 -438.438 139.174C-434.892 138.794 -431.565 137.451 -428.691 135.577C-427.248 134.64 -425.899 133.584 -424.643 132.442C-423.398 131.282 -422.232 130.05 -421.151 128.758C-422.406 129.881 -423.686 130.969 -425.04 131.954C-426.39 132.935 -427.805 133.825 -429.273 134.573C-430.743 135.317 -432.263 135.954 -433.825 136.394C-435.387 136.833 -436.982 137.089 -438.574 137.12C-441.745 137.213 -444.89 136.36 -447.456 134.643C-450.041 132.955 -452.092 130.506 -453.352 127.691C-453.981 126.289 -454.453 124.808 -454.712 123.282C-454.984 121.764 -455.096 120.214 -455.027 118.668C-454.9 115.566 -454.087 112.5 -452.767 109.655C-452.108 108.232 -451.341 106.846 -450.471 105.529C-449.607 104.203 -448.619 102.952 -447.571 101.752C-446.527 100.543 -445.39 99.4085 -444.2 98.3231C-443.248 97.4325 -442.219 96.6084 -441.18 95.8021C-427.981 94.8889 -414.741 94.6976 -401.519 95.0234C-410.207 99.1664 -418.158 105.82 -422.938 113.836C-423.872 115.4 -424.776 117.12 -425.892 118.618C-427.097 120.236 -428.554 121.601 -430.572 122.252C-434.605 123.559 -439.495 121.285 -439.846 116.736C-440.157 112.656 -435.754 109.264 -432.107 111.699C-430.343 112.88 -429.399 115.208 -430.677 117.134C-432.047 119.206 -435.639 118.306 -434.763 115.653C-434.224 114.024 -436.801 113.362 -437.333 114.981C-438.293 117.88 -435.924 121.044 -432.867 121.123C-431.909 121.148 -431.049 120.879 -430.298 120.414C-428.933 119.702 -427.803 118.713 -426.966 117.563C-424.462 114.13 -424.534 109.276 -428.495 106.186C-433.582 102.227 -441.325 103.633 -445.673 108.004C-449.748 112.104 -450.789 118.721 -448.194 123.88C-445.244 129.751 -438.741 132.431 -432.43 131.277C-428.586 130.574 -425.095 128.678 -421.897 126.504C-419.667 124.983 -415.235 120.481 -412.067 121.31C-419.619 125.959 -421.267 136.533 -428.627 141.681C-442.47 151.364 -461.334 141.465 -465.561 126.229C-468.764 114.702 -464.181 102.959 -456.138 94.587C-455.917 94.3528 -455.814 94.0767 -455.794 93.7941C-455.786 93.746 -455.783 93.6979 -455.783 93.6493C-455.784 93.6001 -455.787 93.5521 -455.796 93.5046C-455.819 93.2222 -455.926 92.9469 -456.149 92.7154C-464.293 84.4416 -469.019 72.7553 -465.957 61.1907C-461.915 45.9039 -443.173 35.7758 -429.213 45.2907C-421.792 50.3484 -420.015 60.901 -412.407 65.4585C-415.564 66.3253 -420.051 61.8784 -422.299 60.3845C-425.523 58.2488 -429.037 56.3959 -432.889 55.7398C-439.214 54.6623 -445.684 57.4213 -448.563 63.3277C-451.095 68.5184 -449.973 75.1215 -445.849 79.1719C-441.448 83.4897 -433.689 84.8021 -428.65 80.7807C-424.727 77.6434 -424.713 72.7889 -427.259 69.3862C-428.11 68.2462 -429.252 67.2717 -430.625 66.5757C-431.383 66.1201 -432.246 65.8612 -433.203 65.8978C-436.258 66.0142 -438.59 69.2067 -437.594 72.0942C-437.043 73.7065 -434.474 73.0135 -435.032 71.391C-435.941 68.7487 -432.36 67.8048 -430.964 69.8609C-429.663 71.7711 -430.578 74.1101 -432.329 75.3124C-435.945 77.7915 -440.389 74.4534 -440.128 70.3703C-439.833 65.8171 -434.971 63.4832 -430.922 64.7409C-428.896 65.3676 -427.422 66.715 -426.198 68.3183C-425.065 69.8023 -424.139 71.5111 -423.186 73.0642C-418.309 81.0214 -410.277 87.5777 -401.54 91.6146C-414.757 92.1007 -427.998 92.071 -441.208 91.3184C-442.257 90.5253 -443.295 89.7138 -444.258 88.8344C-445.461 87.7636 -446.612 86.6432 -447.67 85.4467C-448.733 84.2594 -449.737 83.021 -450.616 81.7051C-451.502 80.399 -452.286 79.0221 -452.962 77.6077C-454.316 74.7796 -455.167 71.7231 -455.331 68.6225C-455.419 67.0782 -455.326 65.5262 -455.072 64.0052C-454.833 62.4762 -454.378 60.989 -453.766 59.5804C-452.541 56.7506 -450.52 54.2757 -447.955 52.557C-445.411 50.8086 -442.276 49.9172 -439.104 49.9714C-437.513 49.9833 -435.914 50.2199 -434.347 50.6403C-432.78 51.0607 -431.252 51.6797 -429.773 52.4053C-428.296 53.1358 -426.87 54.0087 -425.509 54.9733C-424.143 55.9405 -422.849 57.014 -421.581 58.1217C-422.678 56.8423 -423.858 55.6249 -425.117 54.4798C-426.387 53.3532 -427.749 52.3141 -429.203 51.3944C-432.1 49.5555 -435.443 48.2525 -438.993 47.9159C-440.772 47.7485 -442.585 47.8675 -444.348 48.2542C-446.118 48.6307 -447.839 49.298 -449.412 50.2215C-450.998 51.1251 -452.421 52.3119 -453.644 53.6665C-454.882 55.0131 -455.914 56.5447 -456.724 58.1842C-457.537 59.8161 -458.153 61.5538 -458.53 63.3354C-458.903 65.1196 -459.049 66.9468 -459.011 68.7631C-458.922 72.4027 -458.03 75.9786 -456.579 79.2604C-455.858 80.9084 -454.979 82.4739 -454.006 83.9707C-453.031 85.4632 -451.932 86.8668 -450.773 88.1994C-449.616 89.5443 -448.35 90.7731 -447.043 91.9519C-446.424 92.5201 -445.784 93.0618 -445.133 93.585ZM-187.444 348.159C-186.913 348.803 -186.364 349.436 -185.79 350.049C-184.595 351.341 -183.35 352.593 -181.992 353.733C-180.645 354.875 -179.228 355.957 -177.724 356.915C-176.216 357.869 -174.639 358.729 -172.983 359.43C-169.684 360.841 -166.097 361.689 -162.457 361.735C-160.641 361.751 -158.815 361.582 -157.035 361.188C-155.259 360.788 -153.529 360.152 -151.907 359.319C-150.278 358.489 -148.758 357.439 -147.427 356.184C-146.087 354.944 -144.918 353.507 -144.033 351.91C-143.129 350.326 -142.483 348.597 -142.128 346.823C-141.763 345.055 -141.666 343.24 -141.855 341.464C-142.234 337.919 -143.578 334.591 -145.452 331.717C-146.389 330.274 -147.445 328.925 -148.587 327.669C-149.747 326.424 -150.979 325.259 -152.272 324.177C-151.148 325.432 -150.06 326.713 -149.076 328.067C-148.094 329.417 -147.204 330.832 -146.455 332.299C-145.712 333.769 -145.074 335.29 -144.635 336.851C-144.195 338.413 -143.939 340.009 -143.908 341.6C-143.815 344.772 -144.669 347.917 -146.386 350.482C-148.073 353.067 -150.523 355.119 -153.338 356.378C-154.74 357.007 -156.221 357.48 -157.747 357.739C-159.265 358.011 -160.815 358.123 -162.36 358.054C-165.463 357.927 -168.529 357.114 -171.374 355.794C-172.796 355.135 -174.183 354.368 -175.5 353.498C-176.825 352.634 -178.077 351.646 -179.277 350.597C-180.486 349.553 -181.62 348.416 -182.706 347.227C-183.596 346.274 -184.42 345.245 -185.226 344.207C-186.139 331.007 -186.33 317.767 -186.005 304.545C-181.862 313.233 -175.209 321.185 -167.193 325.964C-165.628 326.898 -163.908 327.803 -162.411 328.918C-160.793 330.123 -159.427 331.58 -158.776 333.598C-157.469 337.631 -159.744 342.521 -164.293 342.872C-168.373 343.183 -171.765 338.779 -169.33 335.133C-168.149 333.369 -165.821 332.425 -163.895 333.703C-161.822 335.073 -162.723 338.665 -165.376 337.789C-167.005 337.25 -167.667 339.827 -166.048 340.359C-163.148 341.32 -159.984 338.949 -159.905 335.893C-159.88 334.935 -160.15 334.075 -160.614 333.324C-161.327 331.959 -162.315 330.829 -163.466 329.991C-166.899 327.487 -171.753 327.56 -174.842 331.521C-178.802 336.608 -177.395 344.351 -173.025 348.699C-168.924 352.774 -162.308 353.815 -157.148 351.22C-151.278 348.27 -148.597 341.767 -149.752 335.455C-150.455 331.611 -152.35 328.121 -154.525 324.923C-156.046 322.693 -160.547 318.261 -159.719 315.093C-155.069 322.645 -144.496 324.293 -139.348 331.653C-129.664 345.496 -139.563 364.36 -154.8 368.587C-166.327 371.79 -178.069 367.206 -186.442 359.164C-186.676 358.943 -186.952 358.839 -187.235 358.82C-187.283 358.812 -187.331 358.809 -187.379 358.809C-187.429 358.809 -187.477 358.813 -187.524 358.822C-187.806 358.845 -188.082 358.952 -188.313 359.175C-196.587 367.319 -208.273 372.045 -219.837 368.983C-235.124 364.941 -245.252 346.198 -235.737 332.239C-230.68 324.818 -220.128 323.041 -215.57 315.433C-214.703 318.59 -219.15 323.077 -220.644 325.325C-222.779 328.549 -224.632 332.063 -225.288 335.915C-226.366 342.24 -223.607 348.71 -217.7 351.588C-212.51 354.121 -205.907 352.999 -201.856 348.874C-197.538 344.473 -196.226 336.714 -200.247 331.676C-203.385 327.752 -208.239 327.738 -211.642 330.284C-212.782 331.135 -213.756 332.277 -214.452 333.651C-214.908 334.408 -215.167 335.271 -215.13 336.229C-215.014 339.284 -211.821 341.615 -208.934 340.62C-207.322 340.068 -208.015 337.499 -209.637 338.058C-212.279 338.967 -213.223 335.386 -211.167 333.99C-209.257 332.689 -206.918 333.604 -205.716 335.354C-203.237 338.97 -206.575 343.415 -210.658 343.154C-215.211 342.858 -217.545 337.996 -216.287 333.948C-215.661 331.922 -214.313 330.448 -212.71 329.223C-211.226 328.09 -209.517 327.165 -207.964 326.212C-200.007 321.335 -193.451 313.303 -189.414 304.566C-188.927 317.783 -188.957 331.024 -189.71 344.234C-190.503 345.283 -191.314 346.321 -192.193 347.284C-193.264 348.487 -194.384 349.638 -195.581 350.696C-196.768 351.759 -198.007 352.763 -199.322 353.643C-200.629 354.528 -202.006 355.312 -203.42 355.989C-206.249 357.343 -209.305 358.194 -212.405 358.358C-213.949 358.446 -215.501 358.353 -217.022 358.099C-218.551 357.859 -220.039 357.405 -221.447 356.792C-224.277 355.567 -226.752 353.546 -228.471 350.981C-230.219 348.437 -231.11 345.302 -231.056 342.13C-231.044 340.539 -230.808 338.94 -230.387 337.373C-229.967 335.805 -229.348 334.278 -228.622 332.799C-227.892 331.322 -227.019 329.897 -226.054 328.535C-225.087 327.169 -224.014 325.875 -222.906 324.607C-224.185 325.704 -225.403 326.885 -226.548 328.144C-227.674 329.413 -228.713 330.775 -229.633 332.229C-231.472 335.126 -232.775 338.469 -233.112 342.019C-233.279 343.798 -233.16 345.611 -232.773 347.374C-232.397 349.144 -231.73 350.865 -230.806 352.438C-229.902 354.024 -228.716 355.447 -227.361 356.671C-226.015 357.909 -224.482 358.94 -222.843 359.751C-221.211 360.563 -219.474 361.179 -217.692 361.556C-215.908 361.929 -214.08 362.075 -212.264 362.038C-208.625 361.948 -205.049 361.056 -201.767 359.605C-200.119 358.884 -198.554 358.005 -197.057 357.032C-195.564 356.057 -194.161 354.957 -192.828 353.799C-191.483 352.642 -190.255 351.375 -189.076 350.069C-188.509 349.449 -187.967 348.809 -187.444 348.159ZM67.1299 90.4694C67.7738 89.9383 68.4073 89.3889 69.0196 88.8147C70.3119 87.6201 71.5629 86.3755 72.7041 85.0171C73.8459 83.67 74.9279 82.2536 75.8851 80.7494C76.8396 79.2409 77.6991 77.6643 78.4004 76.0082C79.8113 72.709 80.6596 69.1226 80.705 65.4821C80.721 63.666 80.5527 61.8402 80.1584 60.0606C79.7592 58.2838 79.1226 56.5537 78.2901 54.9318C77.4597 53.3028 76.4095 51.7833 75.1553 50.4519C73.9145 49.1122 72.4776 47.9429 70.8809 47.0586C69.297 46.1543 67.5678 45.508 65.7934 45.1531C64.0254 44.7879 62.2115 44.6909 60.4349 44.88C56.8895 45.2597 53.5621 46.6033 50.688 48.4773C49.245 49.4146 47.8956 50.4702 46.6402 51.6122C45.3957 52.7725 44.2294 54.0041 43.1483 55.2968C44.4027 54.1737 45.6833 53.0851 47.0375 52.1008C48.3873 51.1192 49.8025 50.229 51.2699 49.4812C52.74 48.7376 54.2605 48.1001 55.8221 47.6607C57.3838 47.2212 58.9795 46.9652 60.5711 46.9339C63.7424 46.8412 66.8875 47.6944 69.4529 49.4116C72.0382 51.099 74.0895 53.5486 75.349 56.3639C75.9781 57.7655 76.4506 59.2465 76.7089 60.7725C76.9812 62.2908 77.0932 63.8409 77.0238 65.3862C76.8973 68.4886 76.0841 71.5547 74.7646 74.3996C74.105 75.8221 73.3378 77.2085 72.4686 78.5253C71.6043 79.8512 70.6164 81.1023 69.5671 82.3024C68.5238 83.5117 67.3867 84.646 66.1968 85.7314C65.2445 86.622 64.2157 87.4466 63.177 88.2523C49.9778 89.1655 36.7374 89.3568 23.5155 89.031C32.2031 84.8881 40.1543 78.2346 44.9341 70.2187C45.8682 68.6541 46.7728 66.9341 47.8883 65.4365C49.0933 63.8184 50.551 62.4532 52.5689 61.8019C56.6019 60.495 61.4917 62.7696 61.843 67.3189C62.1535 71.399 57.7502 74.7905 54.1044 72.3554C52.3401 71.1746 51.3963 68.8468 52.674 66.9209C54.0447 64.8481 57.6369 65.7483 56.7601 68.4015C56.2212 70.0307 58.7986 70.6924 59.3305 69.0735C60.2911 66.174 57.9206 63.0101 54.8644 62.9309C53.9065 62.906 53.0461 63.1753 52.2948 63.6401C50.9299 64.3528 49.8004 65.3411 48.9626 66.4914C46.4588 69.9247 46.5315 74.7788 50.4924 77.8682C55.5794 81.8279 63.3222 80.4212 67.6704 76.0503C71.7453 71.95 72.7864 65.3337 70.1915 60.1742C67.2416 54.3033 60.7385 51.6231 54.4267 52.7775C50.5828 53.4804 47.092 55.376 43.8939 57.5506C41.6642 59.0718 37.2315 63.5729 34.0643 62.7447C41.6167 58.0949 43.2641 47.5215 50.6239 42.3739C64.4671 32.6899 83.3309 42.5893 87.5585 57.8258C90.761 69.3523 86.1778 81.0952 78.135 89.4674C77.9144 89.7016 77.8107 89.9777 77.7914 90.2609C77.783 90.309 77.7801 90.3571 77.7804 90.4057C77.7807 90.4549 77.7842 90.5029 77.7932 90.5504C77.8159 90.8328 77.923 91.1081 78.1464 91.339C86.2905 99.6128 91.0161 111.299 87.9541 122.864C83.9121 138.151 65.1696 148.279 51.2101 138.764C43.7889 133.706 42.0124 123.153 34.404 118.596C37.5614 117.729 42.048 122.176 44.2961 123.67C47.5203 125.806 51.034 127.659 54.8861 128.315C61.2109 129.392 67.681 126.633 70.5597 120.727C73.0923 115.536 71.9702 108.933 67.8457 104.882C63.4447 100.565 55.686 99.2523 50.6469 103.274C46.7234 106.411 46.7097 111.266 49.2556 114.668C50.1069 115.808 51.2487 116.783 52.6223 117.479C53.3797 117.934 54.2428 118.193 55.2003 118.157C58.2553 118.04 60.5866 114.848 59.5914 111.96C59.0398 110.348 56.4707 111.041 57.0293 112.663C57.9378 115.306 54.3568 116.25 52.9615 114.194C51.6605 112.283 52.5759 109.944 54.3258 108.742C57.9416 106.263 62.3859 109.601 62.125 113.684C61.8296 118.237 56.9672 120.571 52.9187 119.314C50.893 118.687 49.4188 117.339 48.1942 115.736C47.0611 114.252 46.1352 112.543 45.1821 110.99C40.3052 103.033 32.2736 96.4768 23.5362 92.4398C36.7532 91.9538 49.9944 91.9834 63.2043 92.736C64.2532 93.5291 65.2915 94.3406 66.2545 95.22C67.4575 96.2909 68.6084 97.4112 69.6663 98.6077C70.7295 99.795 71.7331 101.033 72.6135 102.349C73.4986 103.655 74.2827 105.032 74.9595 106.447C76.3136 109.275 77.164 112.331 77.3282 115.432C77.4164 116.976 77.3232 118.528 77.0694 120.049C76.8297 121.578 76.3753 123.065 75.7632 124.474C74.5381 127.304 72.5167 129.779 69.9522 131.497C67.4079 133.246 64.2728 134.137 61.1012 134.083C59.5098 134.071 57.9111 133.835 56.3437 133.414C54.7768 132.994 53.2487 132.375 51.7697 131.649C50.2933 130.919 48.8674 130.046 47.5057 129.081C46.1397 128.113 44.8459 127.04 43.5779 125.933C44.6747 127.212 45.8553 128.43 47.1144 129.575C48.3836 130.701 49.7457 131.74 51.2 132.66C54.0967 134.499 57.4402 135.802 60.99 136.138C62.7687 136.306 64.5818 136.187 66.3447 135.8C68.1147 135.424 69.8359 134.756 71.4086 133.833C72.995 132.929 74.4176 131.743 75.6415 130.388C76.8794 129.041 77.911 127.51 78.7215 125.87C79.5343 124.238 80.1498 122.501 80.5273 120.719C80.9 118.935 81.046 117.108 81.008 115.291C80.9183 111.652 80.0264 108.076 78.5755 104.794C77.8541 103.146 76.9755 101.581 76.0027 100.084C75.0273 98.5913 73.9276 97.1882 72.7701 95.8551C71.6124 94.5101 70.3464 93.2813 69.0396 92.1026C68.4198 91.5343 67.7802 90.9926 67.1299 90.4694Z" fill="#150033"/>
<path d="M77.0908 90.0178C77.0905 89.9687 77.0934 89.9206 77.1018 89.873C77.1211 89.5904 77.2248 89.3137 77.4453 89.0796C85.4882 80.7073 90.0713 68.9644 86.8688 57.4379C82.6412 42.2014 63.7769 32.3021 49.9342 41.986C42.575 47.1337 40.927 57.7071 33.3747 62.3568C36.5424 63.1851 40.9746 58.684 43.2043 57.1628C46.4023 54.9881 49.8932 53.0925 53.737 52.3896C60.0483 51.2352 66.5514 53.9154 69.5018 59.7863C72.0973 64.9458 71.0556 71.5621 66.9807 75.6624C62.6326 80.0334 54.8903 81.44 49.8028 77.4803C45.8414 74.3909 45.7686 69.5369 48.273 66.1035L47.1992 65.0486C46.0842 66.5463 45.1791 68.2662 44.245 69.8308C39.4652 77.8467 31.514 84.5002 22.8264 88.6431C36.0483 88.9684 49.2881 88.7776 62.4879 87.8644C63.5271 87.0587 64.5554 86.2346 65.5077 85.3435C66.6976 84.2581 67.8348 83.1239 68.878 81.9146C69.9267 80.7144 70.9152 79.4639 71.7795 78.1374C72.6487 76.8206 73.4159 75.4342 74.0755 74.0117C75.3951 71.1673 76.2083 68.1007 76.3347 64.9983C76.4041 63.4531 76.2921 61.9024 76.0198 60.3846C75.7615 58.8586 75.289 57.3771 74.6599 55.976C73.4004 53.1613 71.3491 50.7112 68.7639 49.0237C66.1984 47.3065 63.0528 46.4533 59.882 46.546C58.2909 46.5773 56.6952 46.8334 55.133 47.2728C53.5714 47.7123 52.0509 48.3497 50.5808 49.0933C49.1134 49.8417 47.6982 50.7319 46.3484 51.7129C44.9942 52.6967 43.7137 53.7858 42.4592 54.9089C43.5403 53.6162 44.706 52.3846 45.9511 51.2243C47.2065 50.0823 48.5559 49.0268 49.9989 48.0894C52.873 46.2154 56.2004 44.8718 59.7458 44.4921C61.5224 44.303 63.3368 44.4 65.1043 44.7652C66.8787 45.1201 68.6079 45.7665 70.1918 46.6708C71.789 47.555 73.2259 48.7244 74.4662 50.064C75.7204 51.3954 76.7706 52.9145 77.601 54.5439C78.4335 56.1658 79.0701 57.8959 79.4693 59.6728C79.8636 61.4523 80.0319 63.2776 80.0159 65.0943C79.9706 68.7347 79.1222 72.3211 77.7113 75.6204C77.01 77.277 76.1505 78.853 75.196 80.3615C74.2388 81.8658 73.1563 83.2827 72.015 84.6292C70.8738 85.9882 69.6228 87.2323 68.3305 88.4269C67.7182 89.001 67.0847 89.5504 66.4408 90.0815C67.0911 90.6048 67.7312 91.1464 68.3505 91.7131C69.6572 92.8919 70.9233 94.1211 72.0809 95.4656C73.2391 96.7987 74.3382 98.2023 75.3136 99.6943C76.2864 101.191 77.165 102.757 77.8864 104.405C79.3373 107.686 80.2292 111.262 80.3189 114.902C80.3569 116.718 80.2108 118.545 79.8382 120.33C79.4606 122.111 78.8452 123.849 78.0324 125.481C77.2219 127.12 76.1903 128.652 74.9524 129.998C73.7279 131.353 72.3054 132.54 70.7195 133.443C69.1468 134.367 67.4256 135.034 65.6556 135.411C63.8922 135.797 62.0796 135.916 60.3009 135.749C56.751 135.412 53.4076 134.109 50.5109 132.27C49.0566 131.351 47.6945 130.312 46.4253 129.185C45.1667 128.04 43.9856 126.823 42.8888 125.543C44.1568 126.651 45.4506 127.724 46.8166 128.692C48.1782 129.657 49.6042 130.53 51.0806 131.26C52.5596 131.985 54.0877 132.604 55.6546 133.025C57.2214 133.445 58.8201 133.682 60.4121 133.694C63.5842 133.748 66.7188 132.856 69.2631 131.108C71.8276 129.389 73.849 126.915 75.0741 124.085C75.6862 122.675 76.1406 121.189 76.3803 119.66C76.6341 118.138 76.7273 116.587 76.6391 115.042C76.4749 111.942 75.6245 108.886 74.2704 106.057C73.5936 104.643 72.8095 103.266 71.9244 101.96C71.044 100.644 70.0409 99.4055 68.9772 98.2182C67.9193 97.0217 66.7684 95.9014 65.5654 94.8305C64.6024 93.9516 63.5636 93.1401 62.5152 92.3465C49.3058 91.5939 36.0641 91.5637 22.8471 92.0503C31.5845 96.0873 39.6161 102.644 44.493 110.601C45.4461 112.154 46.3715 113.863 47.5051 115.347L48.566 114.279C46.0206 110.876 46.0343 106.022 49.9573 102.884C54.9958 98.8628 62.7551 100.175 67.1561 104.493C71.2806 108.543 72.4021 115.147 69.8701 120.337C66.9918 126.244 60.5218 129.003 54.1965 127.925C50.3444 127.269 46.8307 125.416 43.6064 123.28C41.3584 121.787 36.8712 117.34 33.7144 118.206C41.3227 122.764 43.0987 133.316 50.5205 138.374C64.4805 147.889 83.2224 137.761 87.2644 122.474C90.3265 110.91 85.6008 99.2234 77.4567 90.9495C77.2333 90.7181 77.1263 90.4433 77.1035 90.1609C77.0946 90.115 77.0911 90.067 77.0908 90.0178Z" fill="#F46C68"/>
<path d="M51.8802 61.415C49.8623 62.0663 48.4046 63.4315 47.1996 65.0496L48.2734 66.1045C49.1107 64.9543 50.2406 63.9659 51.6056 63.2532C52.3574 62.7884 53.2173 62.5191 54.1752 62.544C57.2314 62.6232 59.6014 65.7871 58.6413 68.6866C58.1094 70.3054 55.532 69.6438 56.0709 68.0146C56.9471 65.3614 53.355 64.4612 51.9848 66.534C50.7071 68.4599 51.6509 70.7877 53.4152 71.9685C57.061 74.4036 61.4643 71.0116 61.1537 66.932C60.8031 62.3827 55.9132 60.1082 51.8802 61.415Z" fill="#F46C68"/>
<path d="M52.2297 118.926C50.2041 118.299 48.7299 116.952 47.5053 115.348L48.5662 114.281C49.4174 115.421 50.5593 116.395 51.9328 117.091C52.6902 117.547 53.5533 117.805 54.5108 117.769C57.5658 117.653 59.8972 114.46 58.9019 111.573C58.3503 109.96 55.7812 110.653 56.3399 112.276C57.2483 114.918 53.6674 115.862 52.2721 113.806C50.9711 111.896 51.8865 109.557 53.6363 108.354C57.2522 105.875 61.6964 109.213 61.4355 113.296C61.1402 117.85 56.2783 120.184 52.2297 118.926Z" fill="#F46C68"/>
</g>
<defs>
<clipPath id="clip0_0_15">
<rect width="116.21" height="191.532" fill="white" transform="matrix(-1.00396 0.0061062 0.0061062 1.00396 116.671 0)"/>
</clipPath>
</defs>
</svg>
