<svg width="118" height="193" viewBox="0 0 118 193" fill="none" xmlns="http://www.w3.org/2000/svg">
<g clip-path="url(#clip0_0_7)">
<path d="M305.002 -201.772L306.562 -194.727L308.915 -184.079C311.168 -185.767 313.577 -187.212 316.116 -188.382L318.502 -209.56L322.867 -190.688C323.852 -190.911 324.855 -191.093 325.876 -191.228C326.87 -191.361 327.868 -191.435 328.861 -191.47L332.875 -217.379L336.068 -190.888C337.191 -190.666 338.303 -190.382 339.397 -190.034L349.835 -205.906L345.333 -187.445C346.785 -186.618 348.169 -185.671 349.471 -184.612L361.473 -193.69L353.688 -180.392C354.69 -179.161 355.598 -177.841 356.399 -176.43L367.202 -179.013L358.488 -171.762C359.096 -169.946 359.514 -168.067 359.712 -166.166L368.453 -164.417L359.786 -161.574C359.69 -160.19 359.466 -158.817 359.138 -157.467L365.247 -153.364L357.845 -153.604C357.494 -152.793 357.1 -151.994 356.653 -151.22C354.324 -147.182 350.783 -144.372 346.883 -141.932C342.514 -139.195 336.954 -136.732 334.898 -131.681C334.85 -131.445 334.724 -131.223 334.54 -131.039C334.36 -130.842 334.138 -130.711 333.899 -130.645C333.889 -130.638 333.882 -130.636 333.875 -130.634C333.834 -130.627 333.798 -130.617 333.757 -130.61C333.54 -130.562 333.306 -130.56 333.073 -130.625C332.784 -130.698 332.526 -130.857 332.356 -131.076C327.26 -135.453 333.899 -142.219 336.378 -146.026C340.377 -152.17 343.211 -160.826 336.794 -166.488C331.019 -171.575 321.675 -169.179 318.985 -161.978C317.759 -158.706 317.969 -154.405 320.526 -151.786C321.659 -150.626 323.055 -150.119 324.442 -150.144C318.713 -152.303 318.715 -160.772 324.089 -163.757C330.812 -167.499 338.02 -160.744 336.972 -153.771C336.372 -149.814 333.689 -147.036 330.455 -144.927C326.769 -142.518 323.227 -140.437 320.098 -137.276C313.997 -131.11 309.085 -123.244 306.818 -114.841C306.646 -114.199 306.092 -113.872 305.536 -113.867C304.98 -113.866 304.422 -114.186 304.243 -114.825C301.873 -123.201 296.866 -131.006 290.691 -137.097C287.524 -140.22 283.957 -142.258 280.241 -144.621C276.982 -146.691 274.265 -149.436 273.617 -153.386C272.485 -160.345 279.61 -167.187 286.378 -163.528C291.788 -160.608 291.892 -152.14 286.191 -149.912C287.577 -149.903 288.967 -150.427 290.086 -151.601C292.611 -154.251 292.768 -158.555 291.503 -161.81C288.725 -168.978 279.353 -171.261 273.64 -166.104C267.293 -160.365 270.232 -151.743 274.306 -145.648C276.831 -141.872 283.551 -135.187 278.509 -130.749C278.342 -130.528 278.085 -130.365 277.797 -130.289C277.565 -130.221 277.332 -130.22 277.114 -130.265C277.073 -130.272 277.037 -130.282 276.996 -130.289C276.989 -130.291 276.981 -130.292 276.971 -130.299C276.731 -130.361 276.508 -130.49 276.326 -130.685C276.139 -130.866 276.01 -131.087 275.959 -131.322C273.843 -136.348 268.253 -138.743 263.851 -141.427C259.922 -143.819 256.347 -146.586 253.968 -150.596C253.512 -151.365 253.108 -152.159 252.748 -152.964L245.349 -152.635L251.408 -156.811C251.064 -158.158 250.823 -159.528 250.71 -160.911L242.009 -163.648L250.728 -165.503C250.903 -167.406 251.298 -169.291 251.884 -171.114L243.082 -178.258L253.916 -175.806C254.7 -177.227 255.592 -178.558 256.578 -179.801L248.633 -193.003L260.745 -184.072C262.033 -185.148 263.405 -186.112 264.847 -186.955L260.121 -205.36L270.751 -189.616C271.841 -189.977 272.95 -190.275 274.07 -190.511L276.941 -217.039L281.27 -191.18C282.263 -191.158 283.262 -191.095 284.257 -190.975C285.279 -190.852 286.285 -190.682 287.272 -190.471L291.407 -209.395L294.05 -188.247C296.604 -187.109 299.031 -185.693 301.304 -184.033L303.527 -194.709L305.002 -201.772ZM597.555 87.244L590.51 88.8036L579.862 91.1565C581.55 93.4095 582.995 95.8185 584.165 98.3582L605.343 100.744L586.47 105.109C586.694 106.093 586.875 107.097 587.011 108.117C587.144 109.111 587.218 110.109 587.253 111.103L613.163 115.117L586.671 118.31C586.449 119.433 586.165 120.545 585.818 121.639L601.69 132.077L583.229 127.575C582.402 129.027 581.455 130.411 580.395 131.713L589.473 143.715L576.175 135.931C574.944 136.932 573.624 137.841 572.213 138.642L574.796 149.445L567.545 140.731C565.729 141.338 563.85 141.757 561.949 141.954L560.201 150.696L557.357 142.029C555.973 141.933 554.6 141.708 553.25 141.381L549.147 147.49L549.387 140.088C548.576 139.737 547.778 139.343 547.003 138.896C542.965 136.567 540.155 133.026 537.714 129.125C534.978 124.756 532.515 119.196 527.463 117.141C527.227 117.093 527.005 116.966 526.822 116.782C526.624 116.603 526.493 116.381 526.427 116.141C526.421 116.132 526.419 116.124 526.417 116.117C526.41 116.076 526.4 116.04 526.393 115.999C526.345 115.782 526.343 115.548 526.408 115.316C526.481 115.026 526.64 114.768 526.859 114.599C531.236 109.503 538.002 116.141 541.809 118.62C547.952 122.62 556.609 125.453 562.27 119.037C567.358 113.262 564.961 103.918 557.76 101.227C554.489 100.002 550.187 100.211 547.569 102.768C546.409 103.902 545.902 105.298 545.927 106.684C548.086 100.956 556.554 100.957 559.54 106.331C563.282 113.054 556.527 120.262 549.554 119.214C545.596 118.615 542.819 115.931 540.71 112.698C538.301 109.012 536.22 105.469 533.059 102.341C526.893 96.2402 519.027 91.3278 510.624 89.061C509.982 88.8888 509.655 88.335 509.649 87.7792C509.648 87.2234 509.968 86.6651 510.608 86.4856C518.983 84.1163 526.788 79.1091 532.88 72.9336C536.003 69.7671 538.04 66.1999 540.404 62.4849C542.474 59.2254 545.218 56.5084 549.168 55.8611C556.128 54.7282 562.97 61.8539 559.31 68.6223C556.391 74.0319 547.923 74.1364 545.694 68.435C545.686 69.8216 546.209 71.211 547.384 72.3306C550.034 74.8554 554.338 75.0124 557.593 73.7475C564.761 70.9691 567.044 61.5969 561.886 55.8842C556.147 49.5371 547.526 52.4762 541.431 56.5498C537.655 59.0754 530.97 65.7951 526.531 60.7527C526.311 60.5861 526.148 60.3294 526.072 60.0414C526.004 59.8096 526.003 59.5762 526.048 59.3583C526.055 59.3172 526.064 59.2809 526.071 59.2398C526.073 59.2328 526.075 59.2252 526.081 59.2154C526.144 58.9752 526.272 58.7519 526.468 58.5698C526.649 58.3839 526.869 58.2545 527.104 58.2034C532.131 56.0867 534.526 50.4972 537.209 46.0953C539.602 42.1656 542.369 38.5913 546.378 36.2124C547.148 35.7561 547.941 35.3527 548.748 34.9918L548.418 27.593L552.595 33.652C553.941 33.3079 555.311 33.0667 556.694 32.954L559.432 24.2527L561.287 32.9726C563.19 33.1473 565.074 33.5426 566.897 34.1279L574.041 25.3262L571.59 36.16C573.011 36.9438 574.341 37.8362 575.585 38.8225L588.786 30.8769L579.855 42.9887C580.93 44.277 581.894 45.6496 582.739 47.0915L601.143 42.3656L585.4 52.9955C585.76 54.0855 586.058 55.1943 586.294 56.3137L612.822 59.1843L586.963 63.5132C586.94 64.5067 586.878 65.5059 586.758 66.501C586.634 67.5227 586.465 68.529 586.253 69.516L605.177 73.6504L584.03 76.294C582.892 78.8478 581.476 81.2742 579.815 83.5475L590.491 85.7707L597.555 87.244ZM308.539 379.797L306.98 372.752L304.627 362.104C302.374 363.792 299.965 365.237 297.425 366.407L295.039 387.585L290.675 368.713C289.69 368.936 288.686 369.118 287.666 369.254C286.672 369.386 285.674 369.461 284.681 369.496L280.667 395.405L277.474 368.914C276.351 368.691 275.239 368.407 274.144 368.06L263.707 383.932L268.208 365.471C266.756 364.644 265.372 363.697 264.071 362.637L252.069 371.715L259.853 358.418C258.852 357.186 257.943 355.867 257.142 354.455L246.339 357.038L255.053 349.788C254.446 347.972 254.027 346.093 253.83 344.192L245.088 342.443L253.755 339.599C253.851 338.215 254.075 336.842 254.403 335.492L248.294 331.389L255.696 331.629C256.047 330.819 256.441 330.02 256.888 329.245C259.217 325.207 262.758 322.397 266.658 319.957C271.027 317.22 276.587 314.757 278.643 309.705C278.692 309.469 278.818 309.248 279.001 309.064C279.181 308.867 279.403 308.736 279.642 308.67C279.652 308.664 279.659 308.661 279.666 308.66C279.707 308.652 279.744 308.642 279.785 308.635C280.001 308.587 280.235 308.585 280.468 308.65C280.757 308.723 281.016 308.883 281.185 309.101C286.281 313.478 279.642 320.245 277.164 324.051C273.164 330.195 270.33 338.851 276.747 344.513C282.522 349.6 291.866 347.204 294.557 340.003C295.782 336.732 295.572 332.43 293.016 329.811C291.882 328.651 290.486 328.144 289.1 328.17C294.828 330.328 294.826 338.797 289.453 341.782C282.729 345.524 275.521 338.769 276.569 331.796C277.169 327.839 279.853 325.061 283.086 322.952C286.772 320.543 290.314 318.463 293.443 315.301C299.544 309.135 304.456 301.27 306.723 292.866C306.895 292.224 307.449 291.897 308.005 291.892C308.561 291.891 309.119 292.211 309.299 292.85C311.668 301.226 316.675 309.031 322.851 315.123C326.017 318.245 329.584 320.283 333.3 322.647C336.559 324.716 339.276 327.461 339.924 331.411C341.057 338.37 333.931 345.212 327.163 341.553C321.753 338.633 321.649 330.165 327.35 327.937C325.964 327.929 324.574 328.452 323.455 329.626C320.93 332.276 320.773 336.58 322.038 339.836C324.816 347.003 334.188 349.286 339.901 344.129C346.248 338.39 343.309 329.768 339.236 323.674C336.71 319.898 329.99 313.212 335.033 308.774C335.199 308.553 335.456 308.391 335.744 308.314C335.976 308.246 336.209 308.246 336.427 308.291C336.468 308.297 336.504 308.307 336.546 308.314C336.553 308.315 336.56 308.317 336.57 308.324C336.81 308.387 337.033 308.515 337.216 308.71C337.401 308.891 337.531 309.112 337.582 309.347C339.699 314.373 345.288 316.768 349.69 319.452C353.62 321.845 357.194 324.611 359.573 328.621C360.029 329.39 360.432 330.184 360.794 330.99L368.192 330.66L362.133 334.837C362.477 336.183 362.719 337.553 362.831 338.936L371.533 341.674L362.813 343.529C362.638 345.432 362.243 347.316 361.657 349.139L370.459 356.283L359.625 353.832C358.842 355.253 357.949 356.584 356.963 357.827L364.908 371.029L352.797 362.098C351.508 363.173 350.136 364.137 348.694 364.981L353.42 383.386L342.79 367.642C341.7 368.003 340.592 368.3 339.472 368.537L336.601 395.065L332.272 369.206C331.278 369.184 330.279 369.121 329.284 369.001C328.263 368.877 327.256 368.708 326.269 368.496L322.134 387.42L319.491 366.272C316.937 365.134 314.511 363.718 312.237 362.058L310.014 372.734L308.539 379.797ZM15.9859 90.7812L23.0309 89.2216L33.6789 86.8687C31.9912 84.6157 30.5457 82.2067 29.3765 79.667L8.19841 77.2808L27.0705 72.9165C26.8474 71.9321 26.6652 70.928 26.5299 69.9079C26.3974 68.9137 26.3227 67.9159 26.2881 66.9228L0.378585 62.9087L26.8703 59.7156C27.093 58.5929 27.3769 57.4812 27.724 56.3869L11.8522 45.9491L30.3131 50.4509C31.1399 48.9988 32.087 47.6146 33.1465 46.3134L24.0684 34.3105L37.366 42.095C38.5974 41.0936 39.9169 40.1851 41.3283 39.3841L38.7454 28.5809L45.9961 37.295C47.8117 36.6876 49.691 36.2689 51.5917 36.0715L53.3406 27.3297L56.1837 35.9971C57.5682 36.0935 58.9411 36.3174 60.2913 36.6452L64.3939 30.5359L64.1543 37.9381C64.965 38.2891 65.7636 38.6829 66.5382 39.1297C70.5766 41.4592 73.3865 45.0002 75.8269 48.9004C78.5634 53.2693 81.0264 58.8294 86.0786 60.8847C86.3144 60.933 86.5361 61.0597 86.7192 61.2433C86.9169 61.423 87.0479 61.6448 87.1136 61.8842C87.1202 61.8939 87.1224 61.9015 87.1241 61.9085C87.1313 61.9495 87.1413 61.9856 87.1485 62.0266C87.1963 62.244 87.1983 62.4773 87.1333 62.71C87.0605 62.9995 86.9011 63.2575 86.6823 63.4268C82.3055 68.5229 75.5391 61.8844 71.7326 59.4055C65.5888 55.4063 56.9322 52.5723 51.2709 58.9887C46.1826 64.7638 48.58 74.108 55.781 76.7985C59.0521 78.0237 63.3538 77.8144 65.9726 75.2575C67.1324 74.1237 67.6393 72.7281 67.6141 71.3417C65.4553 77.0697 56.9867 77.0683 54.0015 71.6946C50.2594 64.9712 57.0146 57.7633 63.9874 58.8109C67.945 59.4107 70.7226 62.0941 72.8317 65.3276C75.2405 69.0136 77.3212 72.5558 80.4823 75.6841C86.6486 81.785 94.5141 86.6969 102.918 88.9642C103.559 89.1358 103.886 89.6902 103.892 90.246C103.894 90.8018 103.573 91.3601 102.933 91.5396C94.5579 93.9089 86.7528 98.9161 80.6612 105.092C77.5383 108.258 75.5009 111.825 73.1371 115.54C71.0675 118.799 68.3228 121.517 64.3727 122.164C57.4131 123.297 50.5713 116.171 54.2308 109.403C57.1504 103.994 65.6185 103.889 67.8467 109.591C67.855 108.204 67.3313 106.815 66.1577 105.695C63.5074 103.17 59.2036 103.013 55.9481 104.278C48.7804 107.057 46.4974 116.429 51.655 122.142C57.3939 128.489 66.0159 125.55 72.1101 121.476C75.8862 118.95 82.5714 112.231 87.0098 117.273C87.2306 117.44 87.3932 117.696 87.4694 117.984C87.5373 118.216 87.5382 118.45 87.493 118.667C87.4863 118.709 87.4768 118.745 87.47 118.786C87.4679 118.793 87.4663 118.801 87.4599 118.81C87.3971 119.051 87.2688 119.274 87.0733 119.456C86.8924 119.642 86.6722 119.771 86.437 119.822C81.4102 121.939 79.0156 127.529 76.3319 131.93C73.9391 135.86 71.1725 139.434 67.1628 141.813C66.3937 142.27 65.5999 142.673 64.7935 143.034L65.1232 150.433L60.9465 144.374C59.6004 144.718 58.2304 144.959 56.8471 145.072L54.1096 153.773L52.2546 145.053C50.3516 144.878 48.4673 144.483 46.6445 143.898L39.5003 152.699L41.9516 141.866C40.5305 141.082 39.2001 140.19 37.9566 139.203L24.7547 147.15L33.6861 135.038C32.6109 133.749 31.647 132.377 30.8026 130.935L12.3978 135.661L28.1415 125.031C27.7806 123.941 27.4832 122.833 27.2474 121.713L0.718778 118.842L26.5775 114.513C26.6001 113.52 26.6626 112.52 26.783 111.525C26.9064 110.503 27.0758 109.497 27.287 108.51L8.3632 104.375L29.5107 101.732C30.6489 99.1779 32.065 96.7516 33.7252 94.4782L23.0494 92.255L15.9859 90.7812ZM305.213 -167.119C305.736 -167.769 306.278 -168.409 306.844 -169.028C308.023 -170.335 309.252 -171.602 310.597 -172.759C311.93 -173.917 313.333 -175.016 314.826 -175.992C316.322 -176.965 317.888 -177.844 319.536 -178.565C322.818 -180.016 326.393 -180.908 330.033 -180.997C331.849 -181.035 333.677 -180.889 335.461 -180.516C337.242 -180.139 338.98 -179.523 340.612 -178.71C342.251 -177.9 343.783 -176.868 345.13 -175.63C346.484 -174.406 347.671 -172.983 348.575 -171.398C349.498 -169.825 350.166 -168.104 350.542 -166.334C350.929 -164.57 351.048 -162.757 350.88 -160.978C350.543 -157.428 349.241 -154.085 347.402 -151.188C346.482 -149.734 345.443 -148.372 344.316 -147.103C343.171 -145.844 341.954 -144.663 340.674 -143.566C341.782 -144.834 342.855 -146.128 343.823 -147.494C344.788 -148.856 345.661 -150.281 346.391 -151.758C347.117 -153.237 347.735 -154.765 348.156 -156.332C348.576 -157.899 348.813 -159.498 348.825 -161.089C348.879 -164.262 347.988 -167.396 346.239 -169.941C344.521 -172.506 342.046 -174.527 339.216 -175.752C337.807 -176.364 336.32 -176.819 334.791 -177.058C333.269 -177.312 331.718 -177.405 330.174 -177.316C327.073 -177.152 324.017 -176.302 321.189 -174.948C319.774 -174.271 318.397 -173.487 317.091 -172.602C315.776 -171.721 314.537 -170.718 313.349 -169.655C312.153 -168.597 311.033 -167.446 309.962 -166.243C309.083 -165.28 308.271 -164.241 307.478 -163.193C306.726 -149.983 306.696 -136.742 307.182 -123.525C311.219 -132.262 317.775 -140.293 325.733 -145.17C327.286 -146.123 328.994 -147.049 330.478 -148.182C332.082 -149.407 333.43 -150.881 334.056 -152.906C335.314 -156.955 332.98 -161.817 328.426 -162.113C324.343 -162.374 321.005 -157.929 323.484 -154.313C324.687 -152.563 327.026 -151.648 328.936 -152.949C330.992 -154.344 330.048 -157.925 327.406 -157.017C325.783 -156.458 325.09 -159.027 326.702 -159.579C329.59 -160.574 332.783 -158.243 332.899 -155.188C332.936 -154.23 332.677 -153.366 332.221 -152.61C331.525 -151.236 330.551 -150.095 329.411 -149.243C326.008 -146.697 321.153 -146.711 318.016 -150.634C313.995 -155.673 315.307 -163.432 319.625 -167.833C323.675 -171.957 330.278 -173.079 335.469 -170.547C341.375 -167.669 344.134 -161.199 343.057 -154.873C342.401 -151.021 340.548 -147.508 338.412 -144.283C336.918 -142.035 332.471 -137.548 333.338 -134.391C337.896 -141.999 348.448 -143.776 353.506 -151.197C363.021 -165.157 352.893 -183.899 337.606 -187.941C326.041 -191.003 314.355 -186.278 306.081 -178.134C305.85 -177.91 305.575 -177.803 305.293 -177.78C305.245 -177.771 305.197 -177.768 305.148 -177.768C305.099 -177.767 305.051 -177.77 305.003 -177.779C304.721 -177.798 304.444 -177.902 304.21 -178.122C295.837 -186.166 284.095 -190.749 272.568 -187.547C257.332 -183.319 247.432 -164.455 257.116 -150.612C262.264 -143.253 272.837 -141.605 277.487 -134.053C278.315 -137.22 273.814 -141.653 272.293 -143.882C270.118 -147.08 268.223 -150.571 267.52 -154.415C266.365 -160.726 269.046 -167.229 274.916 -170.18C280.076 -172.775 286.692 -171.734 290.793 -167.659C295.164 -163.311 296.57 -155.568 292.61 -150.481C289.521 -146.52 284.667 -146.447 281.234 -148.951C280.083 -149.788 279.095 -150.918 278.382 -152.283C277.918 -153.035 277.649 -153.895 277.673 -154.853C277.752 -157.909 280.916 -160.279 283.816 -159.319C285.435 -158.786 284.773 -156.21 283.144 -156.748C280.491 -157.625 279.59 -154.033 281.663 -152.662C283.589 -151.385 285.917 -152.328 287.098 -154.093C289.533 -157.739 286.141 -162.142 282.061 -161.832C277.512 -161.481 275.237 -156.591 276.544 -152.558C277.196 -150.54 278.561 -149.082 280.179 -147.877C281.676 -146.762 283.396 -145.857 284.961 -144.923C292.977 -140.144 299.63 -132.193 303.773 -123.505C304.099 -136.727 303.908 -149.967 302.994 -163.166C302.188 -164.206 301.364 -165.234 300.474 -166.186C299.388 -167.376 298.254 -168.513 297.045 -169.557C295.845 -170.605 294.594 -171.594 293.268 -172.458C291.951 -173.327 290.564 -174.094 289.142 -174.754C286.297 -176.074 283.231 -176.887 280.129 -177.013C278.583 -177.083 277.033 -176.971 275.515 -176.699C273.989 -176.441 272.507 -175.968 271.106 -175.339C268.291 -174.079 265.841 -172.028 264.154 -169.443C262.437 -166.877 261.583 -163.732 261.676 -160.561C261.708 -158.969 261.964 -157.374 262.403 -155.812C262.842 -154.249 263.48 -152.729 264.223 -151.259C264.972 -149.792 265.862 -148.377 266.844 -147.027C267.828 -145.673 268.917 -144.392 270.04 -143.138C268.747 -144.219 267.515 -145.385 266.355 -146.63C265.213 -147.885 264.157 -149.234 263.22 -150.677C261.346 -153.552 260.002 -156.879 259.623 -160.424C259.434 -162.201 259.531 -164.015 259.896 -165.783C260.251 -167.558 260.898 -169.287 261.801 -170.871C262.686 -172.468 263.855 -173.905 265.195 -175.145C266.526 -176.399 268.046 -177.45 269.675 -178.28C271.297 -179.113 273.027 -179.749 274.803 -180.148C276.583 -180.543 278.409 -180.711 280.225 -180.696C283.865 -180.65 287.452 -179.802 290.751 -178.391C292.408 -177.69 293.984 -176.83 295.492 -175.876C296.996 -174.918 298.413 -173.836 299.76 -172.694C301.119 -171.553 302.363 -170.302 303.558 -169.01C304.132 -168.396 304.682 -167.763 305.213 -167.119ZM562.902 87.4548C563.552 87.978 564.192 88.5197 564.812 89.0863C566.118 90.2651 567.385 91.4944 568.542 92.8388C569.7 94.1719 570.799 95.5756 571.775 97.0675C572.747 98.5643 573.626 100.13 574.347 101.778C575.798 105.06 576.69 108.635 576.78 112.275C576.818 114.091 576.672 115.919 576.299 117.703C575.921 119.484 575.306 121.222 574.493 122.854C573.682 124.493 572.651 126.025 571.413 127.372C570.189 128.726 568.766 129.913 567.18 130.817C565.607 131.74 563.886 132.408 562.116 132.784C560.353 133.17 558.54 133.29 556.761 133.122C553.212 132.785 549.868 131.483 546.971 129.644C545.517 128.724 544.155 127.685 542.886 126.558C541.627 125.413 540.446 124.196 539.349 122.916C540.617 124.024 541.911 125.097 543.277 126.065C544.639 127.03 546.065 127.903 547.541 128.633C549.02 129.359 550.548 129.977 552.115 130.398C553.682 130.818 555.281 131.055 556.873 131.067C560.045 131.121 563.179 130.23 565.724 128.481C568.288 126.763 570.31 124.288 571.535 121.458C572.147 120.049 572.601 118.562 572.841 117.033C573.095 115.511 573.188 113.96 573.1 112.416C572.936 109.315 572.085 106.259 570.731 103.431C570.054 102.016 569.27 100.639 568.385 99.3331C567.505 98.0177 566.502 96.7788 565.438 95.5914C564.38 94.3949 563.23 93.2746 562.027 92.2038C561.064 91.3249 560.025 90.5134 558.976 89.7198C545.767 88.9672 532.525 88.937 519.308 89.4236C528.046 93.4605 536.077 100.017 540.954 107.974C541.907 109.527 542.833 111.236 543.966 112.72C545.191 114.323 546.665 115.671 548.691 116.297C552.739 117.555 557.601 115.221 557.897 110.668C558.158 106.585 553.714 103.247 550.097 105.726C548.347 106.928 547.432 109.267 548.733 111.177C550.128 113.233 553.709 112.29 552.801 109.647C552.242 108.025 554.811 107.332 555.363 108.944C556.358 111.832 554.027 115.024 550.972 115.14C550.014 115.177 549.151 114.918 548.394 114.462C547.02 113.766 545.879 112.792 545.027 111.652C542.482 108.249 542.495 103.395 546.418 100.257C551.457 96.2361 559.216 97.5485 563.617 101.866C567.742 105.917 568.863 112.52 566.331 117.71C563.453 123.617 556.983 126.376 550.658 125.298C546.806 124.642 543.292 122.789 540.068 120.654C537.82 119.16 533.333 114.713 530.176 115.58C537.783 120.137 539.56 130.69 546.982 135.748C560.942 145.262 579.684 135.134 583.726 119.847C586.788 108.283 582.062 96.5966 573.918 88.3228C573.694 88.0913 573.587 87.8165 573.565 87.5341C573.556 87.4861 573.552 87.4381 573.552 87.3894C573.552 87.3403 573.555 87.2922 573.563 87.2446C573.582 86.962 573.686 86.6854 573.906 86.4512C581.949 78.0789 586.532 66.336 583.33 54.8096C579.102 39.573 560.238 29.6737 546.395 39.3576C539.036 44.5053 537.388 55.0787 529.836 59.7284C533.004 60.5567 537.436 56.0556 539.665 54.5344C542.863 52.3597 546.354 50.4642 550.198 49.7613C556.509 48.6069 563.013 51.287 565.963 57.1579C568.558 62.3175 567.517 68.9337 563.442 73.034C559.094 77.405 551.351 78.8117 546.264 74.8519C542.303 71.7625 542.23 66.9085 544.734 63.4751C545.571 62.3249 546.701 61.3366 548.066 60.6239C548.818 60.1591 549.678 59.8898 550.636 59.9147C553.692 59.9939 556.062 63.1578 555.102 66.0573C554.57 67.6761 551.993 67.0144 552.532 65.3853C553.408 62.7321 549.816 61.8319 548.445 63.9047C547.168 65.8306 548.111 68.1583 549.876 69.3392C553.522 71.7742 557.925 68.3822 557.615 64.3027C557.264 59.7534 552.374 57.4788 548.341 58.7857C546.323 59.437 544.865 60.8022 543.66 62.4203C542.545 63.9179 541.64 65.6379 540.706 67.2025C535.926 75.2184 527.975 81.8718 519.288 86.0148C532.509 86.34 545.749 86.1493 558.949 85.2361C559.988 84.4303 561.017 83.6062 561.969 82.7151C563.159 81.6297 564.296 80.4955 565.339 79.2862C566.388 78.0861 567.376 76.8355 568.24 75.5091C569.11 74.1922 569.876 72.8059 570.536 71.3834C571.855 68.539 572.669 65.4724 572.795 62.37C572.865 60.8247 572.753 59.2741 572.48 57.7562C572.222 56.2302 571.75 54.7487 571.12 53.3476C569.861 50.5329 567.81 48.0828 565.224 46.3954C562.659 44.6781 559.513 43.8249 556.343 43.9177C554.752 43.9489 553.156 44.205 551.594 44.6444C550.032 45.0839 548.512 45.7214 547.041 46.4649C545.574 47.2133 544.159 48.1035 542.809 49.0846C541.455 50.0683 540.174 51.1575 538.92 52.2806C540.001 50.9879 541.167 49.7562 542.412 48.5959C543.667 47.454 545.016 46.3984 546.459 45.461C549.334 43.5871 552.661 42.2434 556.206 41.8637C557.983 41.6747 559.797 41.7717 561.565 42.1369C563.339 42.4918 565.068 43.1381 566.652 44.0424C568.25 44.9266 569.687 46.096 570.927 47.4356C572.181 48.7671 573.231 50.2861 574.062 51.9156C574.894 53.5375 575.531 55.2675 575.93 57.0444C576.324 58.824 576.492 60.6493 576.477 62.4659C576.432 66.1063 575.583 69.6927 574.172 72.992C573.471 74.6486 572.612 76.2247 571.657 77.7332C570.7 79.2374 569.618 80.6543 568.476 82.0009C567.335 83.3598 566.084 84.6039 564.792 85.7985C564.179 86.3742 563.546 86.9237 562.902 87.4548ZM308.328 345.144C307.805 345.795 307.264 346.435 306.697 347.054C305.518 348.361 304.289 349.627 302.944 350.785C301.611 351.943 300.208 353.042 298.716 354.018C297.219 354.991 295.653 355.869 294.005 356.591C290.724 358.041 287.148 358.933 283.508 359.023C281.692 359.061 279.865 358.915 278.08 358.542C276.299 358.164 274.561 357.549 272.929 356.736C271.29 355.926 269.758 354.895 268.411 353.656C267.057 352.432 265.87 351.009 264.967 349.423C264.043 347.85 263.376 346.129 262.999 344.359C262.613 342.596 262.494 340.783 262.661 339.005C262.997 335.455 264.301 332.111 266.139 329.215C267.059 327.76 268.098 326.398 269.225 325.129C270.37 323.87 271.587 322.689 272.867 321.592C271.759 322.861 270.686 324.154 269.718 325.52C268.753 326.882 267.88 328.308 267.15 329.784C266.424 331.263 265.805 332.791 265.385 334.358C264.964 335.925 264.728 337.524 264.716 339.116C264.662 342.288 265.553 345.422 267.301 347.967C269.02 350.531 271.494 352.553 274.325 353.778C275.734 354.39 277.221 354.844 278.75 355.085C280.271 355.338 281.823 355.431 283.367 355.343C286.468 355.179 289.523 354.329 292.352 352.975C293.767 352.298 295.143 351.514 296.45 350.629C297.765 349.748 299.004 348.745 300.191 347.681C301.388 346.623 302.508 345.473 303.579 344.27C304.458 343.307 305.269 342.268 306.062 341.219C306.815 328.01 306.845 314.768 306.359 301.551C302.322 310.289 295.766 318.321 287.809 323.197C286.256 324.15 284.547 325.076 283.063 326.209C281.46 327.433 280.112 328.908 279.485 330.933C278.228 334.982 280.562 339.844 285.115 340.14C289.198 340.4 292.536 335.956 290.057 332.34C288.855 330.59 286.516 329.675 284.605 330.976C282.549 332.371 283.493 335.952 286.135 335.043C287.758 334.485 288.451 337.054 286.839 337.605C283.951 338.601 280.759 336.269 280.642 333.214C280.606 332.257 280.865 331.393 281.32 330.636C282.016 329.263 282.991 328.121 284.131 327.27C287.533 324.724 292.388 324.738 295.525 328.661C299.547 333.699 298.234 341.459 293.916 345.86C289.866 349.984 283.263 351.106 278.072 348.574C272.166 345.696 269.407 339.225 270.484 332.9C271.14 329.048 272.993 325.534 275.129 322.31C276.623 320.062 281.07 315.575 280.203 312.418C275.645 320.026 265.093 321.802 260.035 329.224C250.52 343.184 260.648 361.926 275.935 365.968C287.5 369.03 299.186 364.304 307.46 356.16C307.691 355.937 307.966 355.83 308.249 355.807C308.297 355.798 308.345 355.795 308.393 355.794C308.442 355.794 308.49 355.797 308.538 355.805C308.821 355.825 309.097 355.928 309.331 356.149C317.703 364.192 329.446 368.775 340.973 365.572C356.209 361.345 366.108 342.481 356.424 328.638C351.277 321.279 340.704 319.631 336.054 312.078C335.225 315.246 339.727 319.678 341.248 321.908C343.422 325.106 345.318 328.597 346.021 332.441C347.175 338.752 344.495 345.255 338.624 348.206C333.465 350.801 326.848 349.759 322.748 345.684C318.377 341.336 316.97 333.593 320.93 328.506C324.02 324.545 328.874 324.472 332.307 326.977C333.457 327.814 334.446 328.944 335.158 330.309C335.623 331.061 335.892 331.921 335.867 332.878C335.788 335.935 332.624 338.305 329.725 337.345C328.106 336.812 328.768 334.235 330.397 334.774C333.05 335.651 333.95 332.058 331.877 330.688C329.952 329.41 327.624 330.354 326.443 332.118C324.008 335.764 327.4 340.168 331.479 339.858C336.029 339.506 338.303 334.616 336.996 330.583C336.345 328.566 334.98 327.108 333.362 325.903C331.864 324.788 330.144 323.883 328.58 322.949C320.564 318.169 313.91 310.218 309.767 301.531C309.442 314.753 309.633 327.992 310.546 341.192C311.352 342.231 312.176 343.26 313.066 344.212C314.152 345.402 315.286 346.538 316.495 347.582C317.695 348.631 318.946 349.619 320.273 350.484C321.589 351.353 322.976 352.12 324.398 352.78C327.243 354.099 330.309 354.912 333.412 355.039C334.957 355.108 336.507 354.996 338.025 354.724C339.551 354.466 341.033 353.993 342.434 353.363C345.249 352.104 347.699 350.053 349.386 347.468C351.103 344.902 351.957 341.756 351.864 338.586C351.833 336.995 351.577 335.399 351.137 333.837C350.698 332.275 350.06 330.755 349.317 329.284C348.568 327.817 347.678 326.402 346.697 325.052C345.713 323.698 344.624 322.417 343.501 321.163C344.794 322.244 346.025 323.41 347.186 324.655C348.328 325.91 349.383 327.26 350.321 328.703C352.195 331.577 353.538 334.904 353.918 338.45C354.107 340.226 354.01 342.04 353.645 343.808C353.29 345.582 352.643 347.312 351.739 348.895C350.855 350.493 349.686 351.93 348.346 353.17C347.015 354.424 345.495 355.474 343.866 356.305C342.244 357.137 340.514 357.774 338.737 358.173C336.958 358.567 335.132 358.736 333.316 358.72C329.675 358.675 326.089 357.826 322.79 356.416C321.133 355.714 319.557 354.855 318.048 353.9C316.544 352.943 315.127 351.861 313.781 350.719C312.422 349.578 311.178 348.326 309.983 347.034C309.409 346.421 308.86 345.788 308.328 345.144ZM50.6387 90.5704C49.9884 90.0472 49.3483 89.5055 48.729 88.9389C47.4222 87.7601 46.1562 86.5308 44.9985 85.1864C43.8404 83.8533 42.7413 82.4501 41.7659 80.9577C40.7931 79.4608 39.9145 77.8949 39.1931 76.2474C37.7422 72.9656 36.8503 69.3897 36.7606 65.7501C36.7226 63.9343 36.8686 62.1066 37.2413 60.3224C37.6188 58.5408 38.2343 56.8031 39.0471 55.1712C39.8576 53.5323 40.8892 52.0001 42.1271 50.6535C43.3515 49.2989 44.7741 48.1121 46.36 47.2085C47.9327 46.285 49.6539 45.6177 51.4239 45.2412C53.1873 44.8546 54.9999 44.7355 56.7786 44.9029C60.3284 45.2395 63.6719 46.5425 66.5686 48.3815C68.0229 49.3011 69.385 50.3402 70.6542 51.4669C71.9127 52.6119 73.0939 53.8292 74.1907 55.1087C72.9227 54.001 71.6289 52.928 70.2629 51.9602C68.9012 50.9952 67.4753 50.1223 65.9989 49.3923C64.5199 48.6667 62.9918 48.0478 61.4249 47.6273C59.858 47.2069 58.2593 46.9703 56.6674 46.9584C53.4953 46.9042 50.3607 47.7956 47.8164 49.544C45.2519 51.2627 43.2305 53.737 42.0054 56.5674C41.3933 57.9766 40.9389 59.4632 40.6992 60.9922C40.4454 62.5138 40.3522 64.0651 40.4404 65.6095C40.6046 68.7101 41.455 71.766 42.8091 74.5947C43.4859 76.009 44.27 77.386 45.1551 78.6921C46.0355 80.0075 47.0385 81.2464 48.1023 82.4337C49.1602 83.6302 50.3111 84.7506 51.5141 85.8214C52.4771 86.7003 53.5159 87.5124 54.5643 88.3054C67.7737 89.058 81.0154 89.0882 94.2324 88.6016C85.495 84.5647 77.4634 78.0084 72.5865 70.0512C71.6334 68.4981 70.708 66.7893 69.5743 65.3053C68.3498 63.702 66.8756 62.3546 64.8499 61.7279C60.8013 60.4702 55.9395 62.8041 55.6436 67.3573C55.3827 71.4409 59.827 74.7786 63.4428 72.2994C65.1927 71.0971 66.1081 68.7581 64.8071 66.8479C63.4112 64.7919 59.8303 65.7357 60.7393 68.378C61.2979 70.0005 58.7288 70.6935 58.1772 69.0812C57.1814 66.1937 59.5133 63.0012 62.5683 62.8848C63.5258 62.8482 64.3895 63.1071 65.1463 63.5627C66.5199 64.2587 67.6612 65.2332 68.5129 66.3732C71.0584 69.7758 71.0447 74.6304 67.1217 77.7677C62.0832 81.7891 54.3239 80.4767 49.9228 76.159C45.7984 72.1085 44.6768 65.5054 47.2089 60.3147C50.0871 54.4083 56.5571 51.6493 62.8825 52.7268C66.7346 53.3829 70.2483 55.2358 73.4725 57.3715C75.7206 58.8654 80.2077 63.3123 83.3646 62.4455C75.7562 57.888 73.9803 47.3354 66.5585 42.2777C52.5985 32.7628 33.8565 42.8909 29.8145 58.1777C26.7525 69.7423 31.4781 81.4286 39.6222 89.7024C39.8456 89.9339 39.9527 90.2087 39.9754 90.4916C39.9844 90.5396 39.9879 90.5877 39.9882 90.6363C39.9885 90.6854 39.9856 90.7335 39.9772 90.7811C39.9579 91.0637 39.8542 91.3404 39.6336 91.574C31.5908 99.9463 27.0076 111.689 30.2101 123.216C34.4377 138.452 53.302 148.351 67.1447 138.668C74.5039 133.52 76.1519 122.946 83.7043 118.297C80.5366 117.468 76.1044 121.97 73.8747 123.491C70.6766 125.665 67.1857 127.561 63.3419 128.264C57.0307 129.418 50.5276 126.738 47.5771 120.867C44.9816 115.708 46.0233 109.091 50.0982 104.991C54.4464 100.62 62.1886 99.2135 67.2762 103.173C71.2376 106.263 71.3103 111.117 68.806 114.55C67.9687 115.7 66.8387 116.689 65.4738 117.401C64.722 117.866 63.8621 118.135 62.9042 118.11C59.848 118.031 57.478 114.867 58.4381 111.968C58.97 110.349 61.5474 111.011 61.0085 112.64C60.1322 115.293 63.7244 116.193 65.0946 114.12C66.3723 112.195 65.4285 109.867 63.6642 108.686C60.0184 106.251 55.6151 109.643 55.9256 113.723C56.2763 118.272 61.1667 120.546 65.1997 119.24C67.2176 118.588 68.6753 117.223 69.8803 115.605C70.9952 114.107 71.9004 112.387 72.8345 110.823C77.6143 102.807 85.5655 96.1534 94.2531 92.0104C81.0312 91.6852 67.7914 91.8759 54.5916 92.7891C53.5524 93.5949 52.5241 94.4189 51.5718 95.3101C50.3819 96.3954 49.2447 97.5297 48.2015 98.739C47.1528 99.9391 46.1643 101.19 45.3 102.516C44.4308 103.833 43.6636 105.219 43.004 106.642C41.6844 109.486 40.8712 112.553 40.7448 115.655C40.6753 117.2 40.7874 118.751 41.0597 120.269C41.318 121.795 41.7905 123.276 42.4196 124.678C43.6791 127.492 45.7304 129.942 48.3156 131.63C50.8811 133.347 54.0267 134.2 57.1975 134.108C58.7886 134.076 60.3843 133.821 61.9465 133.381C63.5081 132.941 65.0286 132.304 66.4987 131.56C67.9661 130.812 69.3813 129.922 70.7311 128.941C72.0853 127.956 73.3658 126.868 74.6203 125.745C73.5392 127.037 72.3734 128.269 71.1284 129.429C69.873 130.571 68.5236 131.627 67.0806 132.564C64.2065 134.438 60.8791 135.782 57.3337 136.161C55.5571 136.351 53.7427 136.254 51.9752 135.888C50.2008 135.533 48.4716 134.887 46.8877 133.983C45.2905 133.099 43.8536 131.929 42.6133 130.59C41.3591 129.258 40.3089 127.739 39.4785 126.11C38.646 124.488 38.0094 122.758 37.6102 120.981C37.2159 119.201 37.0476 117.376 37.0636 115.559C37.1089 111.919 37.9573 108.332 39.3682 105.033C40.0695 103.377 40.929 101.801 41.8835 100.292C42.8407 98.7878 43.9232 97.3714 45.0645 96.0243C46.2057 94.6654 47.4567 93.4213 48.749 92.2267C49.3619 91.6509 49.9948 91.1015 50.6387 90.5704Z" fill="#150033"/>
<path d="M40.6734 90.2394C40.6731 90.1903 40.6696 90.1422 40.6606 90.0947C40.6378 89.8124 40.5308 89.537 40.3074 89.3055C32.1633 81.0317 27.4377 69.3455 30.4997 57.7809C34.5417 42.494 53.2842 32.366 67.2437 41.8808C74.6649 46.9386 76.4414 57.4912 84.0498 62.0487C80.8924 62.9154 76.4058 58.4686 74.1577 56.9747C70.9334 54.839 67.4198 52.986 63.5677 52.3299C57.2428 51.2524 50.7728 54.0115 47.894 59.9178C45.3615 65.1085 46.4836 71.7117 50.608 75.7621C55.0091 80.0798 62.7678 81.3922 67.8068 77.3709C71.7304 74.2335 71.7441 69.379 69.1981 65.9764L70.259 64.9085C71.3921 66.3924 72.3181 68.1013 73.2712 69.6544C78.1481 77.6116 86.1796 84.1678 94.917 88.2048C81.7 88.6908 68.4589 88.6612 55.249 87.9086C54.2 87.1155 53.1618 86.304 52.1987 85.4246C50.9957 84.3537 49.8448 83.2334 48.787 82.0369C47.7237 80.8496 46.7201 79.6112 45.8398 78.2953C44.9546 76.9892 44.1706 75.6122 43.4938 74.1978C42.1397 71.3697 41.2892 68.3132 41.1251 65.2126C41.0368 63.6683 41.13 62.1164 41.3838 60.5954C41.6235 59.0663 42.0779 57.5792 42.69 56.1705C43.9152 53.3407 45.9365 50.8658 48.501 49.1471C51.0454 47.3988 54.1804 46.5074 57.3521 46.5615C58.9434 46.5735 60.5421 46.8101 62.1096 47.2305C63.6764 47.6509 65.2045 48.2698 66.6836 48.9955C68.16 49.726 69.5859 50.5988 70.9476 51.5634C72.3136 52.5306 73.6073 53.6041 74.8753 54.7119C73.7786 53.4324 72.5979 52.215 71.3389 51.07C70.0697 49.9434 68.7075 48.9043 67.2532 47.9846C64.3565 46.1457 61.0131 44.8426 57.4633 44.5061C55.6846 44.3386 53.8714 44.4577 52.1085 44.8444C50.3386 45.2208 48.6173 45.8882 47.0446 46.8117C45.4582 47.7153 44.0356 48.902 42.8118 50.2566C41.5738 51.6032 40.5422 53.1349 39.7317 54.7744C38.919 56.4063 38.3035 58.1439 37.9259 59.9255C37.5533 61.7098 37.4072 63.537 37.4453 65.3533C37.5349 68.9929 38.4269 72.5687 39.8777 75.8506C40.5991 77.4985 41.4778 79.064 42.4505 80.5608C43.426 82.0533 44.5256 83.457 45.6832 84.7895C46.8408 86.1345 48.1069 87.3632 49.4137 88.542C50.0329 89.1087 50.6731 89.6503 51.3233 90.1736C50.6795 90.7047 50.046 91.2541 49.4337 91.8282C48.1413 93.0228 46.8903 94.2674 45.7491 95.6258C44.6073 96.9729 43.5253 98.3899 42.5681 99.8936C41.6136 101.402 40.7541 102.979 40.0528 104.635C38.642 107.934 37.7936 111.52 37.7482 115.161C37.7322 116.977 37.9005 118.803 38.2949 120.582C38.6941 122.359 39.3306 124.089 40.1632 125.711C40.9936 127.34 42.0437 128.86 43.2979 130.191C44.5387 131.531 45.9757 132.7 47.5724 133.584C49.1562 134.489 50.8854 135.135 52.6598 135.49C54.4279 135.855 56.2418 135.952 58.0183 135.763C61.5638 135.383 64.8911 134.04 67.7652 132.166C69.2082 131.228 70.5576 130.173 71.813 129.031C73.0575 127.871 74.2238 126.639 75.3049 125.346C74.0505 126.469 72.7699 127.558 71.4158 128.542C70.0659 129.524 68.6507 130.414 67.1833 131.162C65.7132 131.905 64.1927 132.543 62.6311 132.982C61.0695 133.422 59.4738 133.678 57.8821 133.709C54.7108 133.802 51.5657 132.949 49.0003 131.231C46.4151 129.544 44.3638 127.094 43.1043 124.279C42.4751 122.877 42.0026 121.396 41.7443 119.87C41.472 118.352 41.36 116.802 41.4294 115.257C41.5559 112.154 42.3691 109.088 43.6887 106.243C44.3482 104.821 45.1154 103.434 45.9847 102.118C46.849 100.792 47.8369 99.5406 48.8861 98.3405C49.9294 97.1312 51.0665 95.997 52.2564 94.9116C53.2087 94.021 54.2375 93.1969 55.2762 92.3907C68.4755 91.4774 81.7158 91.2862 94.9377 91.612C86.2501 95.7549 78.2989 102.408 73.5191 110.424C72.585 111.989 71.6804 113.709 70.5649 115.206L69.4911 114.152C71.995 110.718 71.9222 105.864 67.9613 102.775C62.8743 98.815 55.1316 100.222 50.7834 104.593C46.7085 108.693 45.6673 115.309 48.2623 120.469C51.2122 126.34 57.7153 129.02 64.0271 127.865C67.8709 127.163 71.3618 125.267 74.5598 123.092C76.7896 121.571 81.2223 117.07 84.3894 117.898C76.8371 122.548 75.1896 133.121 67.8299 138.269C53.9867 147.953 35.1229 138.054 30.8953 122.817C27.6928 111.291 32.2759 99.5478 40.3188 91.1755C40.5394 90.9414 40.643 90.6653 40.6624 90.3827C40.6707 90.3367 40.6737 90.2886 40.6734 90.2394Z" fill="#F46C68"/>
<path d="M65.5346 61.3319C67.5602 61.9586 69.0344 63.3059 70.259 64.9093L69.1981 65.9771C68.3469 64.8372 67.205 63.8626 65.8315 63.1666C65.0741 62.711 64.211 62.4521 63.2535 62.4887C60.1985 62.6051 57.8671 65.7976 58.8624 68.6852C59.414 70.2974 61.9831 69.6045 61.4244 67.982C60.516 65.3396 64.0969 64.3958 65.4922 66.4518C66.7932 68.362 65.8778 70.7011 64.128 71.9033C60.5121 74.3825 56.0679 71.0443 56.3288 66.9613C56.6241 62.4081 61.486 60.0742 65.5346 61.3319Z" fill="#F46C68"/>
<path d="M65.8841 118.844C67.902 118.192 69.3597 116.827 70.5647 115.209L69.4909 114.154C68.6536 115.304 67.5237 116.293 66.1587 117.005C65.4069 117.47 64.547 117.739 63.5891 117.715C60.533 117.635 58.1629 114.472 59.123 111.572C59.6549 109.953 62.2323 110.615 61.6934 112.244C60.8172 114.897 64.4093 115.797 65.7795 113.725C67.0572 111.799 66.1134 109.471 64.3491 108.29C60.7033 105.855 56.3 109.247 56.6106 113.327C56.9613 117.877 61.8511 120.151 65.8841 118.844Z" fill="#F46C68"/>
</g>
<defs>
<clipPath id="clip0_0_7">
<rect width="116.21" height="191.532" fill="white" transform="translate(0 0.709844) scale(1.00398) rotate(-0.348476)"/>
</clipPath>
</defs>
</svg>
