<svg width="265" height="364" viewBox="0 0 265 364" fill="none" xmlns="http://www.w3.org/2000/svg">
<g filter="url(#filter0_n_615_4658)">
<path d="M118.196 48.854L133.837 13.9214C136.179 8.69094 142.692 6.86717 147.41 10.1208C149.617 11.6428 151.047 14.0546 151.324 16.7211L173.129 226.693C173.73 232.479 169.191 237.513 163.374 237.513H53.3261C44.5941 237.513 40.3283 226.861 46.6468 220.834C47.482 220.037 48.168 219.097 48.6722 218.059L71.8145 170.413C72.2216 169.575 72.5072 168.683 72.6627 167.764L87.0021 82.9929C87.0935 82.4524 87.1395 81.9053 87.1395 81.3572V72.2642C87.1395 68.4585 89.3411 64.9964 92.7876 63.3824L113.404 53.7278C115.534 52.7303 117.235 51.0006 118.196 48.854Z" fill="url(#paint0_linear_615_4658)"/>
<path d="M118.196 48.854L133.837 13.9214C136.179 8.69094 142.692 6.86717 147.41 10.1208C149.617 11.6428 151.047 14.0546 151.324 16.7211L173.129 226.693C173.73 232.479 169.191 237.513 163.374 237.513H53.3261C44.5941 237.513 40.3283 226.861 46.6468 220.834C47.482 220.037 48.168 219.097 48.6722 218.059L71.8145 170.413C72.2216 169.575 72.5072 168.683 72.6627 167.764L87.0021 82.9929C87.0935 82.4524 87.1395 81.9053 87.1395 81.3572V72.2642C87.1395 68.4585 89.3411 64.9964 92.7876 63.3824L113.404 53.7278C115.534 52.7303 117.235 51.0006 118.196 48.854Z" fill="url(#paint1_linear_615_4658)" fill-opacity="0.2"/>
<path d="M118.196 48.854L133.837 13.9214C136.179 8.69094 142.692 6.86717 147.41 10.1208C149.617 11.6428 151.047 14.0546 151.324 16.7211L173.129 226.693C173.73 232.479 169.191 237.513 163.374 237.513H53.3261C44.5941 237.513 40.3283 226.861 46.6468 220.834C47.482 220.037 48.168 219.097 48.6722 218.059L71.8145 170.413C72.2216 169.575 72.5072 168.683 72.6627 167.764L87.0021 82.9929C87.0935 82.4524 87.1395 81.9053 87.1395 81.3572V72.2642C87.1395 68.4585 89.3411 64.9964 92.7876 63.3824L113.404 53.7278C115.534 52.7303 117.235 51.0006 118.196 48.854Z" stroke="#87ACA1" stroke-width="1.15149"/>
</g>
<g filter="url(#filter1_n_615_4658)">
<path d="M99.5437 124.728L109.64 88.0942L125.074 48.7363C126.247 45.7448 128.811 43.5178 131.938 42.775L146.043 39.424C150.214 38.4332 154.544 40.2656 156.737 43.9488L202.101 120.144C203.802 123.002 203.939 126.528 202.465 129.509L135.416 265.082C133.762 268.425 130.355 270.541 126.625 270.541H16.1279L12.2672 275.525C11.4945 276.522 10.1932 276.95 8.97952 276.605C5.52888 275.625 6.23672 270.541 9.82378 270.541H16.1279L42.7362 236.194C45.3811 232.78 49.9481 231.498 53.9834 233.037L59.8842 235.287C64.1801 236.925 69.0371 235.359 71.5672 231.52L86.9313 208.209C87.7335 206.992 88.2543 205.611 88.4558 204.167L99.5437 124.728Z" fill="url(#paint2_linear_615_4658)"/>
<path d="M99.5437 124.728L109.64 88.0942L125.074 48.7363C126.247 45.7448 128.811 43.5178 131.938 42.775L146.043 39.424C150.214 38.4332 154.544 40.2656 156.737 43.9488L202.101 120.144C203.802 123.002 203.939 126.528 202.465 129.509L135.416 265.082C133.762 268.425 130.355 270.541 126.625 270.541H16.1279L12.2672 275.525C11.4945 276.522 10.1932 276.95 8.97952 276.605C5.52888 275.625 6.23672 270.541 9.82378 270.541H16.1279L42.7362 236.194C45.3811 232.78 49.9481 231.498 53.9834 233.037L59.8842 235.287C64.1801 236.925 69.0371 235.359 71.5672 231.52L86.9313 208.209C87.7335 206.992 88.2543 205.611 88.4558 204.167L99.5437 124.728Z" fill="url(#paint3_linear_615_4658)" fill-opacity="0.2"/>
<path d="M99.5437 124.728L109.64 88.0942L125.074 48.7363C126.247 45.7448 128.811 43.5178 131.938 42.775L146.043 39.424C150.214 38.4332 154.544 40.2656 156.737 43.9488L202.101 120.144C203.802 123.002 203.939 126.528 202.465 129.509L135.416 265.082C133.762 268.425 130.355 270.541 126.625 270.541H16.1279L12.2672 275.525C11.4945 276.522 10.1932 276.95 8.97952 276.605C5.52888 275.625 6.23672 270.541 9.82378 270.541H16.1279L42.7362 236.194C45.3811 232.78 49.9481 231.498 53.9834 233.037L59.8842 235.287C64.1801 236.925 69.0371 235.359 71.5672 231.52L86.9313 208.209C87.7335 206.992 88.2543 205.611 88.4558 204.167L99.5437 124.728Z" stroke="#87ACA1" stroke-width="1.15149"/>
</g>
<g filter="url(#filter2_n_615_4658)">
<path d="M63.4857 150.689L80.2722 95.0419C81.2272 91.8762 83.7131 89.4048 86.8844 88.4684L117.208 79.5146C118.023 79.2739 118.804 78.9281 119.53 78.4861L132.175 70.7894C138.957 66.6608 147.579 71.883 147.061 79.8065L133.025 294.546C132.688 299.703 128.407 303.713 123.239 303.713H9.45298C1.46054 303.713 -2.44395 293.963 3.33944 288.446C5.09182 286.775 6.0834 284.459 6.0834 282.037V241.567C6.0834 240.225 6.35898 238.897 6.89308 237.665L29.2171 186.189C30.113 184.123 31.6924 182.428 33.6901 181.39L52.6058 171.553C54.6932 170.468 56.3209 168.668 57.1918 166.483L63.4857 150.689Z" fill="url(#paint4_linear_615_4658)"/>
<path d="M63.4857 150.689L80.2722 95.0419C81.2272 91.8762 83.7131 89.4048 86.8844 88.4684L117.208 79.5146C118.023 79.2739 118.804 78.9281 119.53 78.4861L132.175 70.7894C138.957 66.6608 147.579 71.883 147.061 79.8065L133.025 294.546C132.688 299.703 128.407 303.713 123.239 303.713H9.45298C1.46054 303.713 -2.44395 293.963 3.33944 288.446C5.09182 286.775 6.0834 284.459 6.0834 282.037V241.567C6.0834 240.225 6.35898 238.897 6.89308 237.665L29.2171 186.189C30.113 184.123 31.6924 182.428 33.6901 181.39L52.6058 171.553C54.6932 170.468 56.3209 168.668 57.1918 166.483L63.4857 150.689Z" fill="url(#paint5_linear_615_4658)" fill-opacity="0.2"/>
<path d="M63.4857 150.689L80.2722 95.0419C81.2272 91.8762 83.7131 89.4048 86.8844 88.4684L117.208 79.5146C118.023 79.2739 118.804 78.9281 119.53 78.4861L132.175 70.7894C138.957 66.6608 147.579 71.883 147.061 79.8065L133.025 294.546C132.688 299.703 128.407 303.713 123.239 303.713H9.45298C1.46054 303.713 -2.44395 293.963 3.33944 288.446C5.09182 286.775 6.0834 284.459 6.0834 282.037V241.567C6.0834 240.225 6.35898 238.897 6.89308 237.665L29.2171 186.189C30.113 184.123 31.6924 182.428 33.6901 181.39L52.6058 171.553C54.6932 170.468 56.3209 168.668 57.1918 166.483L63.4857 150.689Z" stroke="#87ACA1" stroke-width="1.15149"/>
</g>
<g filter="url(#filter3_n_615_4658)">
<path d="M178.991 24.3648L199.906 3.4497C202.487 0.868307 206.289 -0.0656756 209.772 1.02561L233.142 8.34619C237.233 9.62774 240.018 13.418 240.018 17.7052V223.091C240.018 228.507 235.627 232.898 230.21 232.898H107.158C100.881 232.898 96.2203 227.084 97.5849 220.958L114.411 145.422C114.957 142.969 116.423 140.82 118.508 139.418L135.294 128.121C137.169 126.859 138.551 124.989 139.206 122.826L152.659 78.3758C152.823 77.8366 152.939 77.2844 153.007 76.7253L157.228 42.2126C157.594 39.2193 159.317 36.5608 161.9 35.0039L177.119 25.8292C177.8 25.4187 178.429 24.927 178.991 24.3648Z" fill="url(#paint6_linear_615_4658)"/>
<path d="M178.991 24.3648L199.906 3.4497C202.487 0.868307 206.289 -0.0656756 209.772 1.02561L233.142 8.34619C237.233 9.62774 240.018 13.418 240.018 17.7052V223.091C240.018 228.507 235.627 232.898 230.21 232.898H107.158C100.881 232.898 96.2203 227.084 97.5849 220.958L114.411 145.422C114.957 142.969 116.423 140.82 118.508 139.418L135.294 128.121C137.169 126.859 138.551 124.989 139.206 122.826L152.659 78.3758C152.823 77.8366 152.939 77.2844 153.007 76.7253L157.228 42.2126C157.594 39.2193 159.317 36.5608 161.9 35.0039L177.119 25.8292C177.8 25.4187 178.429 24.927 178.991 24.3648Z" fill="url(#paint7_linear_615_4658)" fill-opacity="0.2"/>
<path d="M178.991 24.3648L199.906 3.4497C202.487 0.868307 206.289 -0.0656756 209.772 1.02561L233.142 8.34619C237.233 9.62774 240.018 13.418 240.018 17.7052V223.091C240.018 228.507 235.627 232.898 230.21 232.898H107.158C100.881 232.898 96.2203 227.084 97.5849 220.958L114.411 145.422C114.957 142.969 116.423 140.82 118.508 139.418L135.294 128.121C137.169 126.859 138.551 124.989 139.206 122.826L152.659 78.3758C152.823 77.8366 152.939 77.2844 153.007 76.7253L157.228 42.2126C157.594 39.2193 159.317 36.5608 161.9 35.0039L177.119 25.8292C177.8 25.4187 178.429 24.927 178.991 24.3648Z" stroke="#87ACA1" stroke-width="1.15149"/>
</g>
<g filter="url(#filter4_n_615_4658)">
<path d="M102.552 126.477L123.467 105.562C126.048 102.981 129.85 102.047 133.333 103.138L156.703 110.459C160.794 111.74 163.579 115.531 163.579 119.818V325.203C163.579 330.62 159.188 335.011 153.771 335.011H30.7188C24.4425 335.011 19.7814 329.197 21.146 323.071L37.9716 247.534C38.5179 245.082 39.9845 242.933 42.0689 241.53L58.8555 230.234C60.7304 228.972 62.1121 227.101 62.7668 224.938L76.2204 180.488C76.3836 179.949 76.5 179.397 76.5684 178.838L80.7894 144.325C81.1555 141.332 82.8783 138.673 85.4609 137.117L100.68 127.942C101.361 127.531 101.99 127.04 102.552 126.477Z" fill="url(#paint8_linear_615_4658)"/>
<path d="M102.552 126.477L123.467 105.562C126.048 102.981 129.85 102.047 133.333 103.138L156.703 110.459C160.794 111.74 163.579 115.531 163.579 119.818V325.203C163.579 330.62 159.188 335.011 153.771 335.011H30.7188C24.4425 335.011 19.7814 329.197 21.146 323.071L37.9716 247.534C38.5179 245.082 39.9845 242.933 42.0689 241.53L58.8555 230.234C60.7304 228.972 62.1121 227.101 62.7668 224.938L76.2204 180.488C76.3836 179.949 76.5 179.397 76.5684 178.838L80.7894 144.325C81.1555 141.332 82.8783 138.673 85.4609 137.117L100.68 127.942C101.361 127.531 101.99 127.04 102.552 126.477Z" fill="url(#paint9_linear_615_4658)" fill-opacity="0.2"/>
<path d="M102.552 126.477L123.467 105.562C126.048 102.981 129.85 102.047 133.333 103.138L156.703 110.459C160.794 111.74 163.579 115.531 163.579 119.818V325.203C163.579 330.62 159.188 335.011 153.771 335.011H30.7188C24.4425 335.011 19.7814 329.197 21.146 323.071L37.9716 247.534C38.5179 245.082 39.9845 242.933 42.0689 241.53L58.8555 230.234C60.7304 228.972 62.1121 227.101 62.7668 224.938L76.2204 180.488C76.3836 179.949 76.5 179.397 76.5684 178.838L80.7894 144.325C81.1555 141.332 82.8783 138.673 85.4609 137.117L100.68 127.942C101.361 127.531 101.99 127.04 102.552 126.477Z" stroke="#87ACA1" stroke-width="1.15149"/>
</g>
<g filter="url(#filter5_n_615_4658)">
<path d="M192.966 47.3998L198.991 41.9058C200.798 40.2587 203.154 39.3456 205.599 39.3456H251.994C257.352 39.3456 261.719 43.6461 261.801 49.0037L264.386 218.759C264.47 224.233 260.055 228.716 254.58 228.716H130.274C123.718 228.716 119.008 222.407 120.871 216.121L142.483 143.212C143.071 141.228 144.271 139.482 145.912 138.221L150.62 134.605C152.38 133.253 153.63 131.343 154.164 129.188L170.579 63.0119C171.263 60.2552 173.108 57.9303 175.638 56.6385L190.818 48.8871C191.597 48.4893 192.319 47.9891 192.966 47.3998Z" fill="url(#paint10_linear_615_4658)"/>
<path d="M192.966 47.3998L198.991 41.9058C200.798 40.2587 203.154 39.3456 205.599 39.3456H251.994C257.352 39.3456 261.719 43.6461 261.801 49.0037L264.386 218.759C264.47 224.233 260.055 228.716 254.58 228.716H130.274C123.718 228.716 119.008 222.407 120.871 216.121L142.483 143.212C143.071 141.228 144.271 139.482 145.912 138.221L150.62 134.605C152.38 133.253 153.63 131.343 154.164 129.188L170.579 63.0119C171.263 60.2552 173.108 57.9303 175.638 56.6385L190.818 48.8871C191.597 48.4893 192.319 47.9891 192.966 47.3998Z" fill="url(#paint11_linear_615_4658)" fill-opacity="0.2"/>
<path d="M192.966 47.3998L198.991 41.9058C200.798 40.2587 203.154 39.3456 205.599 39.3456H251.994C257.352 39.3456 261.719 43.6461 261.801 49.0037L264.386 218.759C264.47 224.233 260.055 228.716 254.58 228.716H130.274C123.718 228.716 119.008 222.407 120.871 216.121L142.483 143.212C143.071 141.228 144.271 139.482 145.912 138.221L150.62 134.605C152.38 133.253 153.63 131.343 154.164 129.188L170.579 63.0119C171.263 60.2552 173.108 57.9303 175.638 56.6385L190.818 48.8871C191.597 48.4893 192.319 47.9891 192.966 47.3998Z" stroke="#87ACA1" stroke-width="1.15149"/>
</g>
<g filter="url(#filter6_n_615_4658)">
<path d="M144.254 192.37L161.04 136.724C161.995 133.558 164.481 131.087 167.652 130.15L197.976 121.196C198.791 120.956 199.572 120.61 200.298 120.168L212.943 112.471C219.725 108.343 228.346 113.565 227.829 121.488L213.793 336.227C213.456 341.385 209.175 345.395 204.007 345.395H90.2209C82.2285 345.395 78.324 335.645 84.1074 330.128C85.8598 328.457 86.8514 326.141 86.8514 323.719V283.249C86.8514 281.907 87.1269 280.579 87.661 279.347L109.985 227.871C110.881 225.805 112.46 224.11 114.458 223.071L133.374 213.235C135.461 212.15 137.089 210.35 137.96 208.165L144.254 192.37Z" fill="url(#paint12_linear_615_4658)"/>
<path d="M144.254 192.37L161.04 136.724C161.995 133.558 164.481 131.087 167.652 130.15L197.976 121.196C198.791 120.956 199.572 120.61 200.298 120.168L212.943 112.471C219.725 108.343 228.346 113.565 227.829 121.488L213.793 336.227C213.456 341.385 209.175 345.395 204.007 345.395H90.2209C82.2285 345.395 78.324 335.645 84.1074 330.128C85.8598 328.457 86.8514 326.141 86.8514 323.719V283.249C86.8514 281.907 87.1269 280.579 87.661 279.347L109.985 227.871C110.881 225.805 112.46 224.11 114.458 223.071L133.374 213.235C135.461 212.15 137.089 210.35 137.96 208.165L144.254 192.37Z" fill="url(#paint13_linear_615_4658)" fill-opacity="0.2"/>
<path d="M144.254 192.37L161.04 136.724C161.995 133.558 164.481 131.087 167.652 130.15L197.976 121.196C198.791 120.956 199.572 120.61 200.298 120.168L212.943 112.471C219.725 108.343 228.346 113.565 227.829 121.488L213.793 336.227C213.456 341.385 209.175 345.395 204.007 345.395H90.2209C82.2285 345.395 78.324 335.645 84.1074 330.128C85.8598 328.457 86.8514 326.141 86.8514 323.719V283.249C86.8514 281.907 87.1269 280.579 87.661 279.347L109.985 227.871C110.881 225.805 112.46 224.11 114.458 223.071L133.374 213.235C135.461 212.15 137.089 210.35 137.96 208.165L144.254 192.37Z" stroke="#87ACA1" stroke-width="1.15149"/>
</g>
<g filter="url(#filter7_n_615_4658)">
<path d="M147.714 210.398L164.5 154.752C165.455 151.586 167.941 149.115 171.112 148.178L201.436 139.224C202.251 138.984 203.032 138.638 203.758 138.196L216.403 130.499C223.185 126.371 231.807 131.593 231.289 139.516L217.253 354.255C216.916 359.413 212.635 363.423 207.467 363.423H93.681C85.6886 363.423 81.7841 353.673 87.5675 348.156C89.3199 346.485 90.3114 344.169 90.3114 341.747V301.277C90.3114 299.935 90.587 298.607 91.1211 297.375L113.445 245.899C114.341 243.833 115.92 242.138 117.918 241.099L136.834 231.263C138.921 230.178 140.549 228.378 141.42 226.192L147.714 210.398Z" fill="url(#paint14_linear_615_4658)"/>
<path d="M147.714 210.398L164.5 154.752C165.455 151.586 167.941 149.115 171.112 148.178L201.436 139.224C202.251 138.984 203.032 138.638 203.758 138.196L216.403 130.499C223.185 126.371 231.807 131.593 231.289 139.516L217.253 354.255C216.916 359.413 212.635 363.423 207.467 363.423H93.681C85.6886 363.423 81.7841 353.673 87.5675 348.156C89.3199 346.485 90.3114 344.169 90.3114 341.747V301.277C90.3114 299.935 90.587 298.607 91.1211 297.375L113.445 245.899C114.341 243.833 115.92 242.138 117.918 241.099L136.834 231.263C138.921 230.178 140.549 228.378 141.42 226.192L147.714 210.398Z" fill="url(#paint15_linear_615_4658)" fill-opacity="0.2"/>
<path d="M147.714 210.398L164.5 154.752C165.455 151.586 167.941 149.115 171.112 148.178L201.436 139.224C202.251 138.984 203.032 138.638 203.758 138.196L216.403 130.499C223.185 126.371 231.807 131.593 231.289 139.516L217.253 354.255C216.916 359.413 212.635 363.423 207.467 363.423H93.681C85.6886 363.423 81.7841 353.673 87.5675 348.156C89.3199 346.485 90.3114 344.169 90.3114 341.747V301.277C90.3114 299.935 90.587 298.607 91.1211 297.375L113.445 245.899C114.341 243.833 115.92 242.138 117.918 241.099L136.834 231.263C138.921 230.178 140.549 228.378 141.42 226.192L147.714 210.398Z" stroke="#87ACA1" stroke-width="1.15149"/>
</g>
<defs>
<filter id="filter0_n_615_4658" x="43.0515" y="7.92023" width="130.708" height="230.17" filterUnits="userSpaceOnUse" color-interpolation-filters="sRGB">
<feFlood flood-opacity="0" result="BackgroundImageFix"/>
<feBlend mode="normal" in="SourceGraphic" in2="BackgroundImageFix" result="shape"/>
<feTurbulence type="fractalNoise" baseFrequency="6.9474935531616211 6.9474935531616211" stitchTiles="stitch" numOctaves="3" result="noise" seed="7129" />
<feColorMatrix in="noise" type="luminanceToAlpha" result="alphaNoise" />
<feComponentTransfer in="alphaNoise" result="coloredNoise1">
<feFuncA type="discrete" tableValues="1 1 1 1 1 1 1 1 1 1 1 1 1 1 1 1 1 1 1 1 1 1 1 1 1 1 1 1 1 1 1 1 1 1 1 1 1 1 1 1 1 1 1 1 1 1 1 1 1 1 1 0 0 0 0 0 0 0 0 0 0 0 0 0 0 0 0 0 0 0 0 0 0 0 0 0 0 0 0 0 0 0 0 0 0 0 0 0 0 0 0 0 0 0 0 0 0 0 0 0 "/>
</feComponentTransfer>
<feComposite operator="in" in2="shape" in="coloredNoise1" result="noise1Clipped" />
<feFlood flood-color="rgba(0, 0, 0, 0.25)" result="color1Flood" />
<feComposite operator="in" in2="noise1Clipped" in="color1Flood" result="color1" />
<feMerge result="effect1_noise_615_4658">
<feMergeNode in="shape" />
<feMergeNode in="color1" />
</feMerge>
</filter>
<filter id="filter1_n_615_4658" x="6.153" y="38.5808" width="197.906" height="238.719" filterUnits="userSpaceOnUse" color-interpolation-filters="sRGB">
<feFlood flood-opacity="0" result="BackgroundImageFix"/>
<feBlend mode="normal" in="SourceGraphic" in2="BackgroundImageFix" result="shape"/>
<feTurbulence type="fractalNoise" baseFrequency="6.9474935531616211 6.9474935531616211" stitchTiles="stitch" numOctaves="3" result="noise" seed="7129" />
<feColorMatrix in="noise" type="luminanceToAlpha" result="alphaNoise" />
<feComponentTransfer in="alphaNoise" result="coloredNoise1">
<feFuncA type="discrete" tableValues="1 1 1 1 1 1 1 1 1 1 1 1 1 1 1 1 1 1 1 1 1 1 1 1 1 1 1 1 1 1 1 1 1 1 1 1 1 1 1 1 1 1 1 1 1 1 1 1 1 1 1 0 0 0 0 0 0 0 0 0 0 0 0 0 0 0 0 0 0 0 0 0 0 0 0 0 0 0 0 0 0 0 0 0 0 0 0 0 0 0 0 0 0 0 0 0 0 0 0 0 "/>
</feComponentTransfer>
<feComposite operator="in" in2="shape" in="coloredNoise1" result="noise1Clipped" />
<feFlood flood-color="rgba(0, 0, 0, 0.25)" result="color1Flood" />
<feComposite operator="in" in2="noise1Clipped" in="color1Flood" result="color1" />
<feMerge result="effect1_noise_615_4658">
<feMergeNode in="shape" />
<feMergeNode in="color1" />
</feMerge>
</filter>
<filter id="filter2_n_615_4658" x="0" y="68.7626" width="147.66" height="235.528" filterUnits="userSpaceOnUse" color-interpolation-filters="sRGB">
<feFlood flood-opacity="0" result="BackgroundImageFix"/>
<feBlend mode="normal" in="SourceGraphic" in2="BackgroundImageFix" result="shape"/>
<feTurbulence type="fractalNoise" baseFrequency="6.9474935531616211 6.9474935531616211" stitchTiles="stitch" numOctaves="3" result="noise" seed="7129" />
<feColorMatrix in="noise" type="luminanceToAlpha" result="alphaNoise" />
<feComponentTransfer in="alphaNoise" result="coloredNoise1">
<feFuncA type="discrete" tableValues="1 1 1 1 1 1 1 1 1 1 1 1 1 1 1 1 1 1 1 1 1 1 1 1 1 1 1 1 1 1 1 1 1 1 1 1 1 1 1 1 1 1 1 1 1 1 1 1 1 1 1 0 0 0 0 0 0 0 0 0 0 0 0 0 0 0 0 0 0 0 0 0 0 0 0 0 0 0 0 0 0 0 0 0 0 0 0 0 0 0 0 0 0 0 0 0 0 0 0 0 "/>
</feComponentTransfer>
<feComposite operator="in" in2="shape" in="coloredNoise1" result="noise1Clipped" />
<feFlood flood-color="rgba(0, 0, 0, 0.25)" result="color1Flood" />
<feComposite operator="in" in2="noise1Clipped" in="color1Flood" result="color1" />
<feMerge result="effect1_noise_615_4658">
<feMergeNode in="shape" />
<feMergeNode in="color1" />
</feMerge>
</filter>
<filter id="filter3_n_615_4658" x="96.7689" y="0" width="143.825" height="233.475" filterUnits="userSpaceOnUse" color-interpolation-filters="sRGB">
<feFlood flood-opacity="0" result="BackgroundImageFix"/>
<feBlend mode="normal" in="SourceGraphic" in2="BackgroundImageFix" result="shape"/>
<feTurbulence type="fractalNoise" baseFrequency="6.9474935531616211 6.9474935531616211" stitchTiles="stitch" numOctaves="3" result="noise" seed="7129" />
<feColorMatrix in="noise" type="luminanceToAlpha" result="alphaNoise" />
<feComponentTransfer in="alphaNoise" result="coloredNoise1">
<feFuncA type="discrete" tableValues="1 1 1 1 1 1 1 1 1 1 1 1 1 1 1 1 1 1 1 1 1 1 1 1 1 1 1 1 1 1 1 1 1 1 1 1 1 1 1 1 1 1 1 1 1 1 1 1 1 1 1 0 0 0 0 0 0 0 0 0 0 0 0 0 0 0 0 0 0 0 0 0 0 0 0 0 0 0 0 0 0 0 0 0 0 0 0 0 0 0 0 0 0 0 0 0 0 0 0 0 "/>
</feComponentTransfer>
<feComposite operator="in" in2="shape" in="coloredNoise1" result="noise1Clipped" />
<feFlood flood-color="rgba(0, 0, 0, 0.25)" result="color1Flood" />
<feComposite operator="in" in2="noise1Clipped" in="color1Flood" result="color1" />
<feMerge result="effect1_noise_615_4658">
<feMergeNode in="shape" />
<feMergeNode in="color1" />
</feMerge>
</filter>
<filter id="filter4_n_615_4658" x="20.33" y="102.113" width="143.825" height="233.475" filterUnits="userSpaceOnUse" color-interpolation-filters="sRGB">
<feFlood flood-opacity="0" result="BackgroundImageFix"/>
<feBlend mode="normal" in="SourceGraphic" in2="BackgroundImageFix" result="shape"/>
<feTurbulence type="fractalNoise" baseFrequency="6.9474935531616211 6.9474935531616211" stitchTiles="stitch" numOctaves="3" result="noise" seed="7129" />
<feColorMatrix in="noise" type="luminanceToAlpha" result="alphaNoise" />
<feComponentTransfer in="alphaNoise" result="coloredNoise1">
<feFuncA type="discrete" tableValues="1 1 1 1 1 1 1 1 1 1 1 1 1 1 1 1 1 1 1 1 1 1 1 1 1 1 1 1 1 1 1 1 1 1 1 1 1 1 1 1 1 1 1 1 1 1 1 1 1 1 1 0 0 0 0 0 0 0 0 0 0 0 0 0 0 0 0 0 0 0 0 0 0 0 0 0 0 0 0 0 0 0 0 0 0 0 0 0 0 0 0 0 0 0 0 0 0 0 0 0 "/>
</feComponentTransfer>
<feComposite operator="in" in2="shape" in="coloredNoise1" result="noise1Clipped" />
<feFlood flood-color="rgba(0, 0, 0, 0.25)" result="color1Flood" />
<feComposite operator="in" in2="noise1Clipped" in="color1Flood" result="color1" />
<feMerge result="effect1_noise_615_4658">
<feMergeNode in="shape" />
<feMergeNode in="color1" />
</feMerge>
</filter>
<filter id="filter5_n_615_4658" x="119.882" y="38.7687" width="145.081" height="190.524" filterUnits="userSpaceOnUse" color-interpolation-filters="sRGB">
<feFlood flood-opacity="0" result="BackgroundImageFix"/>
<feBlend mode="normal" in="SourceGraphic" in2="BackgroundImageFix" result="shape"/>
<feTurbulence type="fractalNoise" baseFrequency="6.9474935531616211 6.9474935531616211" stitchTiles="stitch" numOctaves="3" result="noise" seed="7129" />
<feColorMatrix in="noise" type="luminanceToAlpha" result="alphaNoise" />
<feComponentTransfer in="alphaNoise" result="coloredNoise1">
<feFuncA type="discrete" tableValues="1 1 1 1 1 1 1 1 1 1 1 1 1 1 1 1 1 1 1 1 1 1 1 1 1 1 1 1 1 1 1 1 1 1 1 1 1 1 1 1 1 1 1 1 1 1 1 1 1 1 1 0 0 0 0 0 0 0 0 0 0 0 0 0 0 0 0 0 0 0 0 0 0 0 0 0 0 0 0 0 0 0 0 0 0 0 0 0 0 0 0 0 0 0 0 0 0 0 0 0 "/>
</feComponentTransfer>
<feComposite operator="in" in2="shape" in="coloredNoise1" result="noise1Clipped" />
<feFlood flood-color="rgba(0, 0, 0, 0.25)" result="color1Flood" />
<feComposite operator="in" in2="noise1Clipped" in="color1Flood" result="color1" />
<feMerge result="effect1_noise_615_4658">
<feMergeNode in="shape" />
<feMergeNode in="color1" />
</feMerge>
</filter>
<filter id="filter6_n_615_4658" x="80.768" y="110.444" width="147.66" height="235.528" filterUnits="userSpaceOnUse" color-interpolation-filters="sRGB">
<feFlood flood-opacity="0" result="BackgroundImageFix"/>
<feBlend mode="normal" in="SourceGraphic" in2="BackgroundImageFix" result="shape"/>
<feTurbulence type="fractalNoise" baseFrequency="6.9474935531616211 6.9474935531616211" stitchTiles="stitch" numOctaves="3" result="noise" seed="7129" />
<feColorMatrix in="noise" type="luminanceToAlpha" result="alphaNoise" />
<feComponentTransfer in="alphaNoise" result="coloredNoise1">
<feFuncA type="discrete" tableValues="1 1 1 1 1 1 1 1 1 1 1 1 1 1 1 1 1 1 1 1 1 1 1 1 1 1 1 1 1 1 1 1 1 1 1 1 1 1 1 1 1 1 1 1 1 1 1 1 1 1 1 0 0 0 0 0 0 0 0 0 0 0 0 0 0 0 0 0 0 0 0 0 0 0 0 0 0 0 0 0 0 0 0 0 0 0 0 0 0 0 0 0 0 0 0 0 0 0 0 0 "/>
</feComponentTransfer>
<feComposite operator="in" in2="shape" in="coloredNoise1" result="noise1Clipped" />
<feFlood flood-color="rgba(0, 0, 0, 0.25)" result="color1Flood" />
<feComposite operator="in" in2="noise1Clipped" in="color1Flood" result="color1" />
<feMerge result="effect1_noise_615_4658">
<feMergeNode in="shape" />
<feMergeNode in="color1" />
</feMerge>
</filter>
<filter id="filter7_n_615_4658" x="84.228" y="128.472" width="147.66" height="235.528" filterUnits="userSpaceOnUse" color-interpolation-filters="sRGB">
<feFlood flood-opacity="0" result="BackgroundImageFix"/>
<feBlend mode="normal" in="SourceGraphic" in2="BackgroundImageFix" result="shape"/>
<feTurbulence type="fractalNoise" baseFrequency="6.9474935531616211 6.9474935531616211" stitchTiles="stitch" numOctaves="3" result="noise" seed="7129" />
<feColorMatrix in="noise" type="luminanceToAlpha" result="alphaNoise" />
<feComponentTransfer in="alphaNoise" result="coloredNoise1">
<feFuncA type="discrete" tableValues="1 1 1 1 1 1 1 1 1 1 1 1 1 1 1 1 1 1 1 1 1 1 1 1 1 1 1 1 1 1 1 1 1 1 1 1 1 1 1 1 1 1 1 1 1 1 1 1 1 1 1 0 0 0 0 0 0 0 0 0 0 0 0 0 0 0 0 0 0 0 0 0 0 0 0 0 0 0 0 0 0 0 0 0 0 0 0 0 0 0 0 0 0 0 0 0 0 0 0 0 "/>
</feComponentTransfer>
<feComposite operator="in" in2="shape" in="coloredNoise1" result="noise1Clipped" />
<feFlood flood-color="rgba(0, 0, 0, 0.25)" result="color1Flood" />
<feComposite operator="in" in2="noise1Clipped" in="color1Flood" result="color1" />
<feMerge result="effect1_noise_615_4658">
<feMergeNode in="shape" />
<feMergeNode in="color1" />
</feMerge>
</filter>
<linearGradient id="paint0_linear_615_4658" x1="95.7931" y1="49.4413" x2="124.35" y2="200.014" gradientUnits="userSpaceOnUse">
<stop stop-color="#869E91"/>
<stop offset="1" stop-color="#07534C"/>
</linearGradient>
<linearGradient id="paint1_linear_615_4658" x1="103.293" y1="45.9798" x2="185.358" y2="100.065" gradientUnits="userSpaceOnUse">
<stop stop-color="#B46510"/>
<stop offset="1" stop-opacity="0"/>
</linearGradient>
<linearGradient id="paint2_linear_615_4658" x1="54.2563" y1="82.4693" x2="82.8133" y2="233.042" gradientUnits="userSpaceOnUse">
<stop stop-color="#2A5751"/>
<stop offset="1" stop-color="#07534C"/>
</linearGradient>
<linearGradient id="paint3_linear_615_4658" x1="61.7561" y1="79.0078" x2="143.821" y2="133.093" gradientUnits="userSpaceOnUse">
<stop stop-color="#B46510"/>
<stop offset="1" stop-opacity="0"/>
</linearGradient>
<linearGradient id="paint4_linear_615_4658" x1="53.9667" y1="115.641" x2="82.5237" y2="266.214" gradientUnits="userSpaceOnUse">
<stop stop-color="#347571"/>
<stop offset="1" stop-color="#07534C"/>
</linearGradient>
<linearGradient id="paint5_linear_615_4658" x1="61.4665" y1="112.18" x2="143.532" y2="166.265" gradientUnits="userSpaceOnUse">
<stop stop-color="#B46510"/>
<stop offset="1" stop-opacity="0"/>
</linearGradient>
<linearGradient id="paint6_linear_615_4658" x1="161.558" y1="44.8261" x2="190.115" y2="195.399" gradientUnits="userSpaceOnUse">
<stop stop-color="#37CFC1"/>
<stop offset="1" stop-color="#07534C"/>
</linearGradient>
<linearGradient id="paint7_linear_615_4658" x1="169.058" y1="41.3646" x2="251.123" y2="95.4497" gradientUnits="userSpaceOnUse">
<stop stop-color="#B46510"/>
<stop offset="1" stop-opacity="0"/>
</linearGradient>
<linearGradient id="paint8_linear_615_4658" x1="85.1193" y1="146.939" x2="113.676" y2="297.512" gradientUnits="userSpaceOnUse">
<stop stop-color="#37CFC1"/>
<stop offset="1" stop-color="#07534C"/>
</linearGradient>
<linearGradient id="paint9_linear_615_4658" x1="92.619" y1="143.477" x2="174.684" y2="197.562" gradientUnits="userSpaceOnUse">
<stop stop-color="#B46510"/>
<stop offset="1" stop-opacity="0"/>
</linearGradient>
<linearGradient id="paint10_linear_615_4658" x1="183.194" y1="73.6716" x2="211.751" y2="224.245" gradientUnits="userSpaceOnUse">
<stop stop-color="#218980"/>
<stop offset="1" stop-color="#07534C"/>
</linearGradient>
<linearGradient id="paint11_linear_615_4658" x1="190.694" y1="70.2102" x2="272.759" y2="124.295" gradientUnits="userSpaceOnUse">
<stop stop-color="#B46510"/>
<stop offset="1" stop-opacity="0"/>
</linearGradient>
<linearGradient id="paint12_linear_615_4658" x1="134.735" y1="157.323" x2="163.292" y2="307.896" gradientUnits="userSpaceOnUse">
<stop stop-color="#347571"/>
<stop offset="1" stop-color="#07534C"/>
</linearGradient>
<linearGradient id="paint13_linear_615_4658" x1="142.234" y1="153.862" x2="224.3" y2="207.947" gradientUnits="userSpaceOnUse">
<stop stop-color="#B46510"/>
<stop offset="1" stop-opacity="0"/>
</linearGradient>
<linearGradient id="paint14_linear_615_4658" x1="138.195" y1="175.351" x2="166.752" y2="325.924" gradientUnits="userSpaceOnUse">
<stop stop-color="#2A5751"/>
<stop offset="1" stop-color="#07534C"/>
</linearGradient>
<linearGradient id="paint15_linear_615_4658" x1="145.695" y1="171.89" x2="227.76" y2="225.975" gradientUnits="userSpaceOnUse">
<stop stop-color="#B46510"/>
<stop offset="1" stop-opacity="0"/>
</linearGradient>
</defs>
</svg>
