<svg width="71" height="76" viewBox="0 0 71 76" fill="none" xmlns="http://www.w3.org/2000/svg">
<path d="M0 0H32.1744V24.5263H14.1738V27.093H32.1744V35.6486H0V18.2521H18.0007V8.55566H14.1738V15.6854H0V0ZM38.8243 0H70.9987V35.6486H38.8243V0ZM52.998 27.093H56.8249V8.55566H52.998V27.093ZM0 40.0057H32.1744V64.5319H14.1738V67.0987H32.1744V75.6543H0V58.2578H18.0007V48.5614H14.1738V55.6911H0V40.0057ZM38.8243 40.0057H70.9987V48.5614H52.998V51.1281H70.9987V75.6543H38.8243V40.0057ZM56.8249 67.0987V57.4022H52.998V67.0987H56.8249Z" fill="#DC812E"/>
</svg>
