<svg width="81" height="63" viewBox="0 0 81 63" fill="none" xmlns="http://www.w3.org/2000/svg">
<path d="M31.2183 63H0V34.5346C0 24.7319 7.72243 19.6421 12.8159 19.6421H31.2183V63ZM18.731 29.2562C14.3752 29.2562 10.8443 33.3074 10.8443 38.3049C10.8443 43.3023 14.3752 47.3535 18.731 47.3535C23.0868 47.3535 26.6177 43.3023 26.6177 38.3049C26.6177 33.3074 23.0868 29.2562 18.731 29.2562ZM20.867 1.5449C20.867 0.036795 22.5101 -0.0887544 23.3316 0.036795H53.7284C61.4837 3.20381 63.7511 10.028 63.9154 13.0442H20.867V1.5449Z" fill="#472C23"/>
<path d="M67.6953 33.7805C67.8268 28.0497 70.3791 24.7319 71.6387 23.7893C77.8166 27.1071 79.9089 34.8486 80.1826 38.3048C77.2908 36.3442 70.6528 34.4716 67.6953 33.7805Z" fill="#D45800"/>
<path d="M19.0591 42.075C20.6925 42.075 22.0166 40.5558 22.0166 38.6818C22.0166 36.8078 20.6925 35.2886 19.0591 35.2886C17.4257 35.2886 16.1016 36.8078 16.1016 38.6818C16.1016 40.5558 17.4257 42.075 19.0591 42.075Z" fill="#472C23"/>
<path d="M36.9688 31.8949V19.6416H57.6714C61.089 19.6416 64.5723 20.3957 65.8868 20.7727C63.3893 23.6381 62.1077 29.8842 61.7791 32.649C55.0754 30.236 42.4458 31.1409 36.9688 31.8949Z" fill="#FFAA00"/>
<path d="M36.8047 54.3287V39.2477C52.3153 35.6283 69.4469 40.7558 76.0741 43.772C59.249 43.9228 42.884 50.8725 36.8047 54.3287Z" fill="#FFCF6E"/>
</svg>
