<svg width="919" height="1262" viewBox="0 0 919 1262" fill="none" xmlns="http://www.w3.org/2000/svg">
<g filter="url(#filter0_n_488_9583)">
<path d="M508.853 169.378L454.624 48.2659C446.504 30.1317 423.923 23.8086 407.567 35.0889C399.915 40.3659 394.957 48.7275 393.997 57.9725L318.399 785.951C316.316 806.011 332.051 823.466 352.22 823.466H733.759C764.033 823.466 778.823 786.533 756.916 765.637C754.02 762.875 751.642 759.617 749.894 756.018L669.659 590.829C668.248 587.922 667.257 584.83 666.718 581.644L617.003 287.739C616.686 285.865 616.527 283.968 616.527 282.068V250.542C616.527 237.348 608.894 225.344 596.945 219.749L525.466 186.276C518.082 182.818 512.186 176.821 508.853 169.378Z" fill="url(#paint0_linear_488_9583)"/>
<path d="M508.853 169.378L454.624 48.2659C446.504 30.1317 423.923 23.8086 407.567 35.0889C399.915 40.3659 394.957 48.7275 393.997 57.9725L318.399 785.951C316.316 806.011 332.051 823.466 352.22 823.466H733.759C764.033 823.466 778.823 786.533 756.916 765.637C754.02 762.875 751.642 759.617 749.894 756.018L669.659 590.829C668.248 587.922 667.257 584.83 666.718 581.644L617.003 287.739C616.686 285.865 616.527 283.968 616.527 282.068V250.542C616.527 237.348 608.894 225.344 596.945 219.749L525.466 186.276C518.082 182.818 512.186 176.821 508.853 169.378Z" fill="url(#paint1_linear_488_9583)" fill-opacity="0.2"/>
<path d="M508.853 169.378L454.624 48.2659C446.504 30.1317 423.923 23.8086 407.567 35.0889C399.915 40.3659 394.957 48.7275 393.997 57.9725L318.399 785.951C316.316 806.011 332.051 823.466 352.22 823.466H733.759C764.033 823.466 778.823 786.533 756.916 765.637C754.02 762.875 751.642 759.617 749.894 756.018L669.659 590.829C668.248 587.922 667.257 584.83 666.718 581.644L617.003 287.739C616.686 285.865 616.527 283.968 616.527 282.068V250.542C616.527 237.348 608.894 225.344 596.945 219.749L525.466 186.276C518.082 182.818 512.186 176.821 508.853 169.378Z" stroke="#87ACA1" stroke-width="4"/>
</g>
<g filter="url(#filter1_n_488_9583)">
<path d="M573.524 432.435L538.521 305.425L485.009 168.97C480.942 158.598 472.052 150.877 461.213 148.302L412.308 136.684C397.849 133.249 382.835 139.602 375.232 152.372L217.956 416.544C212.057 426.453 211.581 438.676 216.693 449.012L449.153 919.046C454.886 930.638 466.699 937.975 479.632 937.975H862.728L876.114 955.253C878.793 958.711 883.304 960.194 887.512 958.999C899.476 955.602 897.022 937.975 884.585 937.975H862.728L770.477 818.893C761.307 807.056 745.473 802.611 731.482 807.945L711.024 815.746C696.13 821.425 679.291 815.996 670.519 802.687L617.251 721.866C614.47 717.647 612.664 712.86 611.966 707.855L573.524 432.435Z" fill="url(#paint2_linear_488_9583)"/>
<path d="M573.524 432.435L538.521 305.425L485.009 168.97C480.942 158.598 472.052 150.877 461.213 148.302L412.308 136.684C397.849 133.249 382.835 139.602 375.232 152.372L217.956 416.544C212.057 426.453 211.581 438.676 216.693 449.012L449.153 919.046C454.886 930.638 466.699 937.975 479.632 937.975H862.728L876.114 955.253C878.793 958.711 883.304 960.194 887.512 958.999C899.476 955.602 897.022 937.975 884.585 937.975H862.728L770.477 818.893C761.307 807.056 745.473 802.611 731.482 807.945L711.024 815.746C696.13 821.425 679.291 815.996 670.519 802.687L617.251 721.866C614.47 717.647 612.664 712.86 611.966 707.855L573.524 432.435Z" fill="url(#paint3_linear_488_9583)" fill-opacity="0.2"/>
<path d="M573.524 432.435L538.521 305.425L485.009 168.97C480.942 158.598 472.052 150.877 461.213 148.302L412.308 136.684C397.849 133.249 382.835 139.602 375.232 152.372L217.956 416.544C212.057 426.453 211.581 438.676 216.693 449.012L449.153 919.046C454.886 930.638 466.699 937.975 479.632 937.975H862.728L876.114 955.253C878.793 958.711 883.304 960.194 887.512 958.999C899.476 955.602 897.022 937.975 884.585 937.975H862.728L770.477 818.893C761.307 807.056 745.473 802.611 731.482 807.945L711.024 815.746C696.13 821.425 679.291 815.996 670.519 802.687L617.251 721.866C614.47 717.647 612.664 712.86 611.966 707.855L573.524 432.435Z" stroke="#87ACA1" stroke-width="4"/>
</g>
<g filter="url(#filter2_n_488_9583)">
<path d="M698.533 522.442L640.334 329.513C637.023 318.538 628.404 309.969 617.41 306.723L512.276 275.68C509.45 274.845 506.744 273.646 504.226 272.114L460.386 245.429C436.871 231.115 406.981 249.221 408.777 276.692L457.437 1021.2C458.606 1039.08 473.449 1052.98 491.367 1052.98H885.867C913.577 1052.98 927.114 1019.18 907.062 1000.05C900.987 994.258 897.549 986.228 897.549 977.832V837.522C897.549 832.868 896.594 828.263 894.742 823.993L817.344 645.522C814.238 638.36 808.762 632.485 801.836 628.883L736.254 594.781C729.017 591.018 723.374 584.778 720.354 577.201L698.533 522.442Z" fill="url(#paint4_linear_488_9583)"/>
<path d="M698.533 522.442L640.334 329.513C637.023 318.538 628.404 309.969 617.41 306.723L512.276 275.68C509.45 274.845 506.744 273.646 504.226 272.114L460.386 245.429C436.871 231.115 406.981 249.221 408.777 276.692L457.437 1021.2C458.606 1039.08 473.449 1052.98 491.367 1052.98H885.867C913.577 1052.98 927.114 1019.18 907.062 1000.05C900.987 994.258 897.549 986.228 897.549 977.832V837.522C897.549 832.868 896.594 828.263 894.742 823.993L817.344 645.522C814.238 638.36 808.762 632.485 801.836 628.883L736.254 594.781C729.017 591.018 723.374 584.778 720.354 577.201L698.533 522.442Z" fill="url(#paint5_linear_488_9583)" fill-opacity="0.2"/>
<path d="M698.533 522.442L640.334 329.513C637.023 318.538 628.404 309.969 617.41 306.723L512.276 275.68C509.45 274.845 506.744 273.646 504.226 272.114L460.386 245.429C436.871 231.115 406.981 249.221 408.777 276.692L457.437 1021.2C458.606 1039.08 473.449 1052.98 491.367 1052.98H885.867C913.577 1052.98 927.114 1019.18 907.062 1000.05C900.987 994.258 897.549 986.228 897.549 977.832V837.522C897.549 832.868 896.594 828.263 894.742 823.993L817.344 645.522C814.238 638.36 808.762 632.485 801.836 628.883L736.254 594.781C729.017 591.018 723.374 584.778 720.354 577.201L698.533 522.442Z" stroke="#87ACA1" stroke-width="4"/>
</g>
<g filter="url(#filter3_n_488_9583)">
<path d="M298.068 84.4733L225.554 11.96C216.605 3.01028 203.425 -0.227866 191.347 3.55564L110.324 28.9363C96.1396 33.3795 86.4853 46.5206 86.4853 61.3842V773.462C86.4853 792.241 101.709 807.464 120.488 807.464H547.115C568.875 807.464 585.035 787.308 580.304 766.069L521.969 504.182C520.075 495.679 514.99 488.228 507.764 483.365L449.564 444.199C443.064 439.825 438.273 433.339 436.003 425.84L389.359 271.731C388.793 269.862 388.39 267.947 388.153 266.009L373.518 146.352C372.249 135.974 366.276 126.757 357.322 121.36L304.556 89.5503C302.196 88.1272 300.017 86.4224 298.068 84.4733Z" fill="url(#paint6_linear_488_9583)"/>
<path d="M298.068 84.4733L225.554 11.96C216.605 3.01028 203.425 -0.227866 191.347 3.55564L110.324 28.9363C96.1396 33.3795 86.4853 46.5206 86.4853 61.3842V773.462C86.4853 792.241 101.709 807.464 120.488 807.464H547.115C568.875 807.464 585.035 787.308 580.304 766.069L521.969 504.182C520.075 495.679 514.99 488.228 507.764 483.365L449.564 444.199C443.064 439.825 438.273 433.339 436.003 425.84L389.359 271.731C388.793 269.862 388.39 267.947 388.153 266.009L373.518 146.352C372.249 135.974 366.276 126.757 357.322 121.36L304.556 89.5503C302.196 88.1272 300.017 86.4224 298.068 84.4733Z" fill="url(#paint7_linear_488_9583)" fill-opacity="0.2"/>
<path d="M298.068 84.4733L225.554 11.96C216.605 3.01028 203.425 -0.227866 191.347 3.55564L110.324 28.9363C96.1396 33.3795 86.4853 46.5206 86.4853 61.3842V773.462C86.4853 792.241 101.709 807.464 120.488 807.464H547.115C568.875 807.464 585.035 787.308 580.304 766.069L521.969 504.182C520.075 495.679 514.99 488.228 507.764 483.365L449.564 444.199C443.064 439.825 438.273 433.339 436.003 425.84L389.359 271.731C388.793 269.862 388.39 267.947 388.153 266.009L373.518 146.352C372.249 135.974 366.276 126.757 357.322 121.36L304.556 89.5503C302.196 88.1272 300.017 86.4224 298.068 84.4733Z" stroke="#87ACA1" stroke-width="4"/>
</g>
<g filter="url(#filter4_n_488_9583)">
<path d="M563.089 438.501L490.575 365.988C481.626 357.038 468.445 353.8 456.367 357.583L375.344 382.964C361.16 387.407 351.506 400.548 351.506 415.412V1127.49C351.506 1146.27 366.73 1161.49 385.509 1161.49H812.136C833.896 1161.49 850.056 1141.34 845.325 1120.1L786.99 858.21C785.096 849.707 780.011 842.256 772.785 837.393L714.585 798.227C708.084 793.852 703.294 787.367 701.024 779.867L654.38 625.759C653.814 623.89 653.411 621.975 653.174 620.036L638.539 500.38C637.27 490.002 631.297 480.785 622.343 475.387L569.577 443.578C567.216 442.155 565.038 440.45 563.089 438.501Z" fill="url(#paint8_linear_488_9583)"/>
<path d="M563.089 438.501L490.575 365.988C481.626 357.038 468.445 353.8 456.367 357.583L375.344 382.964C361.16 387.407 351.506 400.548 351.506 415.412V1127.49C351.506 1146.27 366.73 1161.49 385.509 1161.49H812.136C833.896 1161.49 850.056 1141.34 845.325 1120.1L786.99 858.21C785.096 849.707 780.011 842.256 772.785 837.393L714.585 798.227C708.084 793.852 703.294 787.367 701.024 779.867L654.38 625.759C653.814 623.89 653.411 621.975 653.174 620.036L638.539 500.38C637.27 490.002 631.297 480.785 622.343 475.387L569.577 443.578C567.216 442.155 565.038 440.45 563.089 438.501Z" fill="url(#paint9_linear_488_9583)" fill-opacity="0.2"/>
<path d="M563.089 438.501L490.575 365.988C481.626 357.038 468.445 353.8 456.367 357.583L375.344 382.964C361.16 387.407 351.506 400.548 351.506 415.412V1127.49C351.506 1146.27 366.73 1161.49 385.509 1161.49H812.136C833.896 1161.49 850.056 1141.34 845.325 1120.1L786.99 858.21C785.096 849.707 780.011 842.256 772.785 837.393L714.585 798.227C708.084 793.852 703.294 787.367 701.024 779.867L654.38 625.759C653.814 623.89 653.411 621.975 653.174 620.036L638.539 500.38C637.27 490.002 631.297 480.785 622.343 475.387L569.577 443.578C567.216 442.155 565.038 440.45 563.089 438.501Z" stroke="#87ACA1" stroke-width="4"/>
</g>
<g filter="url(#filter5_n_488_9583)">
<path d="M249.622 164.336L228.731 145.288C222.468 139.577 214.297 136.412 205.821 136.412H44.9681C26.3909 136.412 11.2523 151.321 10.9694 169.896L2.00446 758.443C1.71534 777.422 17.0215 792.963 36.0032 792.963H466.975C489.705 792.963 506.035 771.09 499.575 749.297L424.648 496.519C422.609 489.642 418.448 483.586 412.76 479.217L396.437 466.678C390.333 461.99 386 455.369 384.147 447.899L327.236 218.463C324.865 208.906 318.467 200.845 309.697 196.367L257.068 169.492C254.367 168.113 251.863 166.379 249.622 164.336Z" fill="url(#paint10_linear_488_9583)"/>
<path d="M249.622 164.336L228.731 145.288C222.468 139.577 214.297 136.412 205.821 136.412H44.9681C26.3909 136.412 11.2523 151.321 10.9694 169.896L2.00446 758.443C1.71534 777.422 17.0215 792.963 36.0032 792.963H466.975C489.705 792.963 506.035 771.09 499.575 749.297L424.648 496.519C422.609 489.642 418.448 483.586 412.76 479.217L396.437 466.678C390.333 461.99 386 455.369 384.147 447.899L327.236 218.463C324.865 208.906 318.467 200.845 309.697 196.367L257.068 169.492C254.367 168.113 251.863 166.379 249.622 164.336Z" fill="url(#paint11_linear_488_9583)" fill-opacity="0.2"/>
<path d="M249.622 164.336L228.731 145.288C222.468 139.577 214.297 136.412 205.821 136.412H44.9681C26.3909 136.412 11.2523 151.321 10.9694 169.896L2.00446 758.443C1.71534 777.422 17.0215 792.963 36.0032 792.963H466.975C489.705 792.963 506.035 771.09 499.575 749.297L424.648 496.519C422.609 489.642 418.448 483.586 412.76 479.217L396.437 466.678C390.333 461.99 386 455.369 384.147 447.899L327.236 218.463C324.865 208.906 318.467 200.845 309.697 196.367L257.068 169.492C254.367 168.113 251.863 166.379 249.622 164.336Z" stroke="#87ACA1" stroke-width="4"/>
</g>
<g filter="url(#filter6_n_488_9583)">
<path d="M418.511 666.953L360.312 474.025C357.001 463.049 348.382 454.481 337.388 451.234L232.254 420.191C229.428 419.356 226.722 418.158 224.204 416.625L180.364 389.94C156.849 375.626 126.959 393.732 128.755 421.203L177.415 1165.71C178.584 1183.59 193.427 1197.49 211.345 1197.49H605.845C633.555 1197.49 647.092 1163.69 627.04 1144.56C620.965 1138.77 617.527 1130.74 617.527 1122.34V982.033C617.527 977.379 616.572 972.774 614.72 968.504L537.322 790.034C534.216 782.871 528.74 776.996 521.814 773.395L456.232 739.292C448.995 735.529 443.352 729.289 440.332 721.712L418.511 666.953Z" fill="url(#paint12_linear_488_9583)"/>
<path d="M418.511 666.953L360.312 474.025C357.001 463.049 348.382 454.481 337.388 451.234L232.254 420.191C229.428 419.356 226.722 418.158 224.204 416.625L180.364 389.94C156.849 375.626 126.959 393.732 128.755 421.203L177.415 1165.71C178.584 1183.59 193.427 1197.49 211.345 1197.49H605.845C633.555 1197.49 647.092 1163.69 627.04 1144.56C620.965 1138.77 617.527 1130.74 617.527 1122.34V982.033C617.527 977.379 616.572 972.774 614.72 968.504L537.322 790.034C534.216 782.871 528.74 776.996 521.814 773.395L456.232 739.292C448.995 735.529 443.352 729.289 440.332 721.712L418.511 666.953Z" fill="url(#paint13_linear_488_9583)" fill-opacity="0.2"/>
<path d="M418.511 666.953L360.312 474.025C357.001 463.049 348.382 454.481 337.388 451.234L232.254 420.191C229.428 419.356 226.722 418.158 224.204 416.625L180.364 389.94C156.849 375.626 126.959 393.732 128.755 421.203L177.415 1165.71C178.584 1183.59 193.427 1197.49 211.345 1197.49H605.845C633.555 1197.49 647.092 1163.69 627.04 1144.56C620.965 1138.77 617.527 1130.74 617.527 1122.34V982.033C617.527 977.379 616.572 972.774 614.72 968.504L537.322 790.034C534.216 782.871 528.74 776.996 521.814 773.395L456.232 739.292C448.995 735.529 443.352 729.289 440.332 721.712L418.511 666.953Z" stroke="#87ACA1" stroke-width="4"/>
</g>
<g filter="url(#filter7_n_488_9583)">
<path d="M406.51 729.458L348.311 536.53C345 525.554 336.381 516.986 325.387 513.739L220.253 482.696C217.427 481.861 214.721 480.663 212.203 479.13L168.364 452.445C144.848 438.131 114.958 456.237 116.754 483.708L165.414 1228.21C166.583 1246.09 181.426 1260 199.344 1260H593.844C621.554 1260 635.091 1226.2 615.039 1207.07C608.964 1201.27 605.526 1193.24 605.526 1184.85V1044.54C605.526 1039.88 604.571 1035.28 602.719 1031.01L525.321 852.539C522.215 845.376 516.739 839.501 509.813 835.899L444.231 801.797C436.994 798.034 431.351 791.794 428.332 784.217L406.51 729.458Z" fill="url(#paint14_linear_488_9583)"/>
<path d="M406.51 729.458L348.311 536.53C345 525.554 336.381 516.986 325.387 513.739L220.253 482.696C217.427 481.861 214.721 480.663 212.203 479.13L168.364 452.445C144.848 438.131 114.958 456.237 116.754 483.708L165.414 1228.21C166.583 1246.09 181.426 1260 199.344 1260H593.844C621.554 1260 635.091 1226.2 615.039 1207.07C608.964 1201.27 605.526 1193.24 605.526 1184.85V1044.54C605.526 1039.88 604.571 1035.28 602.719 1031.01L525.321 852.539C522.215 845.376 516.739 839.501 509.813 835.899L444.231 801.797C436.994 798.034 431.351 791.794 428.332 784.217L406.51 729.458Z" fill="url(#paint15_linear_488_9583)" fill-opacity="0.2"/>
<path d="M406.51 729.458L348.311 536.53C345 525.554 336.381 516.986 325.387 513.739L220.253 482.696C217.427 481.861 214.721 480.663 212.203 479.13L168.364 452.445C144.848 438.131 114.958 456.237 116.754 483.708L165.414 1228.21C166.583 1246.09 181.426 1260 199.344 1260H593.844C621.554 1260 635.091 1226.2 615.039 1207.07C608.964 1201.27 605.526 1193.24 605.526 1184.85V1044.54C605.526 1039.88 604.571 1035.28 602.719 1031.01L525.321 852.539C522.215 845.376 516.739 839.501 509.813 835.899L444.231 801.797C436.994 798.034 431.351 791.794 428.332 784.217L406.51 729.458Z" stroke="#87ACA1" stroke-width="4"/>
</g>
<defs>
<filter id="filter0_n_488_9583" x="316.212" y="27.4592" width="453.168" height="798.007" filterUnits="userSpaceOnUse" color-interpolation-filters="sRGB">
<feFlood flood-opacity="0" result="BackgroundImageFix"/>
<feBlend mode="normal" in="SourceGraphic" in2="BackgroundImageFix" result="shape"/>
<feTurbulence type="fractalNoise" baseFrequency="2 2" stitchTiles="stitch" numOctaves="3" result="noise" seed="7129" />
<feColorMatrix in="noise" type="luminanceToAlpha" result="alphaNoise" />
<feComponentTransfer in="alphaNoise" result="coloredNoise1">
<feFuncA type="discrete" tableValues="1 1 1 1 1 1 1 1 1 1 1 1 1 1 1 1 1 1 1 1 1 1 1 1 1 1 1 1 1 1 1 1 1 1 1 1 1 1 1 1 1 1 1 1 1 1 1 1 1 1 1 0 0 0 0 0 0 0 0 0 0 0 0 0 0 0 0 0 0 0 0 0 0 0 0 0 0 0 0 0 0 0 0 0 0 0 0 0 0 0 0 0 0 0 0 0 0 0 0 0 "/>
</feComponentTransfer>
<feComposite operator="in" in2="shape" in="coloredNoise1" result="noise1Clipped" />
<feFlood flood-color="rgba(0, 0, 0, 0.25)" result="color1Flood" />
<feComposite operator="in" in2="noise1Clipped" in="color1Flood" result="color1" />
<feMerge result="effect1_noise_488_9583">
<feMergeNode in="shape" />
<feMergeNode in="color1" />
</feMerge>
</filter>
<filter id="filter1_n_488_9583" x="211.169" y="133.761" width="686.142" height="827.647" filterUnits="userSpaceOnUse" color-interpolation-filters="sRGB">
<feFlood flood-opacity="0" result="BackgroundImageFix"/>
<feBlend mode="normal" in="SourceGraphic" in2="BackgroundImageFix" result="shape"/>
<feTurbulence type="fractalNoise" baseFrequency="2 2" stitchTiles="stitch" numOctaves="3" result="noise" seed="7129" />
<feColorMatrix in="noise" type="luminanceToAlpha" result="alphaNoise" />
<feComponentTransfer in="alphaNoise" result="coloredNoise1">
<feFuncA type="discrete" tableValues="1 1 1 1 1 1 1 1 1 1 1 1 1 1 1 1 1 1 1 1 1 1 1 1 1 1 1 1 1 1 1 1 1 1 1 1 1 1 1 1 1 1 1 1 1 1 1 1 1 1 1 0 0 0 0 0 0 0 0 0 0 0 0 0 0 0 0 0 0 0 0 0 0 0 0 0 0 0 0 0 0 0 0 0 0 0 0 0 0 0 0 0 0 0 0 0 0 0 0 0 "/>
</feComponentTransfer>
<feComposite operator="in" in2="shape" in="coloredNoise1" result="noise1Clipped" />
<feFlood flood-color="rgba(0, 0, 0, 0.25)" result="color1Flood" />
<feComposite operator="in" in2="noise1Clipped" in="color1Flood" result="color1" />
<feMerge result="effect1_noise_488_9583">
<feMergeNode in="shape" />
<feMergeNode in="color1" />
</feMerge>
</filter>
<filter id="filter2_n_488_9583" x="406.7" y="238.402" width="511.943" height="816.582" filterUnits="userSpaceOnUse" color-interpolation-filters="sRGB">
<feFlood flood-opacity="0" result="BackgroundImageFix"/>
<feBlend mode="normal" in="SourceGraphic" in2="BackgroundImageFix" result="shape"/>
<feTurbulence type="fractalNoise" baseFrequency="2 2" stitchTiles="stitch" numOctaves="3" result="noise" seed="7129" />
<feColorMatrix in="noise" type="luminanceToAlpha" result="alphaNoise" />
<feComponentTransfer in="alphaNoise" result="coloredNoise1">
<feFuncA type="discrete" tableValues="1 1 1 1 1 1 1 1 1 1 1 1 1 1 1 1 1 1 1 1 1 1 1 1 1 1 1 1 1 1 1 1 1 1 1 1 1 1 1 1 1 1 1 1 1 1 1 1 1 1 1 0 0 0 0 0 0 0 0 0 0 0 0 0 0 0 0 0 0 0 0 0 0 0 0 0 0 0 0 0 0 0 0 0 0 0 0 0 0 0 0 0 0 0 0 0 0 0 0 0 "/>
</feComponentTransfer>
<feComposite operator="in" in2="shape" in="coloredNoise1" result="noise1Clipped" />
<feFlood flood-color="rgba(0, 0, 0, 0.25)" result="color1Flood" />
<feComposite operator="in" in2="noise1Clipped" in="color1Flood" result="color1" />
<feMerge result="effect1_noise_488_9583">
<feMergeNode in="shape" />
<feMergeNode in="color1" />
</feMerge>
</filter>
<filter id="filter3_n_488_9583" x="84.4852" y="0" width="498.647" height="809.464" filterUnits="userSpaceOnUse" color-interpolation-filters="sRGB">
<feFlood flood-opacity="0" result="BackgroundImageFix"/>
<feBlend mode="normal" in="SourceGraphic" in2="BackgroundImageFix" result="shape"/>
<feTurbulence type="fractalNoise" baseFrequency="2 2" stitchTiles="stitch" numOctaves="3" result="noise" seed="7129" />
<feColorMatrix in="noise" type="luminanceToAlpha" result="alphaNoise" />
<feComponentTransfer in="alphaNoise" result="coloredNoise1">
<feFuncA type="discrete" tableValues="1 1 1 1 1 1 1 1 1 1 1 1 1 1 1 1 1 1 1 1 1 1 1 1 1 1 1 1 1 1 1 1 1 1 1 1 1 1 1 1 1 1 1 1 1 1 1 1 1 1 1 0 0 0 0 0 0 0 0 0 0 0 0 0 0 0 0 0 0 0 0 0 0 0 0 0 0 0 0 0 0 0 0 0 0 0 0 0 0 0 0 0 0 0 0 0 0 0 0 0 "/>
</feComponentTransfer>
<feComposite operator="in" in2="shape" in="coloredNoise1" result="noise1Clipped" />
<feFlood flood-color="rgba(0, 0, 0, 0.25)" result="color1Flood" />
<feComposite operator="in" in2="noise1Clipped" in="color1Flood" result="color1" />
<feMerge result="effect1_noise_488_9583">
<feMergeNode in="shape" />
<feMergeNode in="color1" />
</feMerge>
</filter>
<filter id="filter4_n_488_9583" x="349.506" y="354.028" width="498.647" height="809.464" filterUnits="userSpaceOnUse" color-interpolation-filters="sRGB">
<feFlood flood-opacity="0" result="BackgroundImageFix"/>
<feBlend mode="normal" in="SourceGraphic" in2="BackgroundImageFix" result="shape"/>
<feTurbulence type="fractalNoise" baseFrequency="2 2" stitchTiles="stitch" numOctaves="3" result="noise" seed="7129" />
<feColorMatrix in="noise" type="luminanceToAlpha" result="alphaNoise" />
<feComponentTransfer in="alphaNoise" result="coloredNoise1">
<feFuncA type="discrete" tableValues="1 1 1 1 1 1 1 1 1 1 1 1 1 1 1 1 1 1 1 1 1 1 1 1 1 1 1 1 1 1 1 1 1 1 1 1 1 1 1 1 1 1 1 1 1 1 1 1 1 1 1 0 0 0 0 0 0 0 0 0 0 0 0 0 0 0 0 0 0 0 0 0 0 0 0 0 0 0 0 0 0 0 0 0 0 0 0 0 0 0 0 0 0 0 0 0 0 0 0 0 "/>
</feComponentTransfer>
<feComposite operator="in" in2="shape" in="coloredNoise1" result="noise1Clipped" />
<feFlood flood-color="rgba(0, 0, 0, 0.25)" result="color1Flood" />
<feComposite operator="in" in2="noise1Clipped" in="color1Flood" result="color1" />
<feMerge result="effect1_noise_488_9583">
<feMergeNode in="shape" />
<feMergeNode in="color1" />
</feMerge>
</filter>
<filter id="filter5_n_488_9583" x="0" y="134.411" width="503" height="660.552" filterUnits="userSpaceOnUse" color-interpolation-filters="sRGB">
<feFlood flood-opacity="0" result="BackgroundImageFix"/>
<feBlend mode="normal" in="SourceGraphic" in2="BackgroundImageFix" result="shape"/>
<feTurbulence type="fractalNoise" baseFrequency="2 2" stitchTiles="stitch" numOctaves="3" result="noise" seed="7129" />
<feColorMatrix in="noise" type="luminanceToAlpha" result="alphaNoise" />
<feComponentTransfer in="alphaNoise" result="coloredNoise1">
<feFuncA type="discrete" tableValues="1 1 1 1 1 1 1 1 1 1 1 1 1 1 1 1 1 1 1 1 1 1 1 1 1 1 1 1 1 1 1 1 1 1 1 1 1 1 1 1 1 1 1 1 1 1 1 1 1 1 1 0 0 0 0 0 0 0 0 0 0 0 0 0 0 0 0 0 0 0 0 0 0 0 0 0 0 0 0 0 0 0 0 0 0 0 0 0 0 0 0 0 0 0 0 0 0 0 0 0 "/>
</feComponentTransfer>
<feComposite operator="in" in2="shape" in="coloredNoise1" result="noise1Clipped" />
<feFlood flood-color="rgba(0, 0, 0, 0.25)" result="color1Flood" />
<feComposite operator="in" in2="noise1Clipped" in="color1Flood" result="color1" />
<feMerge result="effect1_noise_488_9583">
<feMergeNode in="shape" />
<feMergeNode in="color1" />
</feMerge>
</filter>
<filter id="filter6_n_488_9583" x="126.678" y="382.913" width="511.943" height="816.582" filterUnits="userSpaceOnUse" color-interpolation-filters="sRGB">
<feFlood flood-opacity="0" result="BackgroundImageFix"/>
<feBlend mode="normal" in="SourceGraphic" in2="BackgroundImageFix" result="shape"/>
<feTurbulence type="fractalNoise" baseFrequency="2 2" stitchTiles="stitch" numOctaves="3" result="noise" seed="7129" />
<feColorMatrix in="noise" type="luminanceToAlpha" result="alphaNoise" />
<feComponentTransfer in="alphaNoise" result="coloredNoise1">
<feFuncA type="discrete" tableValues="1 1 1 1 1 1 1 1 1 1 1 1 1 1 1 1 1 1 1 1 1 1 1 1 1 1 1 1 1 1 1 1 1 1 1 1 1 1 1 1 1 1 1 1 1 1 1 1 1 1 1 0 0 0 0 0 0 0 0 0 0 0 0 0 0 0 0 0 0 0 0 0 0 0 0 0 0 0 0 0 0 0 0 0 0 0 0 0 0 0 0 0 0 0 0 0 0 0 0 0 "/>
</feComponentTransfer>
<feComposite operator="in" in2="shape" in="coloredNoise1" result="noise1Clipped" />
<feFlood flood-color="rgba(0, 0, 0, 0.25)" result="color1Flood" />
<feComposite operator="in" in2="noise1Clipped" in="color1Flood" result="color1" />
<feMerge result="effect1_noise_488_9583">
<feMergeNode in="shape" />
<feMergeNode in="color1" />
</feMerge>
</filter>
<filter id="filter7_n_488_9583" x="114.677" y="445.418" width="511.943" height="816.582" filterUnits="userSpaceOnUse" color-interpolation-filters="sRGB">
<feFlood flood-opacity="0" result="BackgroundImageFix"/>
<feBlend mode="normal" in="SourceGraphic" in2="BackgroundImageFix" result="shape"/>
<feTurbulence type="fractalNoise" baseFrequency="2 2" stitchTiles="stitch" numOctaves="3" result="noise" seed="7129" />
<feColorMatrix in="noise" type="luminanceToAlpha" result="alphaNoise" />
<feComponentTransfer in="alphaNoise" result="coloredNoise1">
<feFuncA type="discrete" tableValues="1 1 1 1 1 1 1 1 1 1 1 1 1 1 1 1 1 1 1 1 1 1 1 1 1 1 1 1 1 1 1 1 1 1 1 1 1 1 1 1 1 1 1 1 1 1 1 1 1 1 1 0 0 0 0 0 0 0 0 0 0 0 0 0 0 0 0 0 0 0 0 0 0 0 0 0 0 0 0 0 0 0 0 0 0 0 0 0 0 0 0 0 0 0 0 0 0 0 0 0 "/>
</feComponentTransfer>
<feComposite operator="in" in2="shape" in="coloredNoise1" result="noise1Clipped" />
<feFlood flood-color="rgba(0, 0, 0, 0.25)" result="color1Flood" />
<feComposite operator="in" in2="noise1Clipped" in="color1Flood" result="color1" />
<feMerge result="effect1_noise_488_9583">
<feMergeNode in="shape" />
<feMergeNode in="color1" />
</feMerge>
</filter>
<linearGradient id="paint0_linear_488_9583" x1="586.525" y1="171.414" x2="487.517" y2="693.456" gradientUnits="userSpaceOnUse">
<stop stop-color="#869E91"/>
<stop offset="1" stop-color="#07534C"/>
</linearGradient>
<linearGradient id="paint1_linear_488_9583" x1="560.523" y1="159.413" x2="276" y2="346.928" gradientUnits="userSpaceOnUse">
<stop stop-color="#B46510"/>
<stop offset="1" stop-opacity="0"/>
</linearGradient>
<linearGradient id="paint2_linear_488_9583" x1="730.536" y1="285.923" x2="631.528" y2="807.965" gradientUnits="userSpaceOnUse">
<stop stop-color="#2A5751"/>
<stop offset="1" stop-color="#07534C"/>
</linearGradient>
<linearGradient id="paint3_linear_488_9583" x1="704.534" y1="273.922" x2="420.012" y2="461.437" gradientUnits="userSpaceOnUse">
<stop stop-color="#B46510"/>
<stop offset="1" stop-opacity="0"/>
</linearGradient>
<linearGradient id="paint4_linear_488_9583" x1="731.536" y1="400.933" x2="632.528" y2="922.974" gradientUnits="userSpaceOnUse">
<stop stop-color="#347571"/>
<stop offset="1" stop-color="#07534C"/>
</linearGradient>
<linearGradient id="paint5_linear_488_9583" x1="705.534" y1="388.931" x2="421.012" y2="576.446" gradientUnits="userSpaceOnUse">
<stop stop-color="#B46510"/>
<stop offset="1" stop-opacity="0"/>
</linearGradient>
<linearGradient id="paint6_linear_488_9583" x1="358.507" y1="155.413" x2="259.499" y2="677.454" gradientUnits="userSpaceOnUse">
<stop stop-color="#37CFC1"/>
<stop offset="1" stop-color="#07534C"/>
</linearGradient>
<linearGradient id="paint7_linear_488_9583" x1="332.505" y1="143.412" x2="47.9824" y2="330.927" gradientUnits="userSpaceOnUse">
<stop stop-color="#B46510"/>
<stop offset="1" stop-opacity="0"/>
</linearGradient>
<linearGradient id="paint8_linear_488_9583" x1="623.528" y1="509.441" x2="524.52" y2="1031.48" gradientUnits="userSpaceOnUse">
<stop stop-color="#37CFC1"/>
<stop offset="1" stop-color="#07534C"/>
</linearGradient>
<linearGradient id="paint9_linear_488_9583" x1="597.525" y1="497.44" x2="313.003" y2="684.955" gradientUnits="userSpaceOnUse">
<stop stop-color="#B46510"/>
<stop offset="1" stop-opacity="0"/>
</linearGradient>
<linearGradient id="paint10_linear_488_9583" x1="283.501" y1="255.421" x2="184.493" y2="777.462" gradientUnits="userSpaceOnUse">
<stop stop-color="#218980"/>
<stop offset="1" stop-color="#07534C"/>
</linearGradient>
<linearGradient id="paint11_linear_488_9583" x1="257.499" y1="243.42" x2="-27.0236" y2="430.935" gradientUnits="userSpaceOnUse">
<stop stop-color="#B46510"/>
<stop offset="1" stop-opacity="0"/>
</linearGradient>
<linearGradient id="paint12_linear_488_9583" x1="451.514" y1="545.444" x2="352.506" y2="1067.49" gradientUnits="userSpaceOnUse">
<stop stop-color="#347571"/>
<stop offset="1" stop-color="#07534C"/>
</linearGradient>
<linearGradient id="paint13_linear_488_9583" x1="425.512" y1="533.443" x2="140.99" y2="720.957" gradientUnits="userSpaceOnUse">
<stop stop-color="#B46510"/>
<stop offset="1" stop-opacity="0"/>
</linearGradient>
<linearGradient id="paint14_linear_488_9583" x1="439.513" y1="607.949" x2="340.505" y2="1129.99" gradientUnits="userSpaceOnUse">
<stop stop-color="#2A5751"/>
<stop offset="1" stop-color="#07534C"/>
</linearGradient>
<linearGradient id="paint15_linear_488_9583" x1="413.511" y1="595.948" x2="128.989" y2="783.462" gradientUnits="userSpaceOnUse">
<stop stop-color="#B46510"/>
<stop offset="1" stop-opacity="0"/>
</linearGradient>
</defs>
</svg>
