<svg width="919" height="1262" viewBox="0 0 919 1262" fill="none" xmlns="http://www.w3.org/2000/svg">
<g filter="url(#filter0_n_488_9574)">
<path d="M409.789 169.378L464.019 48.2659C472.139 30.1317 494.719 23.8086 511.076 35.0889C518.727 40.3659 523.686 48.7275 524.646 57.9725L600.243 785.951C602.327 806.011 586.591 823.466 566.423 823.466H184.884C154.609 823.466 139.82 786.533 161.726 765.637C164.622 762.875 167 759.617 168.748 756.018L248.983 590.829C250.395 587.922 251.385 584.83 251.924 581.644L301.639 287.739C301.956 285.865 302.116 283.968 302.116 282.068V250.542C302.116 237.348 309.749 225.344 321.698 219.749L393.176 186.276C400.561 182.818 406.457 176.821 409.789 169.378Z" fill="url(#paint0_linear_488_9574)"/>
<path d="M409.789 169.378L464.019 48.2659C472.139 30.1317 494.719 23.8086 511.076 35.0889C518.727 40.3659 523.686 48.7275 524.646 57.9725L600.243 785.951C602.327 806.011 586.591 823.466 566.423 823.466H184.884C154.609 823.466 139.82 786.533 161.726 765.637C164.622 762.875 167 759.617 168.748 756.018L248.983 590.829C250.395 587.922 251.385 584.83 251.924 581.644L301.639 287.739C301.956 285.865 302.116 283.968 302.116 282.068V250.542C302.116 237.348 309.749 225.344 321.698 219.749L393.176 186.276C400.561 182.818 406.457 176.821 409.789 169.378Z" fill="url(#paint1_linear_488_9574)" fill-opacity="0.2"/>
<path d="M409.789 169.378L464.019 48.2659C472.139 30.1317 494.719 23.8086 511.076 35.0889C518.727 40.3659 523.686 48.7275 524.646 57.9725L600.243 785.951C602.327 806.011 586.591 823.466 566.423 823.466H184.884C154.609 823.466 139.82 786.533 161.726 765.637C164.622 762.875 167 759.617 168.748 756.018L248.983 590.829C250.395 587.922 251.385 584.83 251.924 581.644L301.639 287.739C301.956 285.865 302.116 283.968 302.116 282.068V250.542C302.116 237.348 309.749 225.344 321.698 219.749L393.176 186.276C400.561 182.818 406.457 176.821 409.789 169.378Z" stroke="#87ACA1" stroke-width="4"/>
</g>
<g filter="url(#filter1_n_488_9574)">
<path d="M345.119 432.435L380.122 305.425L433.633 168.97C437.701 158.598 446.591 150.877 457.43 148.302L506.334 136.684C520.793 133.249 535.808 139.602 543.41 152.372L700.687 416.544C706.586 426.453 707.061 438.676 701.949 449.012L469.489 919.046C463.756 930.638 451.943 937.975 439.011 937.975H55.9141L42.5286 955.253C39.8498 958.711 35.3381 960.194 31.1303 958.999C19.1668 955.602 21.6209 937.975 34.0573 937.975H55.9141L148.166 818.893C157.336 807.056 173.169 802.611 187.16 807.945L207.619 815.746C222.512 821.425 239.352 815.996 248.124 802.687L301.392 721.866C304.173 717.647 305.978 712.86 306.677 707.855L345.119 432.435Z" fill="url(#paint2_linear_488_9574)"/>
<path d="M345.119 432.435L380.122 305.425L433.633 168.97C437.701 158.598 446.591 150.877 457.43 148.302L506.334 136.684C520.793 133.249 535.808 139.602 543.41 152.372L700.687 416.544C706.586 426.453 707.061 438.676 701.949 449.012L469.489 919.046C463.756 930.638 451.943 937.975 439.011 937.975H55.9141L42.5286 955.253C39.8498 958.711 35.3381 960.194 31.1303 958.999C19.1668 955.602 21.6209 937.975 34.0573 937.975H55.9141L148.166 818.893C157.336 807.056 173.169 802.611 187.16 807.945L207.619 815.746C222.512 821.425 239.352 815.996 248.124 802.687L301.392 721.866C304.173 717.647 305.978 712.86 306.677 707.855L345.119 432.435Z" fill="url(#paint3_linear_488_9574)" fill-opacity="0.2"/>
<path d="M345.119 432.435L380.122 305.425L433.633 168.97C437.701 158.598 446.591 150.877 457.43 148.302L506.334 136.684C520.793 133.249 535.808 139.602 543.41 152.372L700.687 416.544C706.586 426.453 707.061 438.676 701.949 449.012L469.489 919.046C463.756 930.638 451.943 937.975 439.011 937.975H55.9141L42.5286 955.253C39.8498 958.711 35.3381 960.194 31.1303 958.999C19.1668 955.602 21.6209 937.975 34.0573 937.975H55.9141L148.166 818.893C157.336 807.056 173.169 802.611 187.16 807.945L207.619 815.746C222.512 821.425 239.352 815.996 248.124 802.687L301.392 721.866C304.173 717.647 305.978 712.86 306.677 707.855L345.119 432.435Z" stroke="#87ACA1" stroke-width="4"/>
</g>
<g filter="url(#filter2_n_488_9574)">
<path d="M220.109 522.442L278.308 329.513C281.619 318.538 290.238 309.969 301.233 306.723L406.366 275.68C409.193 274.845 411.899 273.646 414.416 272.114L458.256 245.429C481.772 231.115 511.661 249.221 509.866 276.692L461.205 1021.2C460.037 1039.08 445.193 1052.98 427.275 1052.98H32.7759C5.06586 1052.98 -8.47113 1019.18 11.5801 1000.05C17.6556 994.258 21.0935 986.228 21.0935 977.832V837.522C21.0935 832.868 22.0489 828.263 23.9007 823.993L101.299 645.522C104.405 638.36 109.881 632.485 116.807 628.883L182.388 594.781C189.625 591.018 195.268 584.778 198.288 577.201L220.109 522.442Z" fill="url(#paint4_linear_488_9574)"/>
<path d="M220.109 522.442L278.308 329.513C281.619 318.538 290.238 309.969 301.233 306.723L406.366 275.68C409.193 274.845 411.899 273.646 414.416 272.114L458.256 245.429C481.772 231.115 511.661 249.221 509.866 276.692L461.205 1021.2C460.037 1039.08 445.193 1052.98 427.275 1052.98H32.7759C5.06586 1052.98 -8.47113 1019.18 11.5801 1000.05C17.6556 994.258 21.0935 986.228 21.0935 977.832V837.522C21.0935 832.868 22.0489 828.263 23.9007 823.993L101.299 645.522C104.405 638.36 109.881 632.485 116.807 628.883L182.388 594.781C189.625 591.018 195.268 584.778 198.288 577.201L220.109 522.442Z" fill="url(#paint5_linear_488_9574)" fill-opacity="0.2"/>
<path d="M220.109 522.442L278.308 329.513C281.619 318.538 290.238 309.969 301.233 306.723L406.366 275.68C409.193 274.845 411.899 273.646 414.416 272.114L458.256 245.429C481.772 231.115 511.661 249.221 509.866 276.692L461.205 1021.2C460.037 1039.08 445.193 1052.98 427.275 1052.98H32.7759C5.06586 1052.98 -8.47113 1019.18 11.5801 1000.05C17.6556 994.258 21.0935 986.228 21.0935 977.832V837.522C21.0935 832.868 22.0489 828.263 23.9007 823.993L101.299 645.522C104.405 638.36 109.881 632.485 116.807 628.883L182.388 594.781C189.625 591.018 195.268 584.778 198.288 577.201L220.109 522.442Z" stroke="#87ACA1" stroke-width="4"/>
</g>
<g filter="url(#filter3_n_488_9574)">
<path d="M620.575 84.4733L693.088 11.96C702.038 3.01028 715.218 -0.227866 727.296 3.55564L808.319 28.9363C822.503 33.3795 832.157 46.5206 832.157 61.3842V773.462C832.157 792.241 816.934 807.464 798.154 807.464H371.528C349.768 807.464 333.607 787.308 338.338 766.069L396.673 504.182C398.567 495.679 403.652 488.228 410.879 483.365L469.078 444.199C475.579 439.825 480.369 433.339 482.639 425.84L529.283 271.731C529.849 269.862 530.253 267.947 530.49 266.009L545.124 146.352C546.393 135.974 552.366 126.757 561.32 121.36L614.086 89.5503C616.447 88.1272 618.626 86.4224 620.575 84.4733Z" fill="url(#paint6_linear_488_9574)"/>
<path d="M620.575 84.4733L693.088 11.96C702.038 3.01028 715.218 -0.227866 727.296 3.55564L808.319 28.9363C822.503 33.3795 832.157 46.5206 832.157 61.3842V773.462C832.157 792.241 816.934 807.464 798.154 807.464H371.528C349.768 807.464 333.607 787.308 338.338 766.069L396.673 504.182C398.567 495.679 403.652 488.228 410.879 483.365L469.078 444.199C475.579 439.825 480.369 433.339 482.639 425.84L529.283 271.731C529.849 269.862 530.253 267.947 530.49 266.009L545.124 146.352C546.393 135.974 552.366 126.757 561.32 121.36L614.086 89.5503C616.447 88.1272 618.626 86.4224 620.575 84.4733Z" fill="url(#paint7_linear_488_9574)" fill-opacity="0.2"/>
<path d="M620.575 84.4733L693.088 11.96C702.038 3.01028 715.218 -0.227866 727.296 3.55564L808.319 28.9363C822.503 33.3795 832.157 46.5206 832.157 61.3842V773.462C832.157 792.241 816.934 807.464 798.154 807.464H371.528C349.768 807.464 333.607 787.308 338.338 766.069L396.673 504.182C398.567 495.679 403.652 488.228 410.879 483.365L469.078 444.199C475.579 439.825 480.369 433.339 482.639 425.84L529.283 271.731C529.849 269.862 530.253 267.947 530.49 266.009L545.124 146.352C546.393 135.974 552.366 126.757 561.32 121.36L614.086 89.5503C616.447 88.1272 618.626 86.4224 620.575 84.4733Z" stroke="#87ACA1" stroke-width="4"/>
</g>
<g filter="url(#filter4_n_488_9574)">
<path d="M355.554 438.501L428.067 365.988C437.017 357.038 450.197 353.8 462.275 357.583L543.298 382.964C557.482 387.407 567.136 400.548 567.136 415.412V1127.49C567.136 1146.27 551.913 1161.49 533.134 1161.49H106.507C84.7468 1161.49 68.5865 1141.34 73.3176 1120.1L131.653 858.21C133.547 849.707 138.631 842.256 145.858 837.393L204.058 798.227C210.558 793.852 215.348 787.367 217.618 779.867L264.262 625.759C264.828 623.89 265.232 621.975 265.469 620.036L280.103 500.38C281.372 490.002 287.345 480.785 296.299 475.387L349.065 443.578C351.426 442.155 353.605 440.45 355.554 438.501Z" fill="url(#paint8_linear_488_9574)"/>
<path d="M355.554 438.501L428.067 365.988C437.017 357.038 450.197 353.8 462.275 357.583L543.298 382.964C557.482 387.407 567.136 400.548 567.136 415.412V1127.49C567.136 1146.27 551.913 1161.49 533.134 1161.49H106.507C84.7468 1161.49 68.5865 1141.34 73.3176 1120.1L131.653 858.21C133.547 849.707 138.631 842.256 145.858 837.393L204.058 798.227C210.558 793.852 215.348 787.367 217.618 779.867L264.262 625.759C264.828 623.89 265.232 621.975 265.469 620.036L280.103 500.38C281.372 490.002 287.345 480.785 296.299 475.387L349.065 443.578C351.426 442.155 353.605 440.45 355.554 438.501Z" fill="url(#paint9_linear_488_9574)" fill-opacity="0.2"/>
<path d="M355.554 438.501L428.067 365.988C437.017 357.038 450.197 353.8 462.275 357.583L543.298 382.964C557.482 387.407 567.136 400.548 567.136 415.412V1127.49C567.136 1146.27 551.913 1161.49 533.134 1161.49H106.507C84.7468 1161.49 68.5865 1141.34 73.3176 1120.1L131.653 858.21C133.547 849.707 138.631 842.256 145.858 837.393L204.058 798.227C210.558 793.852 215.348 787.367 217.618 779.867L264.262 625.759C264.828 623.89 265.232 621.975 265.469 620.036L280.103 500.38C281.372 490.002 287.345 480.785 296.299 475.387L349.065 443.578C351.426 442.155 353.605 440.45 355.554 438.501Z" stroke="#87ACA1" stroke-width="4"/>
</g>
<g filter="url(#filter5_n_488_9574)">
<path d="M669.021 164.336L689.912 145.288C696.175 139.577 704.345 136.412 712.821 136.412H873.674C892.252 136.412 907.39 151.321 907.673 169.896L916.638 758.443C916.927 777.422 901.621 792.963 882.639 792.963H451.668C428.937 792.963 412.607 771.09 419.067 749.297L493.995 496.519C496.033 489.642 500.194 483.586 505.882 479.217L522.206 466.678C528.31 461.99 532.643 455.369 534.496 447.899L591.406 218.463C593.777 208.906 600.175 200.845 608.945 196.367L661.575 169.492C664.276 168.113 666.78 166.379 669.021 164.336Z" fill="url(#paint10_linear_488_9574)"/>
<path d="M669.021 164.336L689.912 145.288C696.175 139.577 704.345 136.412 712.821 136.412H873.674C892.252 136.412 907.39 151.321 907.673 169.896L916.638 758.443C916.927 777.422 901.621 792.963 882.639 792.963H451.668C428.937 792.963 412.607 771.09 419.067 749.297L493.995 496.519C496.033 489.642 500.194 483.586 505.882 479.217L522.206 466.678C528.31 461.99 532.643 455.369 534.496 447.899L591.406 218.463C593.777 208.906 600.175 200.845 608.945 196.367L661.575 169.492C664.276 168.113 666.78 166.379 669.021 164.336Z" fill="url(#paint11_linear_488_9574)" fill-opacity="0.2"/>
<path d="M669.021 164.336L689.912 145.288C696.175 139.577 704.345 136.412 712.821 136.412H873.674C892.252 136.412 907.39 151.321 907.673 169.896L916.638 758.443C916.927 777.422 901.621 792.963 882.639 792.963H451.668C428.937 792.963 412.607 771.09 419.067 749.297L493.995 496.519C496.033 489.642 500.194 483.586 505.882 479.217L522.206 466.678C528.31 461.99 532.643 455.369 534.496 447.899L591.406 218.463C593.777 208.906 600.175 200.845 608.945 196.367L661.575 169.492C664.276 168.113 666.78 166.379 669.021 164.336Z" stroke="#87ACA1" stroke-width="4"/>
</g>
<g filter="url(#filter6_n_488_9574)">
<path d="M500.131 666.953L558.33 474.025C561.641 463.049 570.26 454.481 581.255 451.234L686.388 420.191C689.215 419.356 691.921 418.158 694.438 416.625L738.278 389.94C761.794 375.626 791.683 393.732 789.888 421.203L741.227 1165.71C740.059 1183.59 725.215 1197.49 707.297 1197.49H312.798C285.088 1197.49 271.551 1163.69 291.602 1144.56C297.678 1138.77 301.115 1130.74 301.115 1122.34V982.033C301.115 977.379 302.071 972.774 303.923 968.504L381.321 790.034C384.427 782.871 389.903 776.996 396.829 773.395L462.41 739.292C469.647 735.529 475.29 729.289 478.31 721.712L500.131 666.953Z" fill="url(#paint12_linear_488_9574)"/>
<path d="M500.131 666.953L558.33 474.025C561.641 463.049 570.26 454.481 581.255 451.234L686.388 420.191C689.215 419.356 691.921 418.158 694.438 416.625L738.278 389.94C761.794 375.626 791.683 393.732 789.888 421.203L741.227 1165.71C740.059 1183.59 725.215 1197.49 707.297 1197.49H312.798C285.088 1197.49 271.551 1163.69 291.602 1144.56C297.678 1138.77 301.115 1130.74 301.115 1122.34V982.033C301.115 977.379 302.071 972.774 303.923 968.504L381.321 790.034C384.427 782.871 389.903 776.996 396.829 773.395L462.41 739.292C469.647 735.529 475.29 729.289 478.31 721.712L500.131 666.953Z" fill="url(#paint13_linear_488_9574)" fill-opacity="0.2"/>
<path d="M500.131 666.953L558.33 474.025C561.641 463.049 570.26 454.481 581.255 451.234L686.388 420.191C689.215 419.356 691.921 418.158 694.438 416.625L738.278 389.94C761.794 375.626 791.683 393.732 789.888 421.203L741.227 1165.71C740.059 1183.59 725.215 1197.49 707.297 1197.49H312.798C285.088 1197.49 271.551 1163.69 291.602 1144.56C297.678 1138.77 301.115 1130.74 301.115 1122.34V982.033C301.115 977.379 302.071 972.774 303.923 968.504L381.321 790.034C384.427 782.871 389.903 776.996 396.829 773.395L462.41 739.292C469.647 735.529 475.29 729.289 478.31 721.712L500.131 666.953Z" stroke="#87ACA1" stroke-width="4"/>
</g>
<g filter="url(#filter7_n_488_9574)">
<path d="M512.132 729.458L570.331 536.53C573.642 525.554 582.261 516.986 593.256 513.739L698.389 482.696C701.216 481.861 703.922 480.663 706.439 479.13L750.279 452.445C773.795 438.131 803.684 456.237 801.889 483.708L753.228 1228.21C752.06 1246.09 737.216 1260 719.298 1260H324.799C297.089 1260 283.552 1226.2 303.603 1207.07C309.679 1201.27 313.116 1193.24 313.116 1184.85V1044.54C313.116 1039.88 314.072 1035.28 315.924 1031.01L393.322 852.539C396.428 845.376 401.904 839.501 408.83 835.899L474.411 801.797C481.648 798.034 487.291 791.794 490.311 784.217L512.132 729.458Z" fill="url(#paint14_linear_488_9574)"/>
<path d="M512.132 729.458L570.331 536.53C573.642 525.554 582.261 516.986 593.256 513.739L698.389 482.696C701.216 481.861 703.922 480.663 706.439 479.13L750.279 452.445C773.795 438.131 803.684 456.237 801.889 483.708L753.228 1228.21C752.06 1246.09 737.216 1260 719.298 1260H324.799C297.089 1260 283.552 1226.2 303.603 1207.07C309.679 1201.27 313.116 1193.24 313.116 1184.85V1044.54C313.116 1039.88 314.072 1035.28 315.924 1031.01L393.322 852.539C396.428 845.376 401.904 839.501 408.83 835.899L474.411 801.797C481.648 798.034 487.291 791.794 490.311 784.217L512.132 729.458Z" fill="url(#paint15_linear_488_9574)" fill-opacity="0.2"/>
<path d="M512.132 729.458L570.331 536.53C573.642 525.554 582.261 516.986 593.256 513.739L698.389 482.696C701.216 481.861 703.922 480.663 706.439 479.13L750.279 452.445C773.795 438.131 803.684 456.237 801.889 483.708L753.228 1228.21C752.06 1246.09 737.216 1260 719.298 1260H324.799C297.089 1260 283.552 1226.2 303.603 1207.07C309.679 1201.27 313.116 1193.24 313.116 1184.85V1044.54C313.116 1039.88 314.072 1035.28 315.924 1031.01L393.322 852.539C396.428 845.376 401.904 839.501 408.83 835.899L474.411 801.797C481.648 798.034 487.291 791.794 490.311 784.217L512.132 729.458Z" stroke="#87ACA1" stroke-width="4"/>
</g>
<defs>
<filter id="filter0_n_488_9574" x="149.262" y="27.4592" width="453.168" height="798.007" filterUnits="userSpaceOnUse" color-interpolation-filters="sRGB">
<feFlood flood-opacity="0" result="BackgroundImageFix"/>
<feBlend mode="normal" in="SourceGraphic" in2="BackgroundImageFix" result="shape"/>
<feTurbulence type="fractalNoise" baseFrequency="2 2" stitchTiles="stitch" numOctaves="3" result="noise" seed="7129" />
<feColorMatrix in="noise" type="luminanceToAlpha" result="alphaNoise" />
<feComponentTransfer in="alphaNoise" result="coloredNoise1">
<feFuncA type="discrete" tableValues="1 1 1 1 1 1 1 1 1 1 1 1 1 1 1 1 1 1 1 1 1 1 1 1 1 1 1 1 1 1 1 1 1 1 1 1 1 1 1 1 1 1 1 1 1 1 1 1 1 1 1 0 0 0 0 0 0 0 0 0 0 0 0 0 0 0 0 0 0 0 0 0 0 0 0 0 0 0 0 0 0 0 0 0 0 0 0 0 0 0 0 0 0 0 0 0 0 0 0 0 "/>
</feComponentTransfer>
<feComposite operator="in" in2="shape" in="coloredNoise1" result="noise1Clipped" />
<feFlood flood-color="rgba(0, 0, 0, 0.25)" result="color1Flood" />
<feComposite operator="in" in2="noise1Clipped" in="color1Flood" result="color1" />
<feMerge result="effect1_noise_488_9574">
<feMergeNode in="shape" />
<feMergeNode in="color1" />
</feMerge>
</filter>
<filter id="filter1_n_488_9574" x="21.3318" y="133.761" width="686.142" height="827.647" filterUnits="userSpaceOnUse" color-interpolation-filters="sRGB">
<feFlood flood-opacity="0" result="BackgroundImageFix"/>
<feBlend mode="normal" in="SourceGraphic" in2="BackgroundImageFix" result="shape"/>
<feTurbulence type="fractalNoise" baseFrequency="2 2" stitchTiles="stitch" numOctaves="3" result="noise" seed="7129" />
<feColorMatrix in="noise" type="luminanceToAlpha" result="alphaNoise" />
<feComponentTransfer in="alphaNoise" result="coloredNoise1">
<feFuncA type="discrete" tableValues="1 1 1 1 1 1 1 1 1 1 1 1 1 1 1 1 1 1 1 1 1 1 1 1 1 1 1 1 1 1 1 1 1 1 1 1 1 1 1 1 1 1 1 1 1 1 1 1 1 1 1 0 0 0 0 0 0 0 0 0 0 0 0 0 0 0 0 0 0 0 0 0 0 0 0 0 0 0 0 0 0 0 0 0 0 0 0 0 0 0 0 0 0 0 0 0 0 0 0 0 "/>
</feComponentTransfer>
<feComposite operator="in" in2="shape" in="coloredNoise1" result="noise1Clipped" />
<feFlood flood-color="rgba(0, 0, 0, 0.25)" result="color1Flood" />
<feComposite operator="in" in2="noise1Clipped" in="color1Flood" result="color1" />
<feMerge result="effect1_noise_488_9574">
<feMergeNode in="shape" />
<feMergeNode in="color1" />
</feMerge>
</filter>
<filter id="filter2_n_488_9574" x="0" y="238.402" width="511.943" height="816.582" filterUnits="userSpaceOnUse" color-interpolation-filters="sRGB">
<feFlood flood-opacity="0" result="BackgroundImageFix"/>
<feBlend mode="normal" in="SourceGraphic" in2="BackgroundImageFix" result="shape"/>
<feTurbulence type="fractalNoise" baseFrequency="2 2" stitchTiles="stitch" numOctaves="3" result="noise" seed="7129" />
<feColorMatrix in="noise" type="luminanceToAlpha" result="alphaNoise" />
<feComponentTransfer in="alphaNoise" result="coloredNoise1">
<feFuncA type="discrete" tableValues="1 1 1 1 1 1 1 1 1 1 1 1 1 1 1 1 1 1 1 1 1 1 1 1 1 1 1 1 1 1 1 1 1 1 1 1 1 1 1 1 1 1 1 1 1 1 1 1 1 1 1 0 0 0 0 0 0 0 0 0 0 0 0 0 0 0 0 0 0 0 0 0 0 0 0 0 0 0 0 0 0 0 0 0 0 0 0 0 0 0 0 0 0 0 0 0 0 0 0 0 "/>
</feComponentTransfer>
<feComposite operator="in" in2="shape" in="coloredNoise1" result="noise1Clipped" />
<feFlood flood-color="rgba(0, 0, 0, 0.25)" result="color1Flood" />
<feComposite operator="in" in2="noise1Clipped" in="color1Flood" result="color1" />
<feMerge result="effect1_noise_488_9574">
<feMergeNode in="shape" />
<feMergeNode in="color1" />
</feMerge>
</filter>
<filter id="filter3_n_488_9574" x="335.511" y="0" width="498.647" height="809.464" filterUnits="userSpaceOnUse" color-interpolation-filters="sRGB">
<feFlood flood-opacity="0" result="BackgroundImageFix"/>
<feBlend mode="normal" in="SourceGraphic" in2="BackgroundImageFix" result="shape"/>
<feTurbulence type="fractalNoise" baseFrequency="2 2" stitchTiles="stitch" numOctaves="3" result="noise" seed="7129" />
<feColorMatrix in="noise" type="luminanceToAlpha" result="alphaNoise" />
<feComponentTransfer in="alphaNoise" result="coloredNoise1">
<feFuncA type="discrete" tableValues="1 1 1 1 1 1 1 1 1 1 1 1 1 1 1 1 1 1 1 1 1 1 1 1 1 1 1 1 1 1 1 1 1 1 1 1 1 1 1 1 1 1 1 1 1 1 1 1 1 1 1 0 0 0 0 0 0 0 0 0 0 0 0 0 0 0 0 0 0 0 0 0 0 0 0 0 0 0 0 0 0 0 0 0 0 0 0 0 0 0 0 0 0 0 0 0 0 0 0 0 "/>
</feComponentTransfer>
<feComposite operator="in" in2="shape" in="coloredNoise1" result="noise1Clipped" />
<feFlood flood-color="rgba(0, 0, 0, 0.25)" result="color1Flood" />
<feComposite operator="in" in2="noise1Clipped" in="color1Flood" result="color1" />
<feMerge result="effect1_noise_488_9574">
<feMergeNode in="shape" />
<feMergeNode in="color1" />
</feMerge>
</filter>
<filter id="filter4_n_488_9574" x="70.4899" y="354.028" width="498.647" height="809.464" filterUnits="userSpaceOnUse" color-interpolation-filters="sRGB">
<feFlood flood-opacity="0" result="BackgroundImageFix"/>
<feBlend mode="normal" in="SourceGraphic" in2="BackgroundImageFix" result="shape"/>
<feTurbulence type="fractalNoise" baseFrequency="2 2" stitchTiles="stitch" numOctaves="3" result="noise" seed="7129" />
<feColorMatrix in="noise" type="luminanceToAlpha" result="alphaNoise" />
<feComponentTransfer in="alphaNoise" result="coloredNoise1">
<feFuncA type="discrete" tableValues="1 1 1 1 1 1 1 1 1 1 1 1 1 1 1 1 1 1 1 1 1 1 1 1 1 1 1 1 1 1 1 1 1 1 1 1 1 1 1 1 1 1 1 1 1 1 1 1 1 1 1 0 0 0 0 0 0 0 0 0 0 0 0 0 0 0 0 0 0 0 0 0 0 0 0 0 0 0 0 0 0 0 0 0 0 0 0 0 0 0 0 0 0 0 0 0 0 0 0 0 "/>
</feComponentTransfer>
<feComposite operator="in" in2="shape" in="coloredNoise1" result="noise1Clipped" />
<feFlood flood-color="rgba(0, 0, 0, 0.25)" result="color1Flood" />
<feComposite operator="in" in2="noise1Clipped" in="color1Flood" result="color1" />
<feMerge result="effect1_noise_488_9574">
<feMergeNode in="shape" />
<feMergeNode in="color1" />
</feMerge>
</filter>
<filter id="filter5_n_488_9574" x="415.642" y="134.411" width="503" height="660.552" filterUnits="userSpaceOnUse" color-interpolation-filters="sRGB">
<feFlood flood-opacity="0" result="BackgroundImageFix"/>
<feBlend mode="normal" in="SourceGraphic" in2="BackgroundImageFix" result="shape"/>
<feTurbulence type="fractalNoise" baseFrequency="2 2" stitchTiles="stitch" numOctaves="3" result="noise" seed="7129" />
<feColorMatrix in="noise" type="luminanceToAlpha" result="alphaNoise" />
<feComponentTransfer in="alphaNoise" result="coloredNoise1">
<feFuncA type="discrete" tableValues="1 1 1 1 1 1 1 1 1 1 1 1 1 1 1 1 1 1 1 1 1 1 1 1 1 1 1 1 1 1 1 1 1 1 1 1 1 1 1 1 1 1 1 1 1 1 1 1 1 1 1 0 0 0 0 0 0 0 0 0 0 0 0 0 0 0 0 0 0 0 0 0 0 0 0 0 0 0 0 0 0 0 0 0 0 0 0 0 0 0 0 0 0 0 0 0 0 0 0 0 "/>
</feComponentTransfer>
<feComposite operator="in" in2="shape" in="coloredNoise1" result="noise1Clipped" />
<feFlood flood-color="rgba(0, 0, 0, 0.25)" result="color1Flood" />
<feComposite operator="in" in2="noise1Clipped" in="color1Flood" result="color1" />
<feMerge result="effect1_noise_488_9574">
<feMergeNode in="shape" />
<feMergeNode in="color1" />
</feMerge>
</filter>
<filter id="filter6_n_488_9574" x="280.022" y="382.913" width="511.943" height="816.582" filterUnits="userSpaceOnUse" color-interpolation-filters="sRGB">
<feFlood flood-opacity="0" result="BackgroundImageFix"/>
<feBlend mode="normal" in="SourceGraphic" in2="BackgroundImageFix" result="shape"/>
<feTurbulence type="fractalNoise" baseFrequency="2 2" stitchTiles="stitch" numOctaves="3" result="noise" seed="7129" />
<feColorMatrix in="noise" type="luminanceToAlpha" result="alphaNoise" />
<feComponentTransfer in="alphaNoise" result="coloredNoise1">
<feFuncA type="discrete" tableValues="1 1 1 1 1 1 1 1 1 1 1 1 1 1 1 1 1 1 1 1 1 1 1 1 1 1 1 1 1 1 1 1 1 1 1 1 1 1 1 1 1 1 1 1 1 1 1 1 1 1 1 0 0 0 0 0 0 0 0 0 0 0 0 0 0 0 0 0 0 0 0 0 0 0 0 0 0 0 0 0 0 0 0 0 0 0 0 0 0 0 0 0 0 0 0 0 0 0 0 0 "/>
</feComponentTransfer>
<feComposite operator="in" in2="shape" in="coloredNoise1" result="noise1Clipped" />
<feFlood flood-color="rgba(0, 0, 0, 0.25)" result="color1Flood" />
<feComposite operator="in" in2="noise1Clipped" in="color1Flood" result="color1" />
<feMerge result="effect1_noise_488_9574">
<feMergeNode in="shape" />
<feMergeNode in="color1" />
</feMerge>
</filter>
<filter id="filter7_n_488_9574" x="292.023" y="445.418" width="511.943" height="816.582" filterUnits="userSpaceOnUse" color-interpolation-filters="sRGB">
<feFlood flood-opacity="0" result="BackgroundImageFix"/>
<feBlend mode="normal" in="SourceGraphic" in2="BackgroundImageFix" result="shape"/>
<feTurbulence type="fractalNoise" baseFrequency="2 2" stitchTiles="stitch" numOctaves="3" result="noise" seed="7129" />
<feColorMatrix in="noise" type="luminanceToAlpha" result="alphaNoise" />
<feComponentTransfer in="alphaNoise" result="coloredNoise1">
<feFuncA type="discrete" tableValues="1 1 1 1 1 1 1 1 1 1 1 1 1 1 1 1 1 1 1 1 1 1 1 1 1 1 1 1 1 1 1 1 1 1 1 1 1 1 1 1 1 1 1 1 1 1 1 1 1 1 1 0 0 0 0 0 0 0 0 0 0 0 0 0 0 0 0 0 0 0 0 0 0 0 0 0 0 0 0 0 0 0 0 0 0 0 0 0 0 0 0 0 0 0 0 0 0 0 0 0 "/>
</feComponentTransfer>
<feComposite operator="in" in2="shape" in="coloredNoise1" result="noise1Clipped" />
<feFlood flood-color="rgba(0, 0, 0, 0.25)" result="color1Flood" />
<feComposite operator="in" in2="noise1Clipped" in="color1Flood" result="color1" />
<feMerge result="effect1_noise_488_9574">
<feMergeNode in="shape" />
<feMergeNode in="color1" />
</feMerge>
</filter>
<linearGradient id="paint0_linear_488_9574" x1="332.118" y1="171.414" x2="431.126" y2="693.456" gradientUnits="userSpaceOnUse">
<stop stop-color="#869E91"/>
<stop offset="1" stop-color="#07534C"/>
</linearGradient>
<linearGradient id="paint1_linear_488_9574" x1="358.12" y1="159.413" x2="642.642" y2="346.928" gradientUnits="userSpaceOnUse">
<stop stop-color="#B46510"/>
<stop offset="1" stop-opacity="0"/>
</linearGradient>
<linearGradient id="paint2_linear_488_9574" x1="188.106" y1="285.923" x2="287.114" y2="807.965" gradientUnits="userSpaceOnUse">
<stop stop-color="#2A5751"/>
<stop offset="1" stop-color="#07534C"/>
</linearGradient>
<linearGradient id="paint3_linear_488_9574" x1="214.108" y1="273.922" x2="498.631" y2="461.437" gradientUnits="userSpaceOnUse">
<stop stop-color="#B46510"/>
<stop offset="1" stop-opacity="0"/>
</linearGradient>
<linearGradient id="paint4_linear_488_9574" x1="187.106" y1="400.933" x2="286.114" y2="922.974" gradientUnits="userSpaceOnUse">
<stop stop-color="#347571"/>
<stop offset="1" stop-color="#07534C"/>
</linearGradient>
<linearGradient id="paint5_linear_488_9574" x1="213.108" y1="388.931" x2="497.631" y2="576.446" gradientUnits="userSpaceOnUse">
<stop stop-color="#B46510"/>
<stop offset="1" stop-opacity="0"/>
</linearGradient>
<linearGradient id="paint6_linear_488_9574" x1="560.136" y1="155.413" x2="659.144" y2="677.454" gradientUnits="userSpaceOnUse">
<stop stop-color="#37CFC1"/>
<stop offset="1" stop-color="#07534C"/>
</linearGradient>
<linearGradient id="paint7_linear_488_9574" x1="586.138" y1="143.412" x2="870.66" y2="330.927" gradientUnits="userSpaceOnUse">
<stop stop-color="#B46510"/>
<stop offset="1" stop-opacity="0"/>
</linearGradient>
<linearGradient id="paint8_linear_488_9574" x1="295.115" y1="509.441" x2="394.123" y2="1031.48" gradientUnits="userSpaceOnUse">
<stop stop-color="#37CFC1"/>
<stop offset="1" stop-color="#07534C"/>
</linearGradient>
<linearGradient id="paint9_linear_488_9574" x1="321.117" y1="497.44" x2="605.639" y2="684.955" gradientUnits="userSpaceOnUse">
<stop stop-color="#B46510"/>
<stop offset="1" stop-opacity="0"/>
</linearGradient>
<linearGradient id="paint10_linear_488_9574" x1="635.142" y1="255.421" x2="734.149" y2="777.462" gradientUnits="userSpaceOnUse">
<stop stop-color="#218980"/>
<stop offset="1" stop-color="#07534C"/>
</linearGradient>
<linearGradient id="paint11_linear_488_9574" x1="661.144" y1="243.42" x2="945.666" y2="430.935" gradientUnits="userSpaceOnUse">
<stop stop-color="#B46510"/>
<stop offset="1" stop-opacity="0"/>
</linearGradient>
<linearGradient id="paint12_linear_488_9574" x1="467.128" y1="545.444" x2="566.136" y2="1067.49" gradientUnits="userSpaceOnUse">
<stop stop-color="#347571"/>
<stop offset="1" stop-color="#07534C"/>
</linearGradient>
<linearGradient id="paint13_linear_488_9574" x1="493.13" y1="533.443" x2="777.653" y2="720.957" gradientUnits="userSpaceOnUse">
<stop stop-color="#B46510"/>
<stop offset="1" stop-opacity="0"/>
</linearGradient>
<linearGradient id="paint14_linear_488_9574" x1="479.129" y1="607.949" x2="578.137" y2="1129.99" gradientUnits="userSpaceOnUse">
<stop stop-color="#2A5751"/>
<stop offset="1" stop-color="#07534C"/>
</linearGradient>
<linearGradient id="paint15_linear_488_9574" x1="505.131" y1="595.948" x2="789.654" y2="783.462" gradientUnits="userSpaceOnUse">
<stop stop-color="#B46510"/>
<stop offset="1" stop-opacity="0"/>
</linearGradient>
</defs>
</svg>
